Gupter-Light.ufo
<glyph name="exclam" format="1">
  <advance width="254"/>
  <unicode hex="0021"/>
  <outline>
    <contour>
      <point x="85" y="625" type="line"/>
      <point x="85" y="534" type="line"/>
      <point x="112" y="179" type="line"/>
      <point x="141" y="179" type="line"/>
      <point x="168" y="534" type="line"/>
      <point x="168" y="625" type="line"/>
    </contour>
    <contour>
      <point x="88" y="107"/>
      <point x="66" y="83"/>
      <point x="66" y="44" type="curve" smooth="yes"/>
      <point x="66" y="8"/>
      <point x="88" y="-12"/>
      <point x="124" y="-12" type="curve" smooth="yes"/>
      <point x="165" y="-12"/>
      <point x="188" y="8"/>
      <point x="188" y="44" type="curve" smooth="yes"/>
      <point x="188" y="83"/>
      <point x="165" y="107"/>
      <point x="124" y="107" type="curve" smooth="yes"/>
    </contour>
  </outline>
</glyph>
<glyph name="numbersign" format="1">
  <advance width="431"/>
  <unicode hex="0023"/>
  <outline>
    <contour>
      <point x="332" y="625" type="line"/>
      <point x="188" y="0" type="line"/>
      <point x="236" y="0" type="line"/>
      <point x="382" y="625" type="line"/>
    </contour>
    <contour>
      <point x="27" y="236" type="line"/>
      <point x="27" y="195" type="line"/>
      <point x="350" y="195" type="line"/>
      <point x="350" y="236" type="line"/>
    </contour>
    <contour>
      <point x="184" y="625" type="line"/>
      <point x="40" y="0" type="line"/>
      <point x="88" y="0" type="line"/>
      <point x="234" y="625" type="line"/>
    </contour>
    <contour>
      <point x="80" y="464" type="line"/>
      <point x="80" y="423" type="line"/>
      <point x="403" y="423" type="line"/>
      <point x="403" y="464" type="line"/>
    </contour>
  </outline>
</glyph>
<glyph name="dollar" format="1">
  <advance width="461"/>
  <unicode hex="0024"/>
  <outline>
    <contour>
      <point x="150" y="640"/>
      <point x="60" y="598"/>
      <point x="60" y="471" type="curve" smooth="yes"/>
      <point x="60" y="370"/>
      <point x="155" y="323"/>
      <point x="218" y="292" type="curve" smooth="yes"/>
      <point x="283" y="260"/>
      <point x="346" y="230"/>
      <point x="346" y="144" type="curve" smooth="yes"/>
      <point x="346" y="71"/>
      <point x="282" y="29"/>
      <point x="224" y="29" type="curve" smooth="yes"/>
      <point x="144" y="29"/>
      <point x="103" y="85"/>
      <point x="83" y="177" type="curve"/>
      <point x="48" y="177" type="line"/>
      <point x="54" y="126"/>
      <point x="56" y="73"/>
      <point x="56" y="20" type="curve"/>
      <point x="109" y="-1"/>
      <point x="164" y="-12"/>
      <point x="220" y="-12" type="curve" smooth="yes"/>
      <point x="326" y="-12"/>
      <point x="413" y="52"/>
      <point x="413" y="167" type="curve" smooth="yes"/>
      <point x="413" y="268"/>
      <point x="323" y="317"/>
      <point x="259" y="350" type="curve" smooth="yes"/>
      <point x="202" y="377"/>
      <point x="123" y="418"/>
      <point x="123" y="495" type="curve" smooth="yes"/>
      <point x="123" y="558"/>
      <point x="179" y="598"/>
      <point x="236" y="598" type="curve" smooth="yes"/>
      <point x="306" y="598"/>
      <point x="355" y="549"/>
      <point x="355" y="467" type="curve"/>
      <point x="389" y="467" type="line"/>
      <point x="389" y="523"/>
      <point x="389" y="558"/>
      <point x="394" y="613" type="curve"/>
      <point x="355" y="630"/>
      <point x="300" y="640"/>
      <point x="244" y="640" type="curve" smooth="yes"/>
    </contour>
    <contour>
      <point x="215" y="715" type="line"/>
      <point x="215" y="-95" type="line"/>
      <point x="254" y="-95" type="line"/>
      <point x="254" y="715" type="line"/>
    </contour>
  </outline>
</glyph>
<glyph name="percent" format="1">
  <advance width="557"/>
  <unicode hex="0025"/>
  <outline>
    <contour>
      <point x="42" y="358"/>
      <point x="83" y="294"/>
      <point x="153" y="294" type="curve" smooth="yes"/>
      <point x="224" y="294"/>
      <point x="264" y="358"/>
      <point x="264" y="466" type="curve" smooth="yes"/>
      <point x="264" y="574"/>
      <point x="224" y="638"/>
      <point x="153" y="638" type="curve" smooth="yes"/>
      <point x="83" y="638"/>
      <point x="42" y="574"/>
      <point x="42" y="466" type="curve" smooth="yes"/>
    </contour>
    <contour>
      <point x="97" y="563"/>
      <point x="114" y="607"/>
      <point x="153" y="607" type="curve" smooth="yes"/>
      <point x="192" y="607"/>
      <point x="208" y="563"/>
      <point x="208" y="466" type="curve" smooth="yes"/>
      <point x="208" y="368"/>
      <point x="192" y="326"/>
      <point x="153" y="326" type="curve" smooth="yes"/>
      <point x="114" y="326"/>
      <point x="97" y="368"/>
      <point x="97" y="466" type="curve" smooth="yes"/>
    </contour>
    <contour>
      <point x="292" y="52"/>
      <point x="332" y="-12"/>
      <point x="403" y="-12" type="curve" smooth="yes"/>
      <point x="474" y="-12"/>
      <point x="514" y="52"/>
      <point x="514" y="160" type="curve" smooth="yes"/>
      <point x="514" y="268"/>
      <point x="474" y="332"/>
      <point x="403" y="332" type="curve" smooth="yes"/>
      <point x="332" y="332"/>
      <point x="292" y="268"/>
      <point x="292" y="160" type="curve" smooth="yes"/>
    </contour>
    <contour>
      <point x="347" y="258"/>
      <point x="363" y="302"/>
      <point x="403" y="302" type="curve" smooth="yes"/>
      <point x="443" y="302"/>
      <point x="458" y="258"/>
      <point x="458" y="160" type="curve" smooth="yes"/>
      <point x="458" y="63"/>
      <point x="443" y="19"/>
      <point x="403" y="19" type="curve" smooth="yes"/>
      <point x="363" y="19"/>
      <point x="347" y="63"/>
      <point x="347" y="160" type="curve" smooth="yes"/>
    </contour>
    <component base="fraction" xOffset="170"/>
  </outline>
</glyph>
<glyph name="ampersand" format="1">
  <advance width="654"/>
  <unicode hex="0026"/>
  <outline>
    <contour>
      <point x="192" y="634"/>
      <point x="147" y="559"/>
      <point x="147" y="478" type="curve" smooth="yes"/>
      <point x="147" y="431"/>
      <point x="159" y="374"/>
      <point x="180" y="311" type="curve" smooth="yes"/>
      <point x="243" y="132"/>
      <point x="402" y="-12"/>
      <point x="518" y="-12" type="curve" smooth="yes"/>
      <point x="567" y="-12"/>
      <point x="610" y="13"/>
      <point x="637" y="96" type="curve"/>
      <point x="637" y="96"/>
      <point x="614" y="108"/>
      <point x="614" y="108" type="curve"/>
      <point x="586" y="75"/>
      <point x="569" y="61"/>
      <point x="531" y="61" type="curve" smooth="yes"/>
      <point x="356" y="61"/>
      <point x="216" y="348"/>
      <point x="215" y="502" type="curve" smooth="yes"/>
      <point x="215" y="555"/>
      <point x="240" y="603"/>
      <point x="293" y="603" type="curve" smooth="yes"/>
      <point x="339" y="603"/>
      <point x="358" y="571"/>
      <point x="358" y="515" type="curve" smooth="yes"/>
      <point x="358" y="437"/>
      <point x="299" y="392"/>
      <point x="223" y="355" type="curve"/>
      <point x="242" y="323" type="line"/>
      <point x="334" y="371"/>
      <point x="415" y="418"/>
      <point x="415" y="523" type="curve" smooth="yes"/>
      <point x="415" y="581"/>
      <point x="377" y="634"/>
      <point x="299" y="634" type="curve" smooth="yes"/>
    </contour>
    <contour>
      <point x="97" y="308"/>
      <point x="42" y="224"/>
      <point x="42" y="141" type="curve" smooth="yes"/>
      <point x="42" y="61"/>
      <point x="91" y="-12"/>
      <point x="198" y="-12" type="curve" smooth="yes"/>
      <point x="270" y="-12"/>
      <point x="330" y="18"/>
      <point x="386" y="75" type="curve"/>
      <point x="358" y="98" type="line"/>
      <point x="318" y="60"/>
      <point x="267" y="32"/>
      <point x="224" y="32" type="curve" smooth="yes"/>
      <point x="155" y="32"/>
      <point x="116" y="87"/>
      <point x="116" y="156" type="curve" smooth="yes"/>
      <point x="116" y="215"/>
      <point x="147" y="280"/>
      <point x="212" y="312" type="curve"/>
      <point x="199" y="348" type="line"/>
    </contour>
    <contour>
      <point x="479" y="362"/>
      <point x="486" y="362"/>
      <point x="396" y="366" type="curve"/>
      <point x="396" y="332" type="line"/>
      <point x="439" y="330"/>
      <point x="451" y="316"/>
      <point x="451" y="287" type="curve" smooth="yes"/>
      <point x="451" y="212"/>
      <point x="409" y="146"/>
      <point x="353" y="98" type="curve"/>
      <point x="382" y="75" type="line"/>
      <point x="435" y="127"/>
      <point x="482" y="198"/>
      <point x="507" y="293" type="curve" smooth="yes"/>
      <point x="514" y="320"/>
      <point x="526" y="331"/>
      <point x="569" y="332" type="curve"/>
      <point x="569" y="366" type="line"/>
    </contour>
  </outline>
</glyph>
<glyph name="quotesingle" format="1">
  <advance width="215"/>
  <unicode hex="0027"/>
  <outline>
    <contour>
      <point x="66" y="646" type="line"/>
      <point x="84" y="443" type="line"/>
      <point x="132" y="443" type="line"/>
      <point x="150" y="646" type="line"/>
    </contour>
  </outline>
</glyph>
<glyph name="parenleft" format="1">
  <advance width="259"/>
  <unicode hex="0028"/>
  <outline>
    <contour>
      <point x="112" y="529"/>
      <point x="51" y="413"/>
      <point x="51" y="234" type="curve" smooth="yes"/>
      <point x="51" y="54"/>
      <point x="112" y="-63"/>
      <point x="222" y="-167" type="curve"/>
      <point x="247" y="-148" type="line"/>
      <point x="150" y="-32"/>
      <point x="132" y="88"/>
      <point x="132" y="234" type="curve" smooth="yes"/>
      <point x="132" y="378"/>
      <point x="150" y="499"/>
      <point x="247" y="615" type="curve"/>
      <point x="222" y="633" type="line"/>
    </contour>
  </outline>
</glyph>
<glyph name="asterisk" format="1">
  <advance width="360"/>
  <unicode hex="002A"/>
  <outline>
    <contour>
      <point x="159" y="638"/>
      <point x="148" y="623"/>
      <point x="148" y="602" type="curve" smooth="yes"/>
      <point x="148" y="558"/>
      <point x="171" y="543"/>
      <point x="175" y="489" type="curve"/>
      <point x="129" y="518"/>
      <point x="127" y="546"/>
      <point x="88" y="567" type="curve" smooth="yes"/>
      <point x="71" y="578"/>
      <point x="52" y="577"/>
      <point x="40" y="558" type="curve" smooth="yes"/>
      <point x="30" y="539"/>
      <point x="39" y="523"/>
      <point x="56" y="512" type="curve" smooth="yes"/>
      <point x="95" y="489"/>
      <point x="121" y="502"/>
      <point x="169" y="477" type="curve"/>
      <point x="121" y="453"/>
      <point x="95" y="466"/>
      <point x="56" y="443" type="curve" smooth="yes"/>
      <point x="39" y="431"/>
      <point x="30" y="415"/>
      <point x="40" y="396" type="curve" smooth="yes"/>
      <point x="52" y="378"/>
      <point x="71" y="377"/>
      <point x="88" y="387" type="curve" smooth="yes"/>
      <point x="127" y="408"/>
      <point x="129" y="436"/>
      <point x="175" y="466" type="curve"/>
      <point x="171" y="412"/>
      <point x="148" y="397"/>
      <point x="148" y="353" type="curve" smooth="yes"/>
      <point x="148" y="331"/>
      <point x="159" y="316"/>
      <point x="180" y="316" type="curve" smooth="yes"/>
      <point x="202" y="316"/>
      <point x="213" y="331"/>
      <point x="213" y="353" type="curve" smooth="yes"/>
      <point x="213" y="397"/>
      <point x="190" y="412"/>
      <point x="187" y="467" type="curve"/>
      <point x="232" y="437"/>
      <point x="235" y="409"/>
      <point x="272" y="387" type="curve" smooth="yes"/>
      <point x="291" y="377"/>
      <point x="310" y="378"/>
      <point x="320" y="397" type="curve" smooth="yes"/>
      <point x="331" y="415"/>
      <point x="323" y="431"/>
      <point x="305" y="443" type="curve" smooth="yes"/>
      <point x="267" y="466"/>
      <point x="241" y="453"/>
      <point x="193" y="477" type="curve"/>
      <point x="241" y="502"/>
      <point x="267" y="489"/>
      <point x="305" y="512" type="curve" smooth="yes"/>
      <point x="323" y="523"/>
      <point x="331" y="539"/>
      <point x="320" y="558" type="curve" smooth="yes"/>
      <point x="310" y="577"/>
      <point x="291" y="578"/>
      <point x="272" y="567" type="curve" smooth="yes"/>
      <point x="235" y="546"/>
      <point x="232" y="518"/>
      <point x="187" y="488" type="curve"/>
      <point x="190" y="542"/>
      <point x="213" y="558"/>
      <point x="213" y="602" type="curve" smooth="yes"/>
      <point x="213" y="623"/>
      <point x="202" y="638"/>
      <point x="180" y="638" type="curve" smooth="yes"/>
    </contour>
  </outline>
</glyph>
<glyph name="plus" format="1">
  <advance width="431"/>
  <unicode hex="002B"/>
  <outline>
    <contour>
      <point x="191" y="458" type="line"/>
      <point x="191" y="168" type="line"/>
      <point x="239" y="168" type="line"/>
      <point x="239" y="458" type="line"/>
    </contour>
    <contour>
      <point x="71" y="341" type="line"/>
      <point x="71" y="294" type="line"/>
      <point x="360" y="294" type="line"/>
      <point x="360" y="341" type="line"/>
    </contour>
  </outline>
</glyph>
<glyph name="comma" format="1">
  <advance width="215"/>
  <unicode hex="002C"/>
  <outline>
    <contour>
      <point x="80" y="108"/>
      <point x="52" y="87"/>
      <point x="52" y="56" type="curve" smooth="yes"/>
      <point x="52" y="35"/>
      <point x="60" y="9"/>
      <point x="88" y="9" type="curve" smooth="yes"/>
      <point x="108" y="9"/>
      <point x="115" y="23"/>
      <point x="124" y="23" type="curve" smooth="yes"/>
      <point x="129" y="23"/>
      <point x="132" y="17"/>
      <point x="132" y="8" type="curve" smooth="yes"/>
      <point x="132" y="-40"/>
      <point x="104" y="-72"/>
      <point x="60" y="-90" type="curve"/>
      <point x="72" y="-111" type="line"/>
      <point x="147" y="-83"/>
      <point x="177" y="-30"/>
      <point x="177" y="21" type="curve" smooth="yes"/>
      <point x="177" y="66"/>
      <point x="158" y="108"/>
      <point x="108" y="108" type="curve" smooth="yes"/>
    </contour>
  </outline>
</glyph>
<glyph name="hyphen" format="1">
  <advance width="215"/>
  <unicode hex="002D"/>
  <outline>
    <contour>
      <point x="21" y="308" type="line"/>
      <point x="21" y="244" type="line"/>
      <point x="194" y="244" type="line"/>
      <point x="194" y="308" type="line"/>
    </contour>
  </outline>
</glyph>
<glyph name="period" format="1">
  <advance width="215"/>
  <unicode hex="002E"/>
  <outline>
    <contour>
      <point x="73" y="97"/>
      <point x="52" y="75"/>
      <point x="52" y="40" type="curve" smooth="yes"/>
      <point x="52" y="8"/>
      <point x="73" y="-9"/>
      <point x="105" y="-9" type="curve" smooth="yes"/>
      <point x="143" y="-9"/>
      <point x="163" y="8"/>
      <point x="163" y="40" type="curve" smooth="yes"/>
      <point x="163" y="75"/>
      <point x="143" y="97"/>
      <point x="105" y="97" type="curve" smooth="yes"/>
    </contour>
  </outline>
</glyph>
<glyph name="slash" format="1">
  <advance width="304"/>
  <unicode hex="002F"/>
  <outline>
    <contour>
      <point x="12" y="-81" type="line"/>
      <point x="57" y="-95" type="line"/>
      <point x="292" y="626" type="line"/>
      <point x="247" y="638" type="line"/>
    </contour>
  </outline>
</glyph>
<glyph name="zero" format="1">
  <advance width="474"/>
  <unicode hex="0030"/>
  <outline>
    <contour>
      <point x="111" y="638"/>
      <point x="48" y="517"/>
      <point x="48" y="312" type="curve" smooth="yes"/>
      <point x="48" y="108"/>
      <point x="111" y="-13"/>
      <point x="236" y="-13" type="curve" smooth="yes"/>
      <point x="362" y="-13"/>
      <point x="426" y="108"/>
      <point x="426" y="312" type="curve" smooth="yes"/>
      <point x="426" y="517"/>
      <point x="362" y="638"/>
      <point x="236" y="638" type="curve" smooth="yes"/>
    </contour>
    <contour>
      <point x="316" y="604"/>
      <point x="353" y="506"/>
      <point x="353" y="312" type="curve" smooth="yes"/>
      <point x="353" y="119"/>
      <point x="316" y="21"/>
      <point x="236" y="21" type="curve" smooth="yes"/>
      <point x="158" y="21"/>
      <point x="121" y="119"/>
      <point x="121" y="312" type="curve" smooth="yes"/>
      <point x="121" y="506"/>
      <point x="158" y="604"/>
      <point x="236" y="604" type="curve" smooth="yes"/>
    </contour>
  </outline>
</glyph>
<glyph name="one" format="1">
  <advance width="339"/>
  <unicode hex="0031"/>
  <outline>
    <contour>
      <point x="47" y="583" type="line"/>
      <point x="47" y="555" type="line"/>
      <point x="123" y="566" type="line"/>
      <point x="135" y="569"/>
      <point x="141" y="559"/>
      <point x="141" y="550" type="curve" smooth="yes"/>
      <point x="141" y="109" type="line" smooth="yes"/>
      <point x="141" y="40"/>
      <point x="128" y="33"/>
      <point x="66" y="31" type="curve"/>
      <point x="66" y="-3" type="line"/>
      <point x="171" y="3"/>
      <point x="182" y="3"/>
      <point x="286" y="-3" type="curve"/>
      <point x="286" y="31" type="line"/>
      <point x="224" y="33"/>
      <point x="211" y="40"/>
      <point x="211" y="109" type="curve" smooth="yes"/>
      <point x="211" y="631" type="line"/>
      <point x="194" y="638" type="line"/>
    </contour>
  </outline>
</glyph>
<glyph name="two" format="1">
  <advance width="403"/>
  <unicode hex="0032"/>
  <outline>
    <contour>
      <point x="147" y="638"/>
      <point x="97" y="627"/>
      <point x="51" y="609" type="curve"/>
      <point x="51" y="488" type="line"/>
      <point x="86" y="488" type="line"/>
      <point x="86" y="569"/>
      <point x="129" y="602"/>
      <point x="188" y="602" type="curve" smooth="yes"/>
      <point x="248" y="602"/>
      <point x="276" y="562"/>
      <point x="276" y="501" type="curve" smooth="yes"/>
      <point x="276" y="384"/>
      <point x="164" y="192"/>
      <point x="42" y="47" type="curve"/>
      <point x="42" y="0" type="line"/>
      <point x="362" y="0" type="line"/>
      <point x="362" y="66" type="line"/>
      <point x="112" y="66" type="line"/>
      <point x="238" y="211"/>
      <point x="351" y="398"/>
      <point x="351" y="514" type="curve" smooth="yes"/>
      <point x="351" y="589"/>
      <point x="307" y="638"/>
      <point x="191" y="638" type="curve" smooth="yes"/>
    </contour>
  </outline>
</glyph>
<glyph name="three" format="1">
  <advance width="391"/>
  <unicode hex="0033"/>
  <outline>
    <contour>
      <point x="129" y="638"/>
      <point x="79" y="627"/>
      <point x="32" y="609" type="curve"/>
      <point x="32" y="488" type="line"/>
      <point x="68" y="488" type="line"/>
      <point x="68" y="569"/>
      <point x="111" y="594"/>
      <point x="170" y="594" type="curve" smooth="yes"/>
      <point x="227" y="594"/>
      <point x="263" y="562"/>
      <point x="263" y="494" type="curve" smooth="yes"/>
      <point x="263" y="427"/>
      <point x="202" y="377"/>
      <point x="99" y="362" type="curve"/>
      <point x="99" y="339" type="line"/>
      <point x="196" y="335"/>
      <point x="282" y="300"/>
      <point x="282" y="211" type="curve" smooth="yes"/>
      <point x="282" y="95"/>
      <point x="171" y="33"/>
      <point x="30" y="19" type="curve"/>
      <point x="43" y="-12" type="line"/>
      <point x="188" y="-7"/>
      <point x="355" y="57"/>
      <point x="355" y="202" type="curve" smooth="yes"/>
      <point x="355" y="295"/>
      <point x="300" y="334"/>
      <point x="222" y="358" type="curve"/>
      <point x="222" y="362" type="line"/>
      <point x="270" y="383"/>
      <point x="332" y="425"/>
      <point x="332" y="507" type="curve" smooth="yes"/>
      <point x="332" y="593"/>
      <point x="275" y="638"/>
      <point x="174" y="638" type="curve" smooth="yes"/>
    </contour>
  </outline>
</glyph>
<glyph name="four" format="1">
  <advance width="485"/>
  <unicode hex="0034"/>
  <outline>
    <contour>
      <point x="36" y="200" type="line"/>
      <point x="36" y="170" type="line"/>
      <point x="282" y="170" type="line"/>
      <point x="282" y="0" type="line"/>
      <point x="351" y="0" type="line"/>
      <point x="351" y="170" type="line"/>
      <point x="431" y="170" type="line"/>
      <point x="431" y="210" type="line"/>
      <point x="351" y="210" type="line"/>
      <point x="351" y="631" type="line"/>
      <point x="334" y="638" type="line"/>
    </contour>
    <contour>
      <point x="282" y="210" type="line"/>
      <point x="91" y="210" type="line"/>
      <point x="282" y="490" type="line"/>
    </contour>
  </outline>
</glyph>
<glyph name="five" format="1">
  <advance width="397"/>
  <unicode hex="0035"/>
  <outline>
    <contour>
      <point x="104" y="571"/>
      <point x="64" y="571"/>
      <point x="64" y="571" type="curve"/>
      <point x="64" y="344" type="line"/>
      <point x="105" y="341" type="line" smooth="yes"/>
      <point x="202" y="332"/>
      <point x="282" y="295"/>
      <point x="282" y="214" type="curve" smooth="yes"/>
      <point x="282" y="84"/>
      <point x="178" y="47"/>
      <point x="36" y="19" type="curve"/>
      <point x="49" y="-12" type="line"/>
      <point x="206" y="0"/>
      <point x="355" y="57"/>
      <point x="355" y="213" type="curve" smooth="yes"/>
      <point x="355" y="324"/>
      <point x="262" y="382"/>
      <point x="135" y="396" type="curve" smooth="yes"/>
      <point x="104" y="399" type="line"/>
      <point x="104" y="571" type="line"/>
    </contour>
    <contour>
      <point x="64" y="625" type="line"/>
      <point x="64" y="558" type="line"/>
      <point x="332" y="558" type="line"/>
      <point x="332" y="625" type="line"/>
    </contour>
  </outline>
</glyph>
<glyph name="six" format="1">
  <advance width="423"/>
  <unicode hex="0036"/>
  <outline>
    <contour>
      <point x="213" y="626"/>
      <point x="42" y="491"/>
      <point x="42" y="263" type="curve" smooth="yes"/>
      <point x="42" y="69"/>
      <point x="107" y="-12"/>
      <point x="215" y="-12" type="curve" smooth="yes"/>
      <point x="323" y="-12"/>
      <point x="394" y="66"/>
      <point x="394" y="195" type="curve" smooth="yes"/>
      <point x="394" y="304"/>
      <point x="335" y="366"/>
      <point x="236" y="366" type="curve" smooth="yes"/>
      <point x="196" y="366"/>
      <point x="124" y="350"/>
      <point x="88" y="275" type="curve"/>
      <point x="88" y="275"/>
      <point x="105" y="266"/>
      <point x="105" y="266" type="curve"/>
      <point x="139" y="306"/>
      <point x="177" y="318"/>
      <point x="218" y="318" type="curve" smooth="yes"/>
      <point x="288" y="318"/>
      <point x="319" y="270"/>
      <point x="319" y="180" type="curve" smooth="yes"/>
      <point x="319" y="83"/>
      <point x="292" y="23"/>
      <point x="215" y="23" type="curve" smooth="yes"/>
      <point x="153" y="23"/>
      <point x="116" y="104"/>
      <point x="116" y="283" type="curve" smooth="yes"/>
      <point x="116" y="459"/>
      <point x="224" y="585"/>
      <point x="365" y="603" type="curve"/>
      <point x="354" y="634" type="line"/>
    </contour>
  </outline>
</glyph>
<glyph name="seven" format="1">
  <advance width="391"/>
  <unicode hex="0037"/>
  <outline>
    <contour>
      <point x="16" y="478" type="line"/>
      <point x="44" y="478" type="line"/>
      <point x="66" y="531"/>
      <point x="76" y="555"/>
      <point x="159" y="555" type="curve" smooth="yes"/>
      <point x="296" y="555" type="line"/>
      <point x="104" y="0" type="line"/>
      <point x="170" y="0" type="line"/>
      <point x="355" y="591" type="line"/>
      <point x="355" y="625" type="line"/>
      <point x="194" y="625" type="line"/>
      <point x="151" y="625"/>
      <point x="93" y="625"/>
      <point x="48" y="629" type="curve"/>
    </contour>
  </outline>
</glyph>
<glyph name="eight" format="1">
  <advance width="430"/>
  <unicode hex="0038"/>
  <outline>
    <contour>
      <point x="134" y="638"/>
      <point x="52" y="591"/>
      <point x="52" y="494" type="curve" smooth="yes"/>
      <point x="52" y="427"/>
      <point x="83" y="380"/>
      <point x="152" y="334" type="curve" smooth="yes"/>
      <point x="163" y="327" type="line"/>
      <point x="84" y="287"/>
      <point x="36" y="214"/>
      <point x="36" y="140" type="curve" smooth="yes"/>
      <point x="36" y="40"/>
      <point x="123" y="-12"/>
      <point x="214" y="-12" type="curve" smooth="yes"/>
      <point x="300" y="-12"/>
      <point x="394" y="47"/>
      <point x="394" y="148" type="curve" smooth="yes"/>
      <point x="394" y="246"/>
      <point x="324" y="291"/>
      <point x="260" y="339" type="curve" smooth="yes"/>
      <point x="251" y="346" type="line"/>
      <point x="322" y="365"/>
      <point x="377" y="423"/>
      <point x="377" y="503" type="curve" smooth="yes"/>
      <point x="377" y="592"/>
      <point x="299" y="638"/>
      <point x="224" y="638" type="curve" smooth="yes"/>
    </contour>
    <contour>
      <point x="220" y="284" type="line" smooth="yes"/>
      <point x="279" y="242"/>
      <point x="319" y="208"/>
      <point x="319" y="138" type="curve" smooth="yes"/>
      <point x="319" y="76"/>
      <point x="282" y="30"/>
      <point x="219" y="30" type="curve" smooth="yes"/>
      <point x="144" y="30"/>
      <point x="107" y="88"/>
      <point x="107" y="163" type="curve" smooth="yes"/>
      <point x="107" y="206"/>
      <point x="134" y="280"/>
      <point x="189" y="307" type="curve"/>
    </contour>
    <contour>
      <point x="268" y="598"/>
      <point x="308" y="561"/>
      <point x="308" y="497" type="curve" smooth="yes"/>
      <point x="308" y="443"/>
      <point x="290" y="403"/>
      <point x="223" y="367" type="curve"/>
      <point x="204" y="380" type="line" smooth="yes"/>
      <point x="143" y="426"/>
      <point x="124" y="445"/>
      <point x="124" y="507" type="curve" smooth="yes"/>
      <point x="124" y="558"/>
      <point x="160" y="598"/>
      <point x="211" y="598" type="curve" smooth="yes"/>
    </contour>
  </outline>
</glyph>
<glyph name="less" format="1">
  <advance width="431"/>
  <unicode hex="003C"/>
  <outline>
    <contour>
      <point x="60" y="331" type="line"/>
      <point x="60" y="299" type="line"/>
      <point x="355" y="156" type="line"/>
      <point x="355" y="206" type="line"/>
      <point x="127" y="316" type="line"/>
      <point x="355" y="425" type="line"/>
      <point x="355" y="474" type="line"/>
    </contour>
  </outline>
</glyph>
<glyph name="equal" format="1">
  <advance width="431"/>
  <unicode hex="003D"/>
  <outline>
    <contour>
      <point x="71" y="403" type="line"/>
      <point x="71" y="356" type="line"/>
      <point x="360" y="356" type="line"/>
      <point x="360" y="403" type="line"/>
    </contour>
    <contour>
      <point x="71" y="262" type="line"/>
      <point x="71" y="215" type="line"/>
      <point x="360" y="215" type="line"/>
      <point x="360" y="262" type="line"/>
    </contour>
  </outline>
</glyph>
<glyph name="question" format="1">
  <advance width="362"/>
  <unicode hex="003F"/>
  <outline>
    <contour>
      <point x="110" y="626"/>
      <point x="67" y="621"/>
      <point x="30" y="613" type="curve"/>
      <point x="30" y="500" type="line"/>
      <point x="71" y="500" type="line"/>
      <point x="71" y="561"/>
      <point x="103" y="592"/>
      <point x="151" y="592" type="curve" smooth="yes"/>
      <point x="213" y="592"/>
      <point x="239" y="535"/>
      <point x="239" y="457" type="curve" smooth="yes"/>
      <point x="239" y="359"/>
      <point x="184" y="306"/>
      <point x="103" y="296" type="curve"/>
      <point x="112" y="179" type="line"/>
      <point x="144" y="179" type="line"/>
      <point x="151" y="263" type="line"/>
      <point x="254" y="278"/>
      <point x="315" y="359"/>
      <point x="315" y="466" type="curve" smooth="yes"/>
      <point x="315" y="565"/>
      <point x="251" y="626"/>
      <point x="146" y="626" type="curve" smooth="yes"/>
    </contour>
    <contour>
      <point x="87" y="107"/>
      <point x="64" y="83"/>
      <point x="64" y="44" type="curve" smooth="yes"/>
      <point x="64" y="8"/>
      <point x="87" y="-12"/>
      <point x="123" y="-12" type="curve" smooth="yes"/>
      <point x="164" y="-12"/>
      <point x="187" y="8"/>
      <point x="187" y="44" type="curve" smooth="yes"/>
      <point x="187" y="83"/>
      <point x="164" y="107"/>
      <point x="123" y="107" type="curve" smooth="yes"/>
    </contour>
  </outline>
</glyph>
<glyph name="at" format="1">
  <advance width="860"/>
  <unicode hex="0040"/>
  <outline>
    <contour>
      <point x="262" y="623"/>
      <point x="42" y="473"/>
      <point x="42" y="144" type="curve" smooth="yes"/>
      <point x="42" y="-78"/>
      <point x="218" y="-184"/>
      <point x="423" y="-184" type="curve" smooth="yes"/>
      <point x="530" y="-184"/>
      <point x="643" y="-155"/>
      <point x="746" y="-96" type="curve"/>
      <point x="732" y="-67" type="line"/>
      <point x="638" y="-121"/>
      <point x="534" y="-148"/>
      <point x="437" y="-148" type="curve" smooth="yes"/>
      <point x="258" y="-148"/>
      <point x="110" y="-52"/>
      <point x="110" y="153" type="curve" smooth="yes"/>
      <point x="110" y="452"/>
      <point x="293" y="585"/>
      <point x="467" y="585" type="curve" smooth="yes"/>
      <point x="621" y="585"/>
      <point x="754" y="482"/>
      <point x="754" y="299" type="curve" smooth="yes"/>
      <point x="754" y="168"/>
      <point x="707" y="47"/>
      <point x="606" y="47" type="curve" smooth="yes"/>
      <point x="562" y="47"/>
      <point x="551" y="63"/>
      <point x="551" y="91" type="curve" smooth="yes"/>
      <point x="551" y="98"/>
      <point x="553" y="108"/>
      <point x="554" y="117" type="curve" smooth="yes"/>
      <point x="604" y="433" type="line"/>
      <point x="538" y="415" type="line"/>
      <point x="490" y="110" type="line"/>
      <point x="494" y="105" type="line"/>
      <point x="477" y="-4" type="line"/>
      <point x="489" y="-9" type="line"/>
      <point x="610" y="6" type="line" smooth="yes"/>
      <point x="742" y="23"/>
      <point x="818" y="158"/>
      <point x="818" y="294" type="curve" smooth="yes"/>
      <point x="818" y="507"/>
      <point x="646" y="623"/>
      <point x="466" y="623" type="curve" smooth="yes"/>
    </contour>
    <contour>
      <point x="331" y="431"/>
      <point x="247" y="299"/>
      <point x="247" y="132" type="curve" smooth="yes"/>
      <point x="247" y="35"/>
      <point x="288" y="-9"/>
      <point x="355" y="-9" type="curve" smooth="yes"/>
      <point x="408" y="-9"/>
      <point x="462" y="15"/>
      <point x="505" y="134" type="curve"/>
      <point x="505" y="134"/>
      <point x="509" y="194"/>
      <point x="509" y="194" type="curve"/>
      <point x="475" y="97"/>
      <point x="425" y="43"/>
      <point x="383" y="43" type="curve" smooth="yes"/>
      <point x="339" y="43"/>
      <point x="312" y="73"/>
      <point x="312" y="143" type="curve" smooth="yes"/>
      <point x="312" y="235"/>
      <point x="339" y="397"/>
      <point x="454" y="397" type="curve" smooth="yes"/>
      <point x="507" y="397"/>
      <point x="538" y="380"/>
      <point x="553" y="355" type="curve"/>
      <point x="599" y="406" type="line"/>
      <point x="554" y="423"/>
      <point x="514" y="431"/>
      <point x="477" y="431" type="curve" smooth="yes"/>
    </contour>
  </outline>
</glyph>
<glyph name="A" format="1">
  <advance width="589"/>
  <unicode hex="0041"/>
  <outline>
    <contour>
      <point x="263" y="628" type="line"/>
      <point x="91" y="73" type="line" smooth="yes"/>
      <point x="84" y="52"/>
      <point x="64" y="32"/>
      <point x="24" y="31" type="curve"/>
      <point x="24" y="-3" type="line"/>
      <point x="136" y="3"/>
      <point x="102" y="3"/>
      <point x="206" y="-3" type="curve"/>
      <point x="206" y="31" type="line"/>
      <point x="156" y="33"/>
      <point x="132" y="37"/>
      <point x="146" y="85" type="curve" smooth="yes"/>
      <point x="276" y="519" type="line"/>
      <point x="276" y="519"/>
      <point x="280" y="519"/>
      <point x="280" y="519" type="curve"/>
      <point x="419" y="86" type="line" smooth="yes"/>
      <point x="435" y="35"/>
      <point x="409" y="33"/>
      <point x="362" y="31" type="curve"/>
      <point x="362" y="-3" type="line"/>
      <point x="466" y="3"/>
      <point x="452" y="3"/>
      <point x="565" y="-3" type="curve"/>
      <point x="565" y="31" type="line"/>
      <point x="523" y="32"/>
      <point x="507" y="49"/>
      <point x="500" y="72" type="curve" smooth="yes"/>
      <point x="320" y="628" type="line"/>
    </contour>
    <contour>
      <point x="156" y="227" type="line"/>
      <point x="156" y="186" type="line"/>
      <point x="406" y="186" type="line"/>
      <point x="406" y="227" type="line"/>
    </contour>
    <contour>
      <point x="291" y="616" type="move" name="top"/>
    </contour>
  </outline>
</glyph>
<glyph name="B" format="1">
  <advance width="542"/>
  <unicode hex="0042"/>
  <outline>
    <contour>
      <point x="190" y="629"/>
      <point x="178" y="625"/>
      <point x="66" y="625" type="curve"/>
      <point x="66" y="591" type="line"/>
      <point x="124" y="589"/>
      <point x="134" y="575"/>
      <point x="134" y="513" type="curve" smooth="yes"/>
      <point x="134" y="111" type="line" smooth="yes"/>
      <point x="134" y="49"/>
      <point x="124" y="36"/>
      <point x="66" y="33" type="curve"/>
      <point x="66" y="0" type="line"/>
      <point x="165" y="0"/>
      <point x="215" y="-5"/>
      <point x="260" y="-5" type="curve" smooth="yes"/>
      <point x="422" y="-5"/>
      <point x="494" y="63"/>
      <point x="494" y="187" type="curve" smooth="yes"/>
      <point x="494" y="258"/>
      <point x="452" y="334"/>
      <point x="350" y="339" type="curve"/>
      <point x="331" y="348" type="line"/>
      <point x="183" y="348" type="line" smooth="yes"/>
      <point x="183" y="348"/>
      <point x="184" y="303"/>
      <point x="184" y="303" type="curve"/>
      <point x="283" y="303" type="line" smooth="yes"/>
      <point x="372" y="303"/>
      <point x="415" y="267"/>
      <point x="415" y="177" type="curve" smooth="yes"/>
      <point x="415" y="99"/>
      <point x="375" y="40"/>
      <point x="275" y="40" type="curve" smooth="yes"/>
      <point x="206" y="42" type="line"/>
      <point x="206" y="582" type="line"/>
      <point x="286" y="582" type="line" smooth="yes"/>
      <point x="355" y="582"/>
      <point x="387" y="533"/>
      <point x="387" y="477" type="curve" smooth="yes"/>
      <point x="387" y="430"/>
      <point x="365" y="372"/>
      <point x="323" y="344" type="curve"/>
      <point x="350" y="332" type="line"/>
      <point x="428" y="355"/>
      <point x="463" y="422"/>
      <point x="463" y="482" type="curve" smooth="yes"/>
      <point x="463" y="570"/>
      <point x="391" y="629"/>
      <point x="260" y="629" type="curve" smooth="yes"/>
    </contour>
  </outline>
</glyph>
<glyph name="C" format="1">
  <advance width="546"/>
  <unicode hex="0043"/>
  <outline>
    <contour>
      <point x="156" y="640"/>
      <point x="54" y="505"/>
      <point x="54" y="280" type="curve" smooth="yes"/>
      <point x="54" y="84"/>
      <point x="158" y="-12"/>
      <point x="284" y="-12" type="curve" smooth="yes"/>
      <point x="354" y="-12"/>
      <point x="430" y="17"/>
      <point x="499" y="75" type="curve"/>
      <point x="486" y="99" type="line"/>
      <point x="435" y="68"/>
      <point x="378" y="49"/>
      <point x="326" y="49" type="curve" smooth="yes"/>
      <point x="222" y="49"/>
      <point x="132" y="121"/>
      <point x="132" y="306" type="curve" smooth="yes"/>
      <point x="132" y="481"/>
      <point x="180" y="597"/>
      <point x="315" y="597" type="curve" smooth="yes"/>
      <point x="391" y="597"/>
      <point x="443" y="541"/>
      <point x="443" y="455" type="curve"/>
      <point x="478" y="455" type="line"/>
      <point x="478" y="511"/>
      <point x="479" y="565"/>
      <point x="485" y="619" type="curve"/>
      <point x="443" y="631"/>
      <point x="382" y="640"/>
      <point x="339" y="640" type="curve" smooth="yes"/>
    </contour>
    <contour>
      <point x="274" y="-30" type="move" name="bottom"/>
    </contour>
  </outline>
</glyph>
<glyph name="D" format="1">
  <advance width="631"/>
  <unicode hex="0044"/>
  <outline>
    <contour>
      <point x="210" y="629"/>
      <point x="167" y="625"/>
      <point x="66" y="625" type="curve"/>
      <point x="66" y="591" type="line"/>
      <point x="124" y="589"/>
      <point x="134" y="575"/>
      <point x="134" y="513" type="curve" smooth="yes"/>
      <point x="134" y="111" type="line" smooth="yes"/>
      <point x="134" y="49"/>
      <point x="124" y="36"/>
      <point x="66" y="33" type="curve"/>
      <point x="66" y="0" type="line"/>
      <point x="123" y="0"/>
      <point x="206" y="-5"/>
      <point x="259" y="-5" type="curve" smooth="yes"/>
      <point x="431" y="-5"/>
      <point x="578" y="108"/>
      <point x="578" y="347" type="curve" smooth="yes"/>
      <point x="578" y="529"/>
      <point x="487" y="629"/>
      <point x="300" y="629" type="curve" smooth="yes"/>
    </contour>
    <contour>
      <point x="446" y="582"/>
      <point x="499" y="477"/>
      <point x="499" y="336" type="curve" smooth="yes"/>
      <point x="499" y="163"/>
      <point x="454" y="42"/>
      <point x="283" y="42" type="curve" smooth="yes"/>
      <point x="206" y="42" type="line"/>
      <point x="206" y="582" type="line"/>
      <point x="279" y="582" type="line" smooth="yes"/>
    </contour>
  </outline>
</glyph>
<glyph name="E" format="1">
  <advance width="547"/>
  <unicode hex="0045"/>
  <outline>
    <contour>
      <point x="389" y="625"/>
      <point x="334" y="625"/>
      <point x="284" y="625" type="curve" smooth="yes"/>
      <point x="170" y="625" type="line" smooth="yes"/>
      <point x="144" y="625"/>
      <point x="119" y="625"/>
      <point x="66" y="627" type="curve"/>
      <point x="66" y="593" type="line"/>
      <point x="124" y="591"/>
      <point x="134" y="578"/>
      <point x="134" y="515" type="curve" smooth="yes"/>
      <point x="134" y="109" type="line" smooth="yes"/>
      <point x="134" y="47"/>
      <point x="124" y="33"/>
      <point x="66" y="31" type="curve"/>
      <point x="66" y="-3" type="line"/>
      <point x="119" y="0"/>
      <point x="144" y="0"/>
      <point x="170" y="0" type="curve" smooth="yes"/>
      <point x="283" y="0" type="line" smooth="yes"/>
      <point x="341" y="0"/>
      <point x="386" y="0"/>
      <point x="459" y="-5" type="curve"/>
      <point x="494" y="170" type="line"/>
      <point x="459" y="170" type="line"/>
      <point x="439" y="95"/>
      <point x="415" y="42"/>
      <point x="284" y="42" type="curve" smooth="yes"/>
      <point x="206" y="42" type="line"/>
      <point x="206" y="582" type="line"/>
      <point x="288" y="582" type="line" smooth="yes"/>
      <point x="384" y="582"/>
      <point x="409" y="551"/>
      <point x="431" y="455" type="curve"/>
      <point x="464" y="455" type="line"/>
      <point x="452" y="629" type="line"/>
    </contour>
    <contour>
      <point x="330" y="399" type="line"/>
      <point x="328" y="341"/>
      <point x="299" y="329"/>
      <point x="246" y="329" type="curve" smooth="yes"/>
      <point x="168" y="329" type="line"/>
      <point x="168" y="287" type="line"/>
      <point x="246" y="287" type="line" smooth="yes"/>
      <point x="299" y="287"/>
      <point x="328" y="275"/>
      <point x="330" y="216" type="curve"/>
      <point x="363" y="216" type="line"/>
      <point x="358" y="322"/>
      <point x="358" y="295"/>
      <point x="363" y="399" type="curve"/>
    </contour>
    <contour>
      <point x="287" y="616" type="move" name="top"/>
    </contour>
  </outline>
</glyph>
<glyph name="F" format="1">
  <advance width="501"/>
  <unicode hex="0046"/>
  <outline>
    <contour>
      <point x="384" y="625"/>
      <point x="329" y="625"/>
      <point x="280" y="625" type="curve" smooth="yes"/>
      <point x="170" y="625" type="line" smooth="yes"/>
      <point x="144" y="625"/>
      <point x="119" y="625"/>
      <point x="66" y="627" type="curve"/>
      <point x="66" y="593" type="line"/>
      <point x="124" y="591"/>
      <point x="134" y="578"/>
      <point x="134" y="515" type="curve" smooth="yes"/>
      <point x="134" y="109" type="line" smooth="yes"/>
      <point x="134" y="47"/>
      <point x="124" y="33"/>
      <point x="66" y="31" type="curve"/>
      <point x="66" y="-3" type="line"/>
      <point x="178" y="3"/>
      <point x="170" y="3"/>
      <point x="282" y="-3" type="curve"/>
      <point x="282" y="31" type="line"/>
      <point x="215" y="33"/>
      <point x="206" y="47"/>
      <point x="206" y="109" type="curve"/>
      <point x="206" y="582" type="line"/>
      <point x="283" y="582" type="line" smooth="yes"/>
      <point x="378" y="582"/>
      <point x="406" y="551"/>
      <point x="426" y="455" type="curve"/>
      <point x="459" y="455" type="line"/>
      <point x="447" y="629" type="line"/>
    </contour>
    <contour>
      <point x="326" y="399" type="line"/>
      <point x="323" y="341"/>
      <point x="294" y="329"/>
      <point x="240" y="329" type="curve" smooth="yes"/>
      <point x="164" y="329" type="line"/>
      <point x="164" y="287" type="line"/>
      <point x="240" y="287" type="line" smooth="yes"/>
      <point x="294" y="287"/>
      <point x="323" y="275"/>
      <point x="326" y="204" type="curve"/>
      <point x="359" y="204" type="line"/>
      <point x="353" y="322"/>
      <point x="353" y="295"/>
      <point x="359" y="399" type="curve"/>
    </contour>
  </outline>
</glyph>
<glyph name="G" format="1">
  <advance width="607"/>
  <unicode hex="0047"/>
  <outline>
    <contour>
      <point x="396" y="40"/>
      <point x="362" y="30"/>
      <point x="316" y="30" type="curve" smooth="yes"/>
      <point x="198" y="30"/>
      <point x="132" y="127"/>
      <point x="132" y="306" type="curve" smooth="yes"/>
      <point x="132" y="481"/>
      <point x="180" y="597"/>
      <point x="318" y="597" type="curve" smooth="yes"/>
      <point x="401" y="597"/>
      <point x="457" y="541"/>
      <point x="457" y="455" type="curve"/>
      <point x="495" y="455" type="line"/>
      <point x="495" y="511"/>
      <point x="497" y="565"/>
      <point x="501" y="619" type="curve"/>
      <point x="458" y="631"/>
      <point x="392" y="640"/>
      <point x="347" y="640" type="curve" smooth="yes"/>
      <point x="158" y="640"/>
      <point x="54" y="505"/>
      <point x="54" y="280" type="curve" smooth="yes"/>
      <point x="54" y="91"/>
      <point x="135" y="-15"/>
      <point x="308" y="-15" type="curve" smooth="yes"/>
      <point x="367" y="-15"/>
      <point x="445" y="-1"/>
      <point x="500" y="24" type="curve"/>
      <point x="500" y="172" type="line" smooth="yes"/>
      <point x="500" y="235"/>
      <point x="507" y="247"/>
      <point x="566" y="250" type="curve"/>
      <point x="566" y="283" type="line"/>
      <point x="462" y="278"/>
      <point x="466" y="278"/>
      <point x="360" y="283" type="curve"/>
      <point x="360" y="250" type="line"/>
      <point x="419" y="247"/>
      <point x="428" y="235"/>
      <point x="428" y="172" type="curve" smooth="yes"/>
      <point x="428" y="64" type="line"/>
    </contour>
  </outline>
</glyph>
<glyph name="H" format="1">
  <advance width="673"/>
  <unicode hex="0048"/>
  <outline>
    <contour>
      <point x="502" y="622"/>
      <point x="503" y="622"/>
      <point x="398" y="627" type="curve"/>
      <point x="398" y="593" type="line"/>
      <point x="457" y="591"/>
      <point x="466" y="578"/>
      <point x="466" y="515" type="curve"/>
      <point x="466" y="109" type="line"/>
      <point x="466" y="47"/>
      <point x="457" y="33"/>
      <point x="398" y="31" type="curve"/>
      <point x="398" y="-3" type="line"/>
      <point x="503" y="3"/>
      <point x="502" y="3"/>
      <point x="606" y="-3" type="curve"/>
      <point x="606" y="31" type="line"/>
      <point x="547" y="33"/>
      <point x="538" y="47"/>
      <point x="538" y="109" type="curve"/>
      <point x="538" y="515" type="line"/>
      <point x="538" y="578"/>
      <point x="547" y="591"/>
      <point x="606" y="593" type="curve"/>
      <point x="606" y="627" type="line"/>
    </contour>
    <contour>
      <point x="170" y="622"/>
      <point x="171" y="622"/>
      <point x="66" y="627" type="curve"/>
      <point x="66" y="593" type="line"/>
      <point x="124" y="591"/>
      <point x="134" y="578"/>
      <point x="134" y="515" type="curve" smooth="yes"/>
      <point x="134" y="109" type="line"/>
      <point x="134" y="47"/>
      <point x="124" y="33"/>
      <point x="66" y="31" type="curve"/>
      <point x="66" y="-3" type="line"/>
      <point x="171" y="3"/>
      <point x="170" y="3"/>
      <point x="274" y="-3" type="curve"/>
      <point x="274" y="31" type="line"/>
      <point x="215" y="33"/>
      <point x="206" y="47"/>
      <point x="206" y="109" type="curve"/>
      <point x="206" y="515" type="line" smooth="yes"/>
      <point x="206" y="578"/>
      <point x="215" y="591"/>
      <point x="274" y="593" type="curve"/>
      <point x="274" y="627" type="line"/>
    </contour>
    <contour>
      <point x="190" y="346" type="line"/>
      <point x="190" y="304" type="line"/>
      <point x="493" y="304" type="line"/>
      <point x="493" y="346" type="line"/>
    </contour>
  </outline>
</glyph>
<glyph name="I" format="1">
  <advance width="339"/>
  <unicode hex="0049"/>
  <outline>
    <contour>
      <point x="170" y="622"/>
      <point x="171" y="622"/>
      <point x="66" y="627" type="curve"/>
      <point x="66" y="593" type="line"/>
      <point x="124" y="591"/>
      <point x="134" y="578"/>
      <point x="134" y="515" type="curve"/>
      <point x="134" y="109" type="line"/>
      <point x="134" y="47"/>
      <point x="124" y="33"/>
      <point x="66" y="31" type="curve"/>
      <point x="66" y="-3" type="line"/>
      <point x="171" y="3"/>
      <point x="170" y="3"/>
      <point x="274" y="-3" type="curve"/>
      <point x="274" y="31" type="line"/>
      <point x="215" y="33"/>
      <point x="206" y="47"/>
      <point x="206" y="109" type="curve"/>
      <point x="206" y="515" type="line"/>
      <point x="206" y="578"/>
      <point x="215" y="591"/>
      <point x="274" y="593" type="curve"/>
      <point x="274" y="627" type="line"/>
    </contour>
    <contour>
      <point x="170" y="616" type="move" name="top"/>
    </contour>
  </outline>
</glyph>
<glyph name="J" format="1">
  <advance width="339"/>
  <unicode hex="004A"/>
  <outline>
    <contour>
      <point x="175" y="622"/>
      <point x="167" y="622"/>
      <point x="66" y="628" type="curve"/>
      <point x="66" y="594" type="line"/>
      <point x="124" y="592"/>
      <point x="134" y="579"/>
      <point x="134" y="517" type="curve" smooth="yes"/>
      <point x="134" y="109" type="line" smooth="yes"/>
      <point x="134" y="-60"/>
      <point x="117" y="-90"/>
      <point x="71" y="-164" type="curve"/>
      <point x="88" y="-178" type="line"/>
      <point x="155" y="-119"/>
      <point x="206" y="-47"/>
      <point x="206" y="97" type="curve" smooth="yes"/>
      <point x="206" y="517" type="line" smooth="yes"/>
      <point x="206" y="579"/>
      <point x="215" y="592"/>
      <point x="274" y="594" type="curve"/>
      <point x="274" y="628" type="line"/>
    </contour>
  </outline>
</glyph>
<glyph name="K" format="1">
  <advance width="627"/>
  <unicode hex="004B"/>
  <outline>
    <contour>
      <point x="170" y="622"/>
      <point x="171" y="622"/>
      <point x="66" y="627" type="curve"/>
      <point x="66" y="593" type="line"/>
      <point x="124" y="591"/>
      <point x="134" y="578"/>
      <point x="134" y="515" type="curve" smooth="yes"/>
      <point x="134" y="109" type="line" smooth="yes"/>
      <point x="134" y="47"/>
      <point x="124" y="33"/>
      <point x="66" y="31" type="curve"/>
      <point x="66" y="-3" type="line"/>
      <point x="171" y="3"/>
      <point x="170" y="3"/>
      <point x="274" y="-3" type="curve"/>
      <point x="274" y="31" type="line"/>
      <point x="215" y="33"/>
      <point x="206" y="47"/>
      <point x="206" y="109" type="curve" smooth="yes"/>
      <point x="206" y="515" type="line" smooth="yes"/>
      <point x="206" y="578"/>
      <point x="215" y="591"/>
      <point x="274" y="593" type="curve"/>
      <point x="274" y="627" type="line"/>
    </contour>
    <contour>
      <point x="455" y="622"/>
      <point x="466" y="622"/>
      <point x="360" y="627" type="curve"/>
      <point x="360" y="593" type="line"/>
      <point x="423" y="591"/>
      <point x="438" y="567"/>
      <point x="407" y="529" type="curve" smooth="yes"/>
      <point x="171" y="246" type="line"/>
      <point x="195" y="212" type="line"/>
      <point x="479" y="547" type="line" smooth="yes"/>
      <point x="500" y="571"/>
      <point x="523" y="593"/>
      <point x="559" y="593" type="curve"/>
      <point x="559" y="627" type="line"/>
    </contour>
    <contour>
      <point x="256" y="328" type="line"/>
      <point x="461" y="0" type="line"/>
      <point x="493" y="1"/>
      <point x="541" y="3"/>
      <point x="585" y="0" type="curve"/>
      <point x="585" y="33" type="line"/>
      <point x="541" y="35"/>
      <point x="517" y="45"/>
      <point x="498" y="76" type="curve" smooth="yes"/>
      <point x="305" y="382" type="line"/>
    </contour>
  </outline>
</glyph>
<glyph name="L" format="1">
  <advance width="518"/>
  <unicode hex="004C"/>
  <outline>
    <contour>
      <point x="170" y="622"/>
      <point x="178" y="622"/>
      <point x="66" y="627" type="curve"/>
      <point x="66" y="593" type="line"/>
      <point x="124" y="591"/>
      <point x="134" y="578"/>
      <point x="134" y="515" type="curve"/>
      <point x="134" y="109" type="line" smooth="yes"/>
      <point x="134" y="47"/>
      <point x="124" y="33"/>
      <point x="66" y="31" type="curve"/>
      <point x="66" y="-3" type="line"/>
      <point x="119" y="0"/>
      <point x="144" y="0"/>
      <point x="170" y="0" type="curve" smooth="yes"/>
      <point x="275" y="0" type="line" smooth="yes"/>
      <point x="332" y="0"/>
      <point x="378" y="0"/>
      <point x="451" y="-5" type="curve"/>
      <point x="488" y="180" type="line"/>
      <point x="454" y="180" type="line"/>
      <point x="434" y="81"/>
      <point x="391" y="42"/>
      <point x="278" y="42" type="curve" smooth="yes"/>
      <point x="206" y="42" type="line"/>
      <point x="206" y="515" type="line"/>
      <point x="206" y="578"/>
      <point x="215" y="591"/>
      <point x="282" y="593" type="curve"/>
      <point x="282" y="627" type="line"/>
    </contour>
  </outline>
</glyph>
<glyph name="M" format="1">
  <advance width="800"/>
  <unicode hex="004D"/>
  <outline>
    <contour>
      <point x="685" y="622"/>
      <point x="650" y="623"/>
      <point x="611" y="625" type="curve"/>
      <point x="399" y="115" type="line"/>
      <point x="196" y="625" type="line"/>
      <point x="153" y="623"/>
      <point x="115" y="623"/>
      <point x="67" y="625" type="curve"/>
      <point x="67" y="591" type="line"/>
      <point x="97" y="591"/>
      <point x="134" y="575"/>
      <point x="131" y="517" type="curve" smooth="yes"/>
      <point x="104" y="122" type="line" smooth="yes"/>
      <point x="100" y="60"/>
      <point x="87" y="33"/>
      <point x="36" y="31" type="curve"/>
      <point x="36" y="-3" type="line"/>
      <point x="141" y="3"/>
      <point x="116" y="3"/>
      <point x="220" y="-3" type="curve"/>
      <point x="220" y="31" type="line"/>
      <point x="168" y="33"/>
      <point x="148" y="60"/>
      <point x="152" y="122" type="curve" smooth="yes"/>
      <point x="176" y="499" type="line"/>
      <point x="370" y="-7" type="line"/>
      <point x="370" y="-8"/>
      <point x="402" y="-7"/>
      <point x="402" y="-7" type="curve"/>
      <point x="598" y="479" type="line"/>
      <point x="625" y="109" type="line" smooth="yes"/>
      <point x="629" y="47"/>
      <point x="615" y="33"/>
      <point x="557" y="31" type="curve"/>
      <point x="557" y="-3" type="line"/>
      <point x="661" y="3"/>
      <point x="661" y="3"/>
      <point x="765" y="-3" type="curve"/>
      <point x="765" y="31" type="line"/>
      <point x="706" y="33"/>
      <point x="701" y="47"/>
      <point x="696" y="109" type="curve" smooth="yes"/>
      <point x="666" y="523" type="line" smooth="yes"/>
      <point x="662" y="573"/>
      <point x="700" y="590"/>
      <point x="730" y="590" type="curve"/>
      <point x="730" y="625" type="line"/>
    </contour>
  </outline>
</glyph>
<glyph name="N" format="1">
  <advance width="662"/>
  <unicode hex="004E"/>
  <outline>
    <contour>
      <point x="491" y="622"/>
      <point x="517" y="622"/>
      <point x="413" y="627" type="curve"/>
      <point x="413" y="593" type="line"/>
      <point x="464" y="591"/>
      <point x="481" y="565"/>
      <point x="481" y="502" type="curve" smooth="yes"/>
      <point x="481" y="148" type="line"/>
      <point x="172" y="625" type="line"/>
      <point x="138" y="623"/>
      <point x="105" y="623"/>
      <point x="71" y="625" type="curve"/>
      <point x="71" y="591" type="line"/>
      <point x="107" y="591"/>
      <point x="134" y="569"/>
      <point x="134" y="526" type="curve" smooth="yes"/>
      <point x="134" y="122" type="line" smooth="yes"/>
      <point x="134" y="60"/>
      <point x="117" y="33"/>
      <point x="66" y="31" type="curve"/>
      <point x="66" y="-3" type="line"/>
      <point x="171" y="3"/>
      <point x="146" y="3"/>
      <point x="250" y="-3" type="curve"/>
      <point x="250" y="31" type="line"/>
      <point x="199" y="33"/>
      <point x="182" y="60"/>
      <point x="182" y="122" type="curve" smooth="yes"/>
      <point x="182" y="471" type="line"/>
      <point x="488" y="0" type="line"/>
      <point x="488" y="0"/>
      <point x="529" y="0"/>
      <point x="529" y="0" type="curve"/>
      <point x="529" y="502" type="line" smooth="yes"/>
      <point x="529" y="565"/>
      <point x="546" y="591"/>
      <point x="597" y="593" type="curve"/>
      <point x="597" y="627" type="line"/>
    </contour>
    <contour>
      <point x="328" y="616" type="move" name="top"/>
    </contour>
  </outline>
</glyph>
<glyph name="O" format="1">
  <advance width="589"/>
  <unicode hex="004F"/>
  <outline>
    <contour>
      <point x="172" y="640"/>
      <point x="54" y="527"/>
      <point x="54" y="279" type="curve" smooth="yes"/>
      <point x="54" y="91"/>
      <point x="128" y="-12"/>
      <point x="278" y="-12" type="curve" smooth="yes"/>
      <point x="416" y="-12"/>
      <point x="535" y="104"/>
      <point x="535" y="350" type="curve" smooth="yes"/>
      <point x="535" y="537"/>
      <point x="461" y="640"/>
      <point x="311" y="640" type="curve" smooth="yes"/>
    </contour>
    <contour>
      <point x="414" y="597"/>
      <point x="457" y="486"/>
      <point x="457" y="338" type="curve" smooth="yes"/>
      <point x="457" y="179"/>
      <point x="421" y="30"/>
      <point x="307" y="30" type="curve" smooth="yes"/>
      <point x="176" y="30"/>
      <point x="132" y="143"/>
      <point x="132" y="291" type="curve" smooth="yes"/>
      <point x="132" y="449"/>
      <point x="167" y="597"/>
      <point x="282" y="597" type="curve" smooth="yes"/>
    </contour>
    <contour>
      <point x="307" y="616" type="move" name="top"/>
    </contour>
  </outline>
</glyph>
<glyph name="P" format="1">
  <advance width="515"/>
  <unicode hex="0050"/>
  <outline>
    <contour>
      <point x="182" y="629"/>
      <point x="163" y="623"/>
      <point x="66" y="623" type="curve"/>
      <point x="66" y="594" type="line"/>
      <point x="124" y="592"/>
      <point x="134" y="579"/>
      <point x="134" y="517" type="curve" smooth="yes"/>
      <point x="134" y="109" type="line" smooth="yes"/>
      <point x="134" y="47"/>
      <point x="124" y="33"/>
      <point x="66" y="31" type="curve"/>
      <point x="66" y="-3" type="line"/>
      <point x="164" y="3"/>
      <point x="188" y="3"/>
      <point x="282" y="-3" type="curve"/>
      <point x="282" y="31" type="line"/>
      <point x="215" y="33"/>
      <point x="206" y="47"/>
      <point x="206" y="109" type="curve" smooth="yes"/>
      <point x="206" y="581" type="line"/>
      <point x="260" y="581" type="line" smooth="yes"/>
      <point x="366" y="581"/>
      <point x="407" y="523"/>
      <point x="407" y="447" type="curve" smooth="yes"/>
      <point x="407" y="375"/>
      <point x="354" y="306"/>
      <point x="270" y="306" type="curve" smooth="yes"/>
      <point x="239" y="306"/>
      <point x="214" y="308"/>
      <point x="180" y="315" type="curve"/>
      <point x="153" y="272" type="line"/>
      <point x="184" y="268"/>
      <point x="218" y="266"/>
      <point x="248" y="266" type="curve" smooth="yes"/>
      <point x="406" y="266"/>
      <point x="486" y="338"/>
      <point x="486" y="457" type="curve" smooth="yes"/>
      <point x="486" y="557"/>
      <point x="409" y="629"/>
      <point x="252" y="629" type="curve" smooth="yes"/>
    </contour>
  </outline>
</glyph>
<glyph name="Q" format="1">
  <advance width="589"/>
  <unicode hex="0051"/>
  <outline>
    <contour>
      <point x="280" y="-8" type="line"/>
      <point x="473" y="-120" type="line" smooth="yes"/>
      <point x="500" y="-135"/>
      <point x="526" y="-144"/>
      <point x="555" y="-144" type="curve" smooth="yes"/>
      <point x="582" y="-144"/>
      <point x="610" y="-136"/>
      <point x="642" y="-120" type="curve"/>
      <point x="642" y="-87" type="line"/>
      <point x="592" y="-87"/>
      <point x="566" y="-80"/>
      <point x="530" y="-63" type="curve" smooth="yes"/>
      <point x="454" y="-28" type="line" smooth="yes"/>
      <point x="410" y="-6"/>
      <point x="377" y="-1"/>
      <point x="323" y="-1" type="curve"/>
    </contour>
    <component base="O"/>
  </outline>
</glyph>
<glyph name="R" format="1">
  <advance width="565"/>
  <unicode hex="0052"/>
  <outline>
    <contour>
      <point x="183" y="629"/>
      <point x="163" y="623"/>
      <point x="66" y="623" type="curve"/>
      <point x="66" y="594" type="line"/>
      <point x="124" y="592"/>
      <point x="134" y="579"/>
      <point x="134" y="517" type="curve" smooth="yes"/>
      <point x="134" y="109" type="line" smooth="yes"/>
      <point x="134" y="47"/>
      <point x="124" y="33"/>
      <point x="66" y="31" type="curve"/>
      <point x="66" y="-3" type="line"/>
      <point x="163" y="3"/>
      <point x="178" y="3"/>
      <point x="282" y="-3" type="curve"/>
      <point x="282" y="31" type="line"/>
      <point x="215" y="33"/>
      <point x="206" y="47"/>
      <point x="206" y="109" type="curve" smooth="yes"/>
      <point x="206" y="581" type="line"/>
      <point x="260" y="581" type="line" smooth="yes"/>
      <point x="362" y="581"/>
      <point x="399" y="527"/>
      <point x="399" y="459" type="curve" smooth="yes"/>
      <point x="399" y="394"/>
      <point x="350" y="331"/>
      <point x="270" y="331" type="curve" smooth="yes"/>
      <point x="239" y="331"/>
      <point x="214" y="334"/>
      <point x="180" y="339" type="curve"/>
      <point x="153" y="298" type="line"/>
      <point x="184" y="293"/>
      <point x="216" y="290"/>
      <point x="247" y="290" type="curve" smooth="yes"/>
      <point x="399" y="290"/>
      <point x="476" y="356"/>
      <point x="476" y="467" type="curve" smooth="yes"/>
      <point x="476" y="561"/>
      <point x="403" y="629"/>
      <point x="251" y="629" type="curve" smooth="yes"/>
    </contour>
    <contour>
      <point x="258" y="308" type="line"/>
      <point x="415" y="0" type="line"/>
      <point x="442" y="0"/>
      <point x="481" y="1"/>
      <point x="546" y="-3" type="curve"/>
      <point x="546" y="31" type="line"/>
      <point x="488" y="33"/>
      <point x="469" y="63"/>
      <point x="457" y="86" type="curve" smooth="yes"/>
      <point x="331" y="323" type="line"/>
    </contour>
  </outline>
</glyph>
<glyph name="S" format="1">
  <advance width="471"/>
  <unicode hex="0053"/>
  <outline>
    <contour>
      <point x="153" y="638"/>
      <point x="60" y="597"/>
      <point x="60" y="470" type="curve" smooth="yes"/>
      <point x="60" y="368"/>
      <point x="159" y="319"/>
      <point x="223" y="290" type="curve" smooth="yes"/>
      <point x="291" y="259"/>
      <point x="351" y="230"/>
      <point x="351" y="144" type="curve" smooth="yes"/>
      <point x="351" y="71"/>
      <point x="288" y="31"/>
      <point x="230" y="31" type="curve" smooth="yes"/>
      <point x="146" y="31"/>
      <point x="105" y="85"/>
      <point x="85" y="177" type="curve"/>
      <point x="48" y="177" type="line"/>
      <point x="54" y="126"/>
      <point x="56" y="73"/>
      <point x="56" y="20" type="curve"/>
      <point x="110" y="-1"/>
      <point x="167" y="-12"/>
      <point x="224" y="-12" type="curve" smooth="yes"/>
      <point x="334" y="-12"/>
      <point x="423" y="52"/>
      <point x="423" y="167" type="curve" smooth="yes"/>
      <point x="423" y="268"/>
      <point x="331" y="317"/>
      <point x="264" y="350" type="curve" smooth="yes"/>
      <point x="207" y="377"/>
      <point x="127" y="416"/>
      <point x="127" y="494" type="curve" smooth="yes"/>
      <point x="127" y="558"/>
      <point x="183" y="595"/>
      <point x="242" y="595" type="curve" smooth="yes"/>
      <point x="314" y="595"/>
      <point x="362" y="547"/>
      <point x="362" y="466" type="curve"/>
      <point x="398" y="466" type="line"/>
      <point x="398" y="522"/>
      <point x="398" y="557"/>
      <point x="403" y="611" type="curve"/>
      <point x="365" y="629"/>
      <point x="307" y="638"/>
      <point x="250" y="638" type="curve" smooth="yes"/>
    </contour>
    <contour>
      <point x="248" y="616" type="move" name="top"/>
    </contour>
  </outline>
</glyph>
<glyph name="T" format="1">
  <advance width="555"/>
  <unicode hex="0054"/>
  <outline>
    <contour>
      <point x="242" y="586" type="line"/>
      <point x="242" y="109" type="line" smooth="yes"/>
      <point x="242" y="47"/>
      <point x="232" y="33"/>
      <point x="167" y="31" type="curve"/>
      <point x="167" y="-3" type="line"/>
      <point x="278" y="3"/>
      <point x="276" y="3"/>
      <point x="389" y="-3" type="curve"/>
      <point x="389" y="31" type="line"/>
      <point x="323" y="33"/>
      <point x="314" y="47"/>
      <point x="314" y="109" type="curve" smooth="yes"/>
      <point x="314" y="586" type="line"/>
    </contour>
    <contour>
      <point x="438" y="626"/>
      <point x="383" y="625"/>
      <point x="334" y="625" type="curve" smooth="yes"/>
      <point x="222" y="625" type="line"/>
      <point x="172" y="625"/>
      <point x="117" y="626"/>
      <point x="54" y="629" type="curve"/>
      <point x="43" y="455" type="line"/>
      <point x="76" y="455" type="line"/>
      <point x="99" y="546"/>
      <point x="112" y="586"/>
      <point x="223" y="586" type="curve"/>
      <point x="242" y="586" type="line"/>
      <point x="314" y="586" type="line"/>
      <point x="332" y="586" type="line" smooth="yes"/>
      <point x="443" y="586"/>
      <point x="455" y="546"/>
      <point x="478" y="455" type="curve"/>
      <point x="512" y="455" type="line"/>
      <point x="501" y="629" type="line"/>
    </contour>
  </outline>
</glyph>
<glyph name="U" format="1">
  <advance width="619"/>
  <unicode hex="0055"/>
  <outline>
    <contour>
      <point x="467" y="622"/>
      <point x="493" y="622"/>
      <point x="387" y="627" type="curve"/>
      <point x="387" y="593" type="line"/>
      <point x="446" y="591"/>
      <point x="455" y="578"/>
      <point x="455" y="515" type="curve" smooth="yes"/>
      <point x="455" y="187" type="line" smooth="yes"/>
      <point x="455" y="92"/>
      <point x="407" y="39"/>
      <point x="328" y="39" type="curve" smooth="yes"/>
      <point x="238" y="39"/>
      <point x="188" y="88"/>
      <point x="188" y="201" type="curve" smooth="yes"/>
      <point x="188" y="515" type="line" smooth="yes"/>
      <point x="188" y="578"/>
      <point x="198" y="591"/>
      <point x="256" y="593" type="curve"/>
      <point x="256" y="627" type="line"/>
      <point x="152" y="622"/>
      <point x="153" y="622"/>
      <point x="48" y="627" type="curve"/>
      <point x="48" y="593" type="line"/>
      <point x="107" y="591"/>
      <point x="116" y="578"/>
      <point x="116" y="515" type="curve" smooth="yes"/>
      <point x="116" y="216" type="line" smooth="yes"/>
      <point x="116" y="91"/>
      <point x="152" y="-12"/>
      <point x="315" y="-12" type="curve" smooth="yes"/>
      <point x="451" y="-12"/>
      <point x="503" y="78"/>
      <point x="503" y="200" type="curve" smooth="yes"/>
      <point x="503" y="515" type="line" smooth="yes"/>
      <point x="503" y="578"/>
      <point x="513" y="591"/>
      <point x="571" y="593" type="curve"/>
      <point x="571" y="627" type="line"/>
    </contour>
    <contour>
      <point x="320" y="616" type="move" name="top"/>
    </contour>
  </outline>
</glyph>
<glyph name="V" format="1">
  <advance width="583"/>
  <unicode hex="0056"/>
  <outline>
    <contour>
      <point x="449" y="621"/>
      <point x="483" y="621"/>
      <point x="379" y="627" type="curve"/>
      <point x="379" y="593" type="line"/>
      <point x="428" y="591"/>
      <point x="458" y="581"/>
      <point x="443" y="533" type="curve" smooth="yes"/>
      <point x="308" y="111" type="line"/>
      <point x="308" y="111"/>
      <point x="305" y="111"/>
      <point x="305" y="111" type="curve"/>
      <point x="162" y="541" type="line" smooth="yes"/>
      <point x="144" y="592"/>
      <point x="178" y="591"/>
      <point x="226" y="593" type="curve"/>
      <point x="226" y="627" type="line"/>
      <point x="114" y="621"/>
      <point x="127" y="621"/>
      <point x="30" y="627" type="curve"/>
      <point x="30" y="593" type="line"/>
      <point x="63" y="592"/>
      <point x="71" y="586"/>
      <point x="75" y="570" type="curve" smooth="yes"/>
      <point x="264" y="0" type="line"/>
      <point x="264" y="0"/>
      <point x="320" y="0"/>
      <point x="322" y="0" type="curve"/>
      <point x="503" y="561" type="line" smooth="yes"/>
      <point x="509" y="577"/>
      <point x="521" y="592"/>
      <point x="554" y="593" type="curve"/>
      <point x="554" y="627" type="line"/>
    </contour>
  </outline>
</glyph>
<glyph name="W" format="1">
  <advance width="840"/>
  <unicode hex="0057"/>
  <outline>
    <contour>
      <point x="698" y="621"/>
      <point x="733" y="621"/>
      <point x="629" y="627" type="curve"/>
      <point x="629" y="593" type="line"/>
      <point x="678" y="591"/>
      <point x="703" y="581"/>
      <point x="693" y="533" type="curve" smooth="yes"/>
      <point x="599" y="111" type="line"/>
      <point x="599" y="111"/>
      <point x="595" y="111"/>
      <point x="595" y="111" type="curve"/>
      <point x="452" y="622" type="line"/>
      <point x="452" y="622"/>
      <point x="410" y="622"/>
      <point x="410" y="622" type="curve"/>
      <point x="276" y="111" type="line"/>
      <point x="276" y="111"/>
      <point x="272" y="111"/>
      <point x="272" y="111" type="curve"/>
      <point x="167" y="541" type="line"/>
      <point x="151" y="592"/>
      <point x="184" y="591"/>
      <point x="232" y="593" type="curve"/>
      <point x="232" y="627" type="line"/>
      <point x="128" y="622"/>
      <point x="141" y="622"/>
      <point x="36" y="627" type="curve"/>
      <point x="36" y="593" type="line"/>
      <point x="69" y="592"/>
      <point x="76" y="586"/>
      <point x="81" y="570" type="curve"/>
      <point x="232" y="0" type="line"/>
      <point x="232" y="0"/>
      <point x="288" y="0"/>
      <point x="290" y="0" type="curve"/>
      <point x="420" y="470" type="line"/>
      <point x="555" y="0" type="line"/>
      <point x="557" y="0"/>
      <point x="613" y="0"/>
      <point x="613" y="0" type="curve"/>
      <point x="753" y="561" type="line" smooth="yes"/>
      <point x="758" y="579"/>
      <point x="770" y="592"/>
      <point x="804" y="593" type="curve"/>
      <point x="804" y="627" type="line"/>
    </contour>
  </outline>
</glyph>
<glyph name="X" format="1">
  <advance width="567"/>
  <unicode hex="0058"/>
  <outline>
    <contour>
      <point x="262" y="282" type="line"/>
      <point x="380" y="84" type="line" smooth="yes"/>
      <point x="408" y="37"/>
      <point x="389" y="33"/>
      <point x="341" y="31" type="curve"/>
      <point x="341" y="-3" type="line"/>
      <point x="421" y="3"/>
      <point x="455" y="3"/>
      <point x="542" y="-3" type="curve"/>
      <point x="542" y="31" type="line"/>
      <point x="503" y="32"/>
      <point x="483" y="52"/>
      <point x="473" y="71" type="curve" smooth="yes"/>
      <point x="307" y="348" type="line"/>
    </contour>
    <contour>
      <point x="98" y="76" type="line" smooth="yes"/>
      <point x="86" y="59"/>
      <point x="60" y="31"/>
      <point x="25" y="31" type="curve"/>
      <point x="25" y="-3" type="line"/>
      <point x="96" y="3"/>
      <point x="117" y="3"/>
      <point x="192" y="-3" type="curve"/>
      <point x="192" y="31" type="line"/>
      <point x="147" y="35"/>
      <point x="132" y="48"/>
      <point x="159" y="92" type="curve" smooth="yes"/>
      <point x="299" y="311" type="line"/>
      <point x="270" y="344" type="line"/>
    </contour>
    <contour>
      <point x="153" y="622"/>
      <point x="119" y="622"/>
      <point x="32" y="627" type="curve"/>
      <point x="32" y="593" type="line"/>
      <point x="71" y="592"/>
      <point x="75" y="583"/>
      <point x="83" y="570" type="curve" smooth="yes"/>
      <point x="255" y="282" type="line"/>
      <point x="300" y="348" type="line"/>
      <point x="186" y="541" type="line" smooth="yes"/>
      <point x="158" y="587"/>
      <point x="186" y="591"/>
      <point x="234" y="593" type="curve"/>
      <point x="234" y="627" type="line"/>
    </contour>
    <contour>
      <point x="454" y="622"/>
      <point x="420" y="622"/>
      <point x="360" y="627" type="curve"/>
      <point x="360" y="593" type="line"/>
      <point x="404" y="591"/>
      <point x="433" y="578"/>
      <point x="403" y="534" type="curve" smooth="yes"/>
      <point x="270" y="329" type="line"/>
      <point x="299" y="295" type="line"/>
      <point x="473" y="563" type="line" smooth="yes"/>
      <point x="485" y="581"/>
      <point x="499" y="593"/>
      <point x="527" y="593" type="curve"/>
      <point x="527" y="627" type="line"/>
    </contour>
  </outline>
</glyph>
<glyph name="Y" format="1">
  <advance width="563"/>
  <unicode hex="0059"/>
  <outline>
    <contour>
      <point x="474" y="622"/>
      <point x="446" y="622"/>
      <point x="371" y="627" type="curve"/>
      <point x="371" y="593" type="line"/>
      <point x="415" y="591"/>
      <point x="451" y="581"/>
      <point x="426" y="537" type="curve" smooth="yes"/>
      <point x="303" y="324" type="line"/>
      <point x="299" y="324" type="line"/>
      <point x="170" y="541" type="line" smooth="yes"/>
      <point x="143" y="587"/>
      <point x="182" y="591"/>
      <point x="230" y="593" type="curve"/>
      <point x="230" y="627" type="line"/>
      <point x="126" y="622"/>
      <point x="123" y="622"/>
      <point x="18" y="627" type="curve"/>
      <point x="18" y="593" type="line"/>
      <point x="52" y="592"/>
      <point x="60" y="585"/>
      <point x="68" y="570" type="curve" smooth="yes"/>
      <point x="248" y="270" type="line"/>
      <point x="248" y="109" type="line" smooth="yes"/>
      <point x="248" y="47"/>
      <point x="239" y="33"/>
      <point x="180" y="31" type="curve"/>
      <point x="180" y="-3" type="line"/>
      <point x="274" y="3"/>
      <point x="296" y="3"/>
      <point x="389" y="-3" type="curve"/>
      <point x="389" y="31" type="line"/>
      <point x="330" y="33"/>
      <point x="320" y="47"/>
      <point x="320" y="109" type="curve" smooth="yes"/>
      <point x="320" y="269" type="line"/>
      <point x="495" y="566" type="line" smooth="yes"/>
      <point x="503" y="581"/>
      <point x="512" y="592"/>
      <point x="546" y="593" type="curve"/>
      <point x="546" y="627" type="line"/>
    </contour>
    <contour>
      <point x="306" y="616" type="move" name="top"/>
    </contour>
  </outline>
</glyph>
<glyph name="Z" format="1">
  <advance width="512"/>
  <unicode hex="005A"/>
  <outline>
    <contour>
      <point x="54" y="464" type="line"/>
      <point x="87" y="464" type="line"/>
      <point x="109" y="559"/>
      <point x="138" y="582"/>
      <point x="230" y="582" type="curve" smooth="yes"/>
      <point x="368" y="582" type="line"/>
      <point x="48" y="33" type="line"/>
      <point x="48" y="0" type="line"/>
      <point x="266" y="0" type="line" smooth="yes"/>
      <point x="323" y="0"/>
      <point x="368" y="0"/>
      <point x="442" y="-5" type="curve"/>
      <point x="476" y="170" type="line"/>
      <point x="442" y="170" type="line"/>
      <point x="421" y="95"/>
      <point x="397" y="45"/>
      <point x="267" y="42" type="curve" smooth="yes"/>
      <point x="135" y="42" type="line"/>
      <point x="451" y="582" type="line"/>
      <point x="451" y="625" type="line"/>
      <point x="234" y="625" type="line" smooth="yes"/>
      <point x="184" y="625"/>
      <point x="129" y="625"/>
      <point x="66" y="629" type="curve"/>
    </contour>
    <contour>
      <point x="260" y="616" type="move" name="top"/>
    </contour>
  </outline>
</glyph>
<glyph name="bracketleft" format="1">
  <advance width="242"/>
  <unicode hex="005B"/>
  <outline>
    <contour>
      <point x="60" y="625" type="line"/>
      <point x="60" y="-153" type="line"/>
      <point x="200" y="-153" type="line"/>
      <point x="200" y="-107" type="line"/>
      <point x="126" y="-107" type="line"/>
      <point x="126" y="578" type="line"/>
      <point x="200" y="578" type="line"/>
      <point x="200" y="625" type="line"/>
    </contour>
  </outline>
</glyph>
<glyph name="asciicircum" format="1">
  <advance width="458"/>
  <unicode hex="005E"/>
  <outline>
    <contour>
      <point x="198" y="658" type="line"/>
      <point x="30" y="328" type="line"/>
      <point x="102" y="328" type="line"/>
      <point x="230" y="583" type="line"/>
      <point x="356" y="328" type="line"/>
      <point x="428" y="328" type="line"/>
      <point x="260" y="658" type="line"/>
    </contour>
  </outline>
</glyph>
<glyph name="a" format="1">
  <advance width="427"/>
  <unicode hex="0061"/>
  <outline>
    <contour>
      <point x="159" y="459"/>
      <point x="121" y="449"/>
      <point x="83" y="431" type="curve"/>
      <point x="83" y="314" type="line"/>
      <point x="120" y="314" type="line"/>
      <point x="120" y="390"/>
      <point x="155" y="427"/>
      <point x="201" y="427" type="curve" smooth="yes"/>
      <point x="250" y="427"/>
      <point x="268" y="398"/>
      <point x="268" y="336" type="curve" smooth="yes"/>
      <point x="268" y="250" type="line"/>
      <point x="107" y="250"/>
      <point x="36" y="203"/>
      <point x="36" y="104" type="curve" smooth="yes"/>
      <point x="36" y="24"/>
      <point x="80" y="-12"/>
      <point x="153" y="-12" type="curve" smooth="yes"/>
      <point x="203" y="-12"/>
      <point x="266" y="36"/>
      <point x="284" y="111" type="curve"/>
      <point x="270" y="141" type="line"/>
      <point x="251" y="78"/>
      <point x="214" y="42"/>
      <point x="165" y="42" type="curve" smooth="yes"/>
      <point x="127" y="42"/>
      <point x="104" y="64"/>
      <point x="104" y="112" type="curve" smooth="yes"/>
      <point x="104" y="177"/>
      <point x="138" y="218"/>
      <point x="268" y="218" type="curve"/>
      <point x="268" y="97" type="line"/>
      <point x="268" y="97"/>
      <point x="275" y="99"/>
      <point x="275" y="99" type="curve"/>
      <point x="275" y="-3" type="line"/>
      <point x="318" y="1"/>
      <point x="355" y="3"/>
      <point x="403" y="-1" type="curve"/>
      <point x="403" y="29" type="line"/>
      <point x="343" y="31"/>
      <point x="334" y="44"/>
      <point x="334" y="103" type="curve"/>
      <point x="334" y="331" type="line" smooth="yes"/>
      <point x="334" y="426"/>
      <point x="284" y="459"/>
      <point x="203" y="459" type="curve" smooth="yes"/>
    </contour>
    <contour>
      <point x="207" y="478" type="move" name="top"/>
    </contour>
  </outline>
</glyph>
<glyph name="b" format="1">
  <advance width="469"/>
  <unicode hex="0062"/>
  <outline>
    <contour>
      <point x="24" y="637" type="line"/>
      <point x="24" y="605" type="line"/>
      <point x="83" y="605"/>
      <point x="93" y="594"/>
      <point x="93" y="546" type="curve" smooth="yes"/>
      <point x="93" y="13" type="line"/>
      <point x="139" y="-4"/>
      <point x="198" y="-12"/>
      <point x="246" y="-12" type="curve" smooth="yes"/>
      <point x="356" y="-12"/>
      <point x="430" y="87"/>
      <point x="430" y="247" type="curve" smooth="yes"/>
      <point x="430" y="386"/>
      <point x="368" y="459"/>
      <point x="284" y="459" type="curve" smooth="yes"/>
      <point x="230" y="459"/>
      <point x="175" y="422"/>
      <point x="148" y="342" type="curve"/>
      <point x="156" y="304" type="line"/>
      <point x="177" y="370"/>
      <point x="216" y="404"/>
      <point x="263" y="404" type="curve" smooth="yes"/>
      <point x="329" y="404"/>
      <point x="359" y="341"/>
      <point x="359" y="227" type="curve" smooth="yes"/>
      <point x="359" y="105"/>
      <point x="332" y="20"/>
      <point x="251" y="20" type="curve" smooth="yes"/>
      <point x="207" y="20"/>
      <point x="159" y="42"/>
      <point x="159" y="85" type="curve" smooth="yes"/>
      <point x="159" y="652" type="line"/>
      <point x="144" y="658" type="line"/>
    </contour>
  </outline>
</glyph>
<glyph name="c" format="1">
  <advance width="382"/>
  <unicode hex="0063"/>
  <outline>
    <contour>
      <point x="112" y="459"/>
      <point x="40" y="360"/>
      <point x="40" y="200" type="curve" smooth="yes"/>
      <point x="40" y="63"/>
      <point x="95" y="-12"/>
      <point x="200" y="-12" type="curve" smooth="yes"/>
      <point x="242" y="-12"/>
      <point x="318" y="8"/>
      <point x="355" y="93" type="curve"/>
      <point x="355" y="93"/>
      <point x="339" y="104"/>
      <point x="339" y="104" type="curve"/>
      <point x="304" y="59"/>
      <point x="258" y="43"/>
      <point x="214" y="43" type="curve" smooth="yes"/>
      <point x="141" y="43"/>
      <point x="110" y="104"/>
      <point x="110" y="219" type="curve" smooth="yes"/>
      <point x="110" y="348"/>
      <point x="140" y="427"/>
      <point x="220" y="427" type="curve" smooth="yes"/>
      <point x="267" y="427"/>
      <point x="298" y="384"/>
      <point x="298" y="311" type="curve"/>
      <point x="338" y="311" type="line"/>
      <point x="338" y="445" type="line"/>
      <point x="302" y="454"/>
      <point x="270" y="459"/>
      <point x="240" y="459" type="curve" smooth="yes"/>
    </contour>
    <contour>
      <point x="183" y="-30" type="move" name="bottom"/>
    </contour>
  </outline>
</glyph>
<glyph name="d" format="1">
  <advance width="464"/>
  <unicode hex="0064"/>
  <outline>
    <contour>
      <point x="242" y="637" type="line"/>
      <point x="242" y="606" type="line"/>
      <point x="300" y="606"/>
      <point x="311" y="595"/>
      <point x="311" y="547" type="curve" smooth="yes"/>
      <point x="311" y="116" type="line"/>
      <point x="316" y="111" type="line"/>
      <point x="316" y="-6" type="line"/>
      <point x="330" y="-12" type="line"/>
      <point x="446" y="8" type="line"/>
      <point x="446" y="40" type="line"/>
      <point x="387" y="40"/>
      <point x="377" y="51"/>
      <point x="377" y="98" type="curve" smooth="yes"/>
      <point x="377" y="652" type="line"/>
      <point x="362" y="658" type="line"/>
    </contour>
    <contour>
      <point x="131" y="459"/>
      <point x="40" y="382"/>
      <point x="40" y="200" type="curve"/>
      <point x="40" y="61"/>
      <point x="100" y="-12"/>
      <point x="184" y="-12" type="curve" smooth="yes"/>
      <point x="239" y="-12"/>
      <point x="294" y="25"/>
      <point x="320" y="105" type="curve"/>
      <point x="312" y="144" type="line"/>
      <point x="292" y="78"/>
      <point x="252" y="43"/>
      <point x="206" y="43" type="curve" smooth="yes"/>
      <point x="140" y="43"/>
      <point x="110" y="107"/>
      <point x="110" y="220" type="curve"/>
      <point x="110" y="316"/>
      <point x="122" y="427"/>
      <point x="224" y="427" type="curve" smooth="yes"/>
      <point x="280" y="427"/>
      <point x="311" y="395"/>
      <point x="311" y="331" type="curve"/>
      <point x="327" y="437" type="line"/>
      <point x="302" y="450"/>
      <point x="267" y="459"/>
      <point x="230" y="459" type="curve" smooth="yes"/>
    </contour>
  </outline>
</glyph>
<glyph name="e" format="1">
  <advance width="398"/>
  <unicode hex="0065"/>
  <outline>
    <contour>
      <point x="131" y="459"/>
      <point x="40" y="378"/>
      <point x="40" y="201" type="curve" smooth="yes"/>
      <point x="40" y="63"/>
      <point x="102" y="-12"/>
      <point x="199" y="-12" type="curve" smooth="yes"/>
      <point x="267" y="-12"/>
      <point x="324" y="21"/>
      <point x="362" y="92" type="curve"/>
      <point x="362" y="92"/>
      <point x="344" y="103"/>
      <point x="344" y="103" type="curve"/>
      <point x="302" y="61"/>
      <point x="259" y="43"/>
      <point x="214" y="43" type="curve" smooth="yes"/>
      <point x="150" y="43"/>
      <point x="110" y="102"/>
      <point x="110" y="219" type="curve" smooth="yes"/>
      <point x="110" y="358"/>
      <point x="146" y="427"/>
      <point x="216" y="427" type="curve" smooth="yes"/>
      <point x="274" y="427"/>
      <point x="291" y="356"/>
      <point x="292" y="275" type="curve"/>
      <point x="97" y="275" type="line"/>
      <point x="90" y="239" type="line"/>
      <point x="362" y="239" type="line"/>
      <point x="362" y="341"/>
      <point x="359" y="459"/>
      <point x="228" y="459" type="curve" smooth="yes"/>
    </contour>
    <contour>
      <point x="228" y="478" type="move" name="top"/>
    </contour>
  </outline>
</glyph>
<glyph name="g" format="1">
  <advance width="439"/>
  <unicode hex="0067"/>
  <outline>
    <contour>
      <point x="111" y="167"/>
      <point x="71" y="127"/>
      <point x="71" y="84" type="curve" smooth="yes"/>
      <point x="71" y="32"/>
      <point x="109" y="-5"/>
      <point x="194" y="-5" type="curve" smooth="yes"/>
      <point x="263" y="-5" type="line" smooth="yes"/>
      <point x="326" y="-5"/>
      <point x="348" y="-24"/>
      <point x="348" y="-68" type="curve" smooth="yes"/>
      <point x="348" y="-129"/>
      <point x="293" y="-176"/>
      <point x="227" y="-176" type="curve" smooth="yes"/>
      <point x="126" y="-176"/>
      <point x="98" y="-123"/>
      <point x="98" y="-76" type="curve" smooth="yes"/>
      <point x="98" y="-27"/>
      <point x="115" y="4"/>
      <point x="144" y="20" type="curve"/>
      <point x="124" y="31" type="line"/>
      <point x="75" y="17"/>
      <point x="30" y="-30"/>
      <point x="30" y="-93" type="curve" smooth="yes"/>
      <point x="30" y="-162"/>
      <point x="102" y="-210"/>
      <point x="204" y="-210" type="curve" smooth="yes"/>
      <point x="339" y="-210"/>
      <point x="415" y="-126"/>
      <point x="415" y="-42" type="curve" smooth="yes"/>
      <point x="415" y="18"/>
      <point x="377" y="59"/>
      <point x="284" y="59" type="curve" smooth="yes"/>
      <point x="186" y="59" type="line" smooth="yes"/>
      <point x="139" y="59"/>
      <point x="119" y="75"/>
      <point x="119" y="100" type="curve" smooth="yes"/>
      <point x="119" y="120"/>
      <point x="136" y="144"/>
      <point x="163" y="151" type="curve"/>
      <point x="163" y="150"/>
      <point x="167" y="162"/>
      <point x="167" y="162" type="curve"/>
    </contour>
    <contour>
      <point x="266" y="423"/>
      <point x="288" y="374"/>
      <point x="288" y="308" type="curve" smooth="yes"/>
      <point x="288" y="238"/>
      <point x="270" y="175"/>
      <point x="211" y="175" type="curve" smooth="yes"/>
      <point x="143" y="175"/>
      <point x="120" y="222"/>
      <point x="120" y="287" type="curve" smooth="yes"/>
      <point x="120" y="358"/>
      <point x="138" y="423"/>
      <point x="198" y="423" type="curve" smooth="yes"/>
    </contour>
    <contour>
      <point x="123" y="459"/>
      <point x="47" y="404"/>
      <point x="47" y="283" type="curve" smooth="yes"/>
      <point x="47" y="192"/>
      <point x="96" y="143"/>
      <point x="191" y="143" type="curve" smooth="yes"/>
      <point x="282" y="143"/>
      <point x="359" y="199"/>
      <point x="359" y="318" type="curve" smooth="yes"/>
      <point x="359" y="356"/>
      <point x="346" y="389"/>
      <point x="323" y="411" type="curve"/>
      <point x="323" y="421" type="line"/>
      <point x="299" y="446"/>
      <point x="262" y="459"/>
      <point x="213" y="459" type="curve" smooth="yes"/>
    </contour>
    <contour>
      <point x="280" y="394" type="line"/>
      <point x="306" y="394" type="line"/>
      <point x="339" y="401"/>
      <point x="378" y="398"/>
      <point x="413" y="398" type="curve"/>
      <point x="413" y="433" type="line"/>
      <point x="358" y="433"/>
      <point x="307" y="443"/>
      <point x="255" y="455" type="curve"/>
    </contour>
  </outline>
</glyph>
<glyph name="h" format="1">
  <advance width="517"/>
  <unicode hex="0068"/>
  <outline>
    <contour>
      <point x="258" y="459"/>
      <point x="194" y="413"/>
      <point x="162" y="335" type="curve"/>
      <point x="171" y="300" type="line"/>
      <point x="194" y="363"/>
      <point x="240" y="401"/>
      <point x="294" y="401" type="curve" smooth="yes"/>
      <point x="334" y="401"/>
      <point x="358" y="383"/>
      <point x="358" y="319" type="curve" smooth="yes"/>
      <point x="358" y="102" type="line" smooth="yes"/>
      <point x="358" y="43"/>
      <point x="348" y="30"/>
      <point x="288" y="28" type="curve"/>
      <point x="288" y="-3" type="line"/>
      <point x="391" y="3"/>
      <point x="391" y="3"/>
      <point x="493" y="-3" type="curve"/>
      <point x="493" y="28" type="line"/>
      <point x="433" y="30"/>
      <point x="423" y="43"/>
      <point x="423" y="102" type="curve" smooth="yes"/>
      <point x="423" y="303" type="line" smooth="yes"/>
      <point x="423" y="431"/>
      <point x="389" y="459"/>
      <point x="314" y="459" type="curve" smooth="yes"/>
    </contour>
    <contour>
      <point x="36" y="637" type="line"/>
      <point x="36" y="605" type="line"/>
      <point x="95" y="605"/>
      <point x="105" y="594"/>
      <point x="105" y="546" type="curve" smooth="yes"/>
      <point x="105" y="102" type="line" smooth="yes"/>
      <point x="105" y="43"/>
      <point x="96" y="30"/>
      <point x="36" y="28" type="curve"/>
      <point x="36" y="-3" type="line"/>
      <point x="139" y="3"/>
      <point x="139" y="3"/>
      <point x="240" y="-3" type="curve"/>
      <point x="240" y="28" type="line"/>
      <point x="180" y="30"/>
      <point x="171" y="43"/>
      <point x="171" y="102" type="curve" smooth="yes"/>
      <point x="171" y="652" type="line"/>
      <point x="156" y="658" type="line"/>
    </contour>
  </outline>
</glyph>
<glyph name="j" format="1">
  <advance width="246"/>
  <unicode hex="006A"/>
  <outline>
    <contour>
      <point x="31" y="438" type="line"/>
      <point x="31" y="408" type="line"/>
      <point x="90" y="408"/>
      <point x="100" y="397"/>
      <point x="100" y="350" type="curve" smooth="yes"/>
      <point x="100" y="69" type="line" smooth="yes"/>
      <point x="100" y="-68"/>
      <point x="67" y="-128"/>
      <point x="-7" y="-190" type="curve"/>
      <point x="8" y="-210" type="line"/>
      <point x="107" y="-150"/>
      <point x="167" y="-81"/>
      <point x="167" y="63" type="curve" smooth="yes"/>
      <point x="167" y="454" type="line"/>
      <point x="152" y="459" type="line"/>
    </contour>
    <component base="dotaccent" xOffset="-8" yOffset="-24"/>
  </outline>
</glyph>
<glyph name="k" format="1">
  <advance width="478"/>
  <unicode hex="006B"/>
  <outline>
    <contour>
      <point x="36" y="637" type="line"/>
      <point x="36" y="606" type="line"/>
      <point x="95" y="606"/>
      <point x="105" y="595"/>
      <point x="105" y="547" type="curve" smooth="yes"/>
      <point x="105" y="102" type="line" smooth="yes"/>
      <point x="105" y="43"/>
      <point x="96" y="30"/>
      <point x="36" y="28" type="curve"/>
      <point x="36" y="-3" type="line"/>
      <point x="87" y="0"/>
      <point x="114" y="1"/>
      <point x="139" y="1" type="curve" smooth="yes"/>
      <point x="164" y="1"/>
      <point x="190" y="0"/>
      <point x="240" y="-3" type="curve"/>
      <point x="240" y="28" type="line"/>
      <point x="180" y="30"/>
      <point x="171" y="43"/>
      <point x="171" y="102" type="curve" smooth="yes"/>
      <point x="171" y="652" type="line"/>
      <point x="156" y="658" type="line"/>
    </contour>
    <contour>
      <point x="200" y="235" type="line"/>
      <point x="343" y="0" type="line"/>
      <point x="356" y="1"/>
      <point x="371" y="1"/>
      <point x="386" y="1" type="curve" smooth="yes"/>
      <point x="407" y="1"/>
      <point x="430" y="1"/>
      <point x="457" y="0" type="curve"/>
      <point x="457" y="30" type="line"/>
      <point x="421" y="31"/>
      <point x="396" y="43"/>
      <point x="380" y="68" type="curve"/>
      <point x="247" y="284" type="line"/>
    </contour>
    <contour>
      <point x="403" y="446"/>
      <point x="368" y="446"/>
      <point x="344" y="446" type="curve" smooth="yes"/>
      <point x="305" y="446"/>
      <point x="278" y="447"/>
      <point x="246" y="449" type="curve"/>
      <point x="246" y="419" type="line"/>
      <point x="282" y="416"/>
      <point x="299" y="408"/>
      <point x="299" y="394" type="curve" smooth="yes"/>
      <point x="299" y="385"/>
      <point x="293" y="374"/>
      <point x="282" y="362" type="curve" smooth="yes"/>
      <point x="219" y="291" type="line" smooth="yes"/>
      <point x="184" y="252"/>
      <point x="150" y="210"/>
      <point x="121" y="167" type="curve"/>
      <point x="143" y="151" type="line"/>
      <point x="330" y="360" type="line"/>
      <point x="362" y="398"/>
      <point x="382" y="416"/>
      <point x="428" y="419" type="curve"/>
      <point x="428" y="449" type="line"/>
    </contour>
  </outline>
</glyph>
<glyph name="l" format="1">
  <advance width="259"/>
  <unicode hex="006C"/>
  <outline>
    <contour>
      <point x="36" y="637" type="line"/>
      <point x="36" y="606" type="line"/>
      <point x="95" y="606"/>
      <point x="105" y="595"/>
      <point x="105" y="547" type="curve" smooth="yes"/>
      <point x="105" y="102" type="line" smooth="yes"/>
      <point x="105" y="43"/>
      <point x="96" y="30"/>
      <point x="36" y="28" type="curve"/>
      <point x="36" y="-3" type="line"/>
      <point x="139" y="3"/>
      <point x="139" y="3"/>
      <point x="240" y="-3" type="curve"/>
      <point x="240" y="28" type="line"/>
      <point x="180" y="30"/>
      <point x="171" y="43"/>
      <point x="171" y="102" type="curve"/>
      <point x="171" y="652" type="line"/>
      <point x="156" y="658" type="line"/>
    </contour>
  </outline>
</glyph>
<glyph name="m" format="1">
  <advance width="754"/>
  <unicode hex="006D"/>
  <outline>
    <contour>
      <point x="497" y="459"/>
      <point x="443" y="418"/>
      <point x="408" y="334" type="curve"/>
      <point x="416" y="299" type="line"/>
      <point x="438" y="362"/>
      <point x="481" y="401"/>
      <point x="533" y="401" type="curve" smooth="yes"/>
      <point x="571" y="401"/>
      <point x="595" y="383"/>
      <point x="595" y="319" type="curve" smooth="yes"/>
      <point x="595" y="102" type="line" smooth="yes"/>
      <point x="595" y="43"/>
      <point x="586" y="30"/>
      <point x="526" y="28" type="curve"/>
      <point x="526" y="-3" type="line"/>
      <point x="629" y="3"/>
      <point x="629" y="3"/>
      <point x="730" y="-3" type="curve"/>
      <point x="730" y="28" type="line"/>
      <point x="671" y="30"/>
      <point x="661" y="43"/>
      <point x="661" y="102" type="curve" smooth="yes"/>
      <point x="661" y="303" type="line" smooth="yes"/>
      <point x="661" y="431"/>
      <point x="627" y="459"/>
      <point x="551" y="459" type="curve" smooth="yes"/>
    </contour>
    <contour>
      <point x="36" y="439" type="line"/>
      <point x="36" y="408" type="line"/>
      <point x="95" y="408"/>
      <point x="105" y="397"/>
      <point x="105" y="350" type="curve" smooth="yes"/>
      <point x="105" y="102" type="line" smooth="yes"/>
      <point x="105" y="43"/>
      <point x="96" y="30"/>
      <point x="36" y="28" type="curve"/>
      <point x="36" y="-3" type="line"/>
      <point x="139" y="3"/>
      <point x="139" y="3"/>
      <point x="240" y="-3" type="curve"/>
      <point x="240" y="28" type="line"/>
      <point x="180" y="30"/>
      <point x="171" y="43"/>
      <point x="171" y="102" type="curve" smooth="yes"/>
      <point x="171" y="331" type="line"/>
      <point x="167" y="336" type="line"/>
      <point x="167" y="454" type="line"/>
      <point x="152" y="459" type="line"/>
    </contour>
    <contour>
      <point x="251" y="459"/>
      <point x="199" y="418"/>
      <point x="163" y="334" type="curve"/>
      <point x="163" y="334"/>
      <point x="171" y="299"/>
      <point x="171" y="299" type="curve"/>
      <point x="192" y="362"/>
      <point x="236" y="401"/>
      <point x="287" y="401" type="curve" smooth="yes"/>
      <point x="327" y="401"/>
      <point x="351" y="383"/>
      <point x="351" y="319" type="curve" smooth="yes"/>
      <point x="351" y="102" type="line" smooth="yes"/>
      <point x="351" y="43"/>
      <point x="341" y="30"/>
      <point x="282" y="28" type="curve"/>
      <point x="282" y="-3" type="line"/>
      <point x="384" y="3"/>
      <point x="384" y="3"/>
      <point x="486" y="-3" type="curve"/>
      <point x="486" y="28" type="line"/>
      <point x="426" y="30"/>
      <point x="416" y="43"/>
      <point x="416" y="102" type="curve" smooth="yes"/>
      <point x="416" y="303" type="line" smooth="yes"/>
      <point x="416" y="431"/>
      <point x="382" y="459"/>
      <point x="306" y="459" type="curve" smooth="yes"/>
    </contour>
  </outline>
</glyph>
<glyph name="n" format="1">
  <advance width="517"/>
  <unicode hex="006E"/>
  <outline>
    <contour>
      <point x="258" y="459"/>
      <point x="200" y="419"/>
      <point x="162" y="335" type="curve"/>
      <point x="163" y="334"/>
      <point x="171" y="299"/>
      <point x="171" y="299" type="curve"/>
      <point x="194" y="362"/>
      <point x="240" y="401"/>
      <point x="294" y="401" type="curve"/>
      <point x="334" y="401"/>
      <point x="358" y="383"/>
      <point x="358" y="319" type="curve"/>
      <point x="358" y="102" type="line"/>
      <point x="358" y="43"/>
      <point x="348" y="30"/>
      <point x="288" y="28" type="curve"/>
      <point x="288" y="-3" type="line"/>
      <point x="391" y="3"/>
      <point x="391" y="3"/>
      <point x="493" y="-3" type="curve"/>
      <point x="493" y="28" type="line"/>
      <point x="433" y="30"/>
      <point x="423" y="43"/>
      <point x="423" y="102" type="curve"/>
      <point x="423" y="303" type="line"/>
      <point x="423" y="431"/>
      <point x="389" y="459"/>
      <point x="314" y="459" type="curve"/>
    </contour>
    <contour>
      <point x="36" y="439" type="line"/>
      <point x="36" y="408" type="line"/>
      <point x="95" y="408"/>
      <point x="105" y="397"/>
      <point x="105" y="350" type="curve" smooth="yes"/>
      <point x="105" y="102" type="line" smooth="yes"/>
      <point x="105" y="43"/>
      <point x="96" y="30"/>
      <point x="36" y="28" type="curve"/>
      <point x="36" y="-3" type="line"/>
      <point x="139" y="3"/>
      <point x="139" y="3"/>
      <point x="240" y="-3" type="curve"/>
      <point x="240" y="28" type="line"/>
      <point x="180" y="30"/>
      <point x="171" y="43"/>
      <point x="171" y="102" type="curve"/>
      <point x="171" y="331" type="line"/>
      <point x="167" y="336" type="line"/>
      <point x="167" y="454" type="line"/>
      <point x="152" y="459" type="line"/>
    </contour>
    <contour>
      <point x="258" y="478" type="move" name="top"/>
    </contour>
  </outline>
</glyph>
<glyph name="o" format="1">
  <advance width="430"/>
  <unicode hex="006F"/>
  <outline>
    <contour>
      <point x="109" y="459"/>
      <point x="40" y="365"/>
      <point x="40" y="200" type="curve" smooth="yes"/>
      <point x="40" y="59"/>
      <point x="91" y="-12"/>
      <point x="200" y="-12" type="curve" smooth="yes"/>
      <point x="323" y="-12"/>
      <point x="390" y="83"/>
      <point x="390" y="247" type="curve" smooth="yes"/>
      <point x="390" y="389"/>
      <point x="341" y="459"/>
      <point x="240" y="459" type="curve" smooth="yes"/>
    </contour>
    <contour>
      <point x="290" y="427"/>
      <point x="319" y="362"/>
      <point x="319" y="240" type="curve" smooth="yes"/>
      <point x="319" y="104"/>
      <point x="293" y="20"/>
      <point x="213" y="20" type="curve" smooth="yes"/>
      <point x="140" y="20"/>
      <point x="110" y="85"/>
      <point x="110" y="207" type="curve" smooth="yes"/>
      <point x="110" y="343"/>
      <point x="136" y="427"/>
      <point x="216" y="427" type="curve" smooth="yes"/>
    </contour>
    <contour>
      <point x="228" y="478" type="move" name="top"/>
    </contour>
  </outline>
</glyph>
<glyph name="p" format="1">
  <advance width="481"/>
  <unicode hex="0070"/>
  <outline>
    <contour>
      <point x="238" y="459"/>
      <point x="183" y="415"/>
      <point x="160" y="342" type="curve"/>
      <point x="168" y="304" type="line"/>
      <point x="189" y="370"/>
      <point x="228" y="404"/>
      <point x="275" y="404" type="curve" smooth="yes"/>
      <point x="334" y="404"/>
      <point x="371" y="354"/>
      <point x="371" y="227" type="curve" smooth="yes"/>
      <point x="371" y="135"/>
      <point x="355" y="20"/>
      <point x="267" y="20" type="curve" smooth="yes"/>
      <point x="211" y="20"/>
      <point x="171" y="52"/>
      <point x="171" y="115" type="curve"/>
      <point x="164" y="11" type="line"/>
      <point x="189" y="-3"/>
      <point x="224" y="-12"/>
      <point x="260" y="-12" type="curve" smooth="yes"/>
      <point x="363" y="-12"/>
      <point x="442" y="83"/>
      <point x="442" y="247" type="curve" smooth="yes"/>
      <point x="442" y="391"/>
      <point x="378" y="459"/>
      <point x="293" y="459" type="curve" smooth="yes"/>
    </contour>
    <contour>
      <point x="36" y="439" type="line"/>
      <point x="36" y="408" type="line"/>
      <point x="95" y="408"/>
      <point x="105" y="397"/>
      <point x="105" y="350" type="curve" smooth="yes"/>
      <point x="105" y="-95" type="line" smooth="yes"/>
      <point x="105" y="-153"/>
      <point x="96" y="-167"/>
      <point x="36" y="-168" type="curve"/>
      <point x="36" y="-199" type="line"/>
      <point x="139" y="-194"/>
      <point x="139" y="-194"/>
      <point x="251" y="-199" type="curve"/>
      <point x="251" y="-168" type="line"/>
      <point x="180" y="-167"/>
      <point x="171" y="-153"/>
      <point x="171" y="-95" type="curve" smooth="yes"/>
      <point x="171" y="331" type="line"/>
      <point x="167" y="336" type="line"/>
      <point x="167" y="454" type="line"/>
      <point x="152" y="459" type="line"/>
    </contour>
  </outline>
</glyph>
<glyph name="q" format="1">
  <advance width="443"/>
  <unicode hex="0071"/>
  <outline>
    <contour>
      <point x="350" y="470" type="line"/>
      <point x="346" y="451"/>
      <point x="339" y="423"/>
      <point x="330" y="423" type="curve" smooth="yes"/>
      <point x="318" y="423"/>
      <point x="290" y="459"/>
      <point x="226" y="459" type="curve" smooth="yes"/>
      <point x="129" y="459"/>
      <point x="40" y="378"/>
      <point x="40" y="200" type="curve" smooth="yes"/>
      <point x="40" y="72"/>
      <point x="91" y="-12"/>
      <point x="187" y="-12" type="curve" smooth="yes"/>
      <point x="255" y="-12"/>
      <point x="306" y="51"/>
      <point x="320" y="107" type="curve"/>
      <point x="320" y="107"/>
      <point x="312" y="147"/>
      <point x="312" y="147" type="curve"/>
      <point x="298" y="84"/>
      <point x="252" y="43"/>
      <point x="208" y="43" type="curve" smooth="yes"/>
      <point x="139" y="43"/>
      <point x="110" y="107"/>
      <point x="110" y="220" type="curve" smooth="yes"/>
      <point x="110" y="329"/>
      <point x="131" y="427"/>
      <point x="222" y="427" type="curve" smooth="yes"/>
      <point x="278" y="427"/>
      <point x="311" y="396"/>
      <point x="311" y="339" type="curve" smooth="yes"/>
      <point x="311" y="-95" type="line" smooth="yes"/>
      <point x="311" y="-153"/>
      <point x="302" y="-167"/>
      <point x="231" y="-168" type="curve"/>
      <point x="231" y="-199" type="line"/>
      <point x="343" y="-194"/>
      <point x="343" y="-194"/>
      <point x="446" y="-199" type="curve"/>
      <point x="446" y="-168" type="line"/>
      <point x="386" y="-167"/>
      <point x="377" y="-153"/>
      <point x="377" y="-95" type="curve" smooth="yes"/>
      <point x="377" y="470" type="line"/>
    </contour>
  </outline>
</glyph>
<glyph name="r" format="1">
  <advance width="355"/>
  <unicode hex="0072"/>
  <outline>
    <contour>
      <point x="36" y="439" type="line"/>
      <point x="36" y="408" type="line"/>
      <point x="95" y="408"/>
      <point x="105" y="397"/>
      <point x="105" y="350" type="curve"/>
      <point x="105" y="102" type="line"/>
      <point x="105" y="43"/>
      <point x="96" y="30"/>
      <point x="36" y="28" type="curve"/>
      <point x="36" y="-3" type="line"/>
      <point x="139" y="3"/>
      <point x="139" y="3"/>
      <point x="251" y="-3" type="curve"/>
      <point x="251" y="28" type="line"/>
      <point x="180" y="30"/>
      <point x="171" y="43"/>
      <point x="171" y="102" type="curve"/>
      <point x="171" y="319" type="line"/>
      <point x="167" y="315" type="line"/>
      <point x="167" y="454" type="line"/>
      <point x="152" y="459" type="line"/>
    </contour>
    <contour>
      <point x="224" y="459"/>
      <point x="187" y="385"/>
      <point x="159" y="317" type="curve"/>
      <point x="158" y="316"/>
      <point x="171" y="282"/>
      <point x="171" y="282" type="curve"/>
      <point x="194" y="362"/>
      <point x="232" y="379"/>
      <point x="263" y="379" type="curve" smooth="yes"/>
      <point x="279" y="379"/>
      <point x="292" y="372"/>
      <point x="294" y="362" type="curve"/>
      <point x="323" y="362" type="line"/>
      <point x="324" y="362"/>
      <point x="331" y="452"/>
      <point x="331" y="452" type="curve"/>
      <point x="318" y="458"/>
      <point x="305" y="459"/>
      <point x="293" y="459" type="curve" smooth="yes"/>
    </contour>
  </outline>
</glyph>
<glyph name="s" format="1">
  <advance width="347"/>
  <unicode hex="0073"/>
  <outline>
    <contour>
      <point x="124" y="459"/>
      <point x="45" y="428"/>
      <point x="45" y="338" type="curve" smooth="yes"/>
      <point x="45" y="259"/>
      <point x="108" y="224"/>
      <point x="155" y="202" type="curve" smooth="yes"/>
      <point x="210" y="177"/>
      <point x="248" y="159"/>
      <point x="248" y="102" type="curve" smooth="yes"/>
      <point x="248" y="55"/>
      <point x="215" y="19"/>
      <point x="172" y="19" type="curve" smooth="yes"/>
      <point x="114" y="19"/>
      <point x="81" y="67"/>
      <point x="64" y="140" type="curve"/>
      <point x="64" y="140"/>
      <point x="30" y="140"/>
      <point x="30" y="140" type="curve"/>
      <point x="35" y="99"/>
      <point x="37" y="57"/>
      <point x="37" y="16" type="curve"/>
      <point x="76" y="-3"/>
      <point x="114" y="-12"/>
      <point x="155" y="-12" type="curve" smooth="yes"/>
      <point x="236" y="-12"/>
      <point x="311" y="25"/>
      <point x="311" y="123" type="curve" smooth="yes"/>
      <point x="311" y="196"/>
      <point x="262" y="231"/>
      <point x="204" y="256" type="curve" smooth="yes"/>
      <point x="162" y="275"/>
      <point x="107" y="302"/>
      <point x="107" y="353" type="curve" smooth="yes"/>
      <point x="107" y="398"/>
      <point x="139" y="428"/>
      <point x="180" y="428" type="curve" smooth="yes"/>
      <point x="227" y="428"/>
      <point x="258" y="382"/>
      <point x="258" y="326" type="curve"/>
      <point x="292" y="326" type="line"/>
      <point x="292" y="362"/>
      <point x="293" y="399"/>
      <point x="299" y="433" type="curve"/>
      <point x="268" y="449"/>
      <point x="236" y="459"/>
      <point x="195" y="459" type="curve" smooth="yes"/>
    </contour>
    <contour>
      <point x="183" y="478" type="move" name="top"/>
    </contour>
  </outline>
</glyph>
<glyph name="t" format="1">
  <advance width="322"/>
  <unicode hex="0074"/>
  <outline>
    <contour>
      <point x="128" y="574" type="line"/>
      <point x="97" y="447" type="line"/>
      <point x="28" y="431" type="line"/>
      <point x="100" y="435" type="line"/>
      <point x="100" y="107" type="line" smooth="yes"/>
      <point x="100" y="42"/>
      <point x="115" y="-12"/>
      <point x="182" y="-12" type="curve" smooth="yes"/>
      <point x="214" y="-12"/>
      <point x="251" y="-1"/>
      <point x="292" y="40" type="curve"/>
      <point x="282" y="60" type="line"/>
      <point x="258" y="47"/>
      <point x="242" y="40"/>
      <point x="214" y="40" type="curve" smooth="yes"/>
      <point x="174" y="40"/>
      <point x="167" y="81"/>
      <point x="167" y="123" type="curve" smooth="yes"/>
      <point x="167" y="574" type="line"/>
    </contour>
    <contour>
      <point x="136" y="447" type="line"/>
      <point x="28" y="431" type="line"/>
      <point x="28" y="408" type="line"/>
      <point x="274" y="408" type="line"/>
      <point x="274" y="447" type="line"/>
    </contour>
  </outline>
</glyph>
<glyph name="u" format="1">
  <advance width="485"/>
  <unicode hex="0075"/>
  <outline>
    <contour>
      <point x="15" y="438" type="line"/>
      <point x="15" y="408" type="line"/>
      <point x="73" y="408"/>
      <point x="84" y="397"/>
      <point x="84" y="350" type="curve" smooth="yes"/>
      <point x="84" y="144" type="line" smooth="yes"/>
      <point x="84" y="17"/>
      <point x="120" y="-12"/>
      <point x="195" y="-12" type="curve" smooth="yes"/>
      <point x="250" y="-12"/>
      <point x="305" y="31"/>
      <point x="341" y="112" type="curve"/>
      <point x="339" y="114"/>
      <point x="331" y="148"/>
      <point x="331" y="148" type="curve"/>
      <point x="308" y="85"/>
      <point x="264" y="47"/>
      <point x="213" y="47" type="curve" smooth="yes"/>
      <point x="174" y="47"/>
      <point x="150" y="64"/>
      <point x="150" y="128" type="curve" smooth="yes"/>
      <point x="150" y="454" type="line"/>
      <point x="135" y="459" type="line"/>
    </contour>
    <contour>
      <point x="262" y="438" type="line"/>
      <point x="262" y="408" type="line"/>
      <point x="320" y="408"/>
      <point x="331" y="397"/>
      <point x="331" y="350" type="curve" smooth="yes"/>
      <point x="331" y="116" type="line"/>
      <point x="336" y="111" type="line"/>
      <point x="336" y="-6" type="line"/>
      <point x="351" y="-12" type="line"/>
      <point x="466" y="8" type="line"/>
      <point x="466" y="40" type="line"/>
      <point x="408" y="40"/>
      <point x="397" y="51"/>
      <point x="397" y="98" type="curve" smooth="yes"/>
      <point x="397" y="454" type="line"/>
      <point x="383" y="459" type="line"/>
    </contour>
    <contour>
      <point x="234" y="478" type="move" name="top"/>
    </contour>
  </outline>
</glyph>
<glyph name="v" format="1">
  <advance width="454"/>
  <unicode hex="0076"/>
  <outline>
    <contour>
      <point x="355" y="445"/>
      <point x="362" y="445"/>
      <point x="272" y="450" type="curve"/>
      <point x="272" y="420" type="line"/>
      <point x="339" y="416"/>
      <point x="350" y="399"/>
      <point x="332" y="350" type="curve" smooth="yes"/>
      <point x="239" y="71" type="line"/>
      <point x="238" y="71" type="line"/>
      <point x="152" y="351" type="line" smooth="yes"/>
      <point x="139" y="394"/>
      <point x="151" y="416"/>
      <point x="214" y="420" type="curve"/>
      <point x="214" y="450" type="line"/>
      <point x="123" y="445"/>
      <point x="100" y="445"/>
      <point x="12" y="450" type="curve"/>
      <point x="12" y="420" type="line"/>
      <point x="48" y="419"/>
      <point x="64" y="408"/>
      <point x="73" y="380" type="curve" smooth="yes"/>
      <point x="191" y="0" type="line"/>
      <point x="254" y="0" type="line"/>
      <point x="379" y="374" type="line" smooth="yes"/>
      <point x="390" y="406"/>
      <point x="396" y="418"/>
      <point x="443" y="420" type="curve"/>
      <point x="443" y="450" type="line"/>
    </contour>
  </outline>
</glyph>
<glyph name="w" format="1">
  <advance width="637"/>
  <unicode hex="0077"/>
  <outline>
    <contour>
      <point x="571" y="446"/>
      <point x="545" y="446"/>
      <point x="467" y="450" type="curve"/>
      <point x="467" y="420" type="line"/>
      <point x="531" y="416"/>
      <point x="539" y="395"/>
      <point x="530" y="351" type="curve" smooth="yes"/>
      <point x="470" y="75" type="line"/>
      <point x="469" y="75" type="line"/>
      <point x="351" y="445" type="line"/>
      <point x="320" y="445" type="line"/>
      <point x="201" y="71" type="line"/>
      <point x="200" y="71" type="line"/>
      <point x="144" y="351" type="line" smooth="yes"/>
      <point x="135" y="395"/>
      <point x="143" y="416"/>
      <point x="206" y="420" type="curve"/>
      <point x="206" y="450" type="line"/>
      <point x="111" y="445"/>
      <point x="88" y="445"/>
      <point x="6" y="450" type="curve"/>
      <point x="6" y="420" type="line"/>
      <point x="42" y="419"/>
      <point x="61" y="408"/>
      <point x="67" y="380" type="curve" smooth="yes"/>
      <point x="151" y="0" type="line"/>
      <point x="215" y="0" type="line"/>
      <point x="316" y="312" type="line"/>
      <point x="419" y="0" type="line"/>
      <point x="483" y="0" type="line"/>
      <point x="569" y="380" type="line" smooth="yes"/>
      <point x="575" y="408"/>
      <point x="594" y="419"/>
      <point x="630" y="420" type="curve"/>
      <point x="630" y="450" type="line"/>
    </contour>
  </outline>
</glyph>
<glyph name="x" format="1">
  <advance width="420"/>
  <unicode hex="0078"/>
  <outline>
    <contour>
      <point x="132" y="445"/>
      <point x="85" y="445"/>
      <point x="19" y="450" type="curve"/>
      <point x="19" y="420" type="line"/>
      <point x="55" y="419"/>
      <point x="66" y="406"/>
      <point x="80" y="380" type="curve" smooth="yes"/>
      <point x="177" y="212" type="line"/>
      <point x="190" y="196" type="line"/>
      <point x="254" y="97" type="line" smooth="yes"/>
      <point x="279" y="59"/>
      <point x="272" y="31"/>
      <point x="224" y="28" type="curve"/>
      <point x="224" y="-3" type="line"/>
      <point x="294" y="3"/>
      <point x="341" y="3"/>
      <point x="408" y="-3" type="curve"/>
      <point x="408" y="28" type="line"/>
      <point x="372" y="29"/>
      <point x="362" y="42"/>
      <point x="347" y="67" type="curve" smooth="yes"/>
      <point x="238" y="244" type="line"/>
      <point x="226" y="258" type="line"/>
      <point x="171" y="351" type="line" smooth="yes"/>
      <point x="150" y="387"/>
      <point x="148" y="416"/>
      <point x="201" y="420" type="curve"/>
      <point x="201" y="450" type="line"/>
    </contour>
    <contour>
      <point x="73" y="67" type="line" smooth="yes"/>
      <point x="57" y="43"/>
      <point x="42" y="29"/>
      <point x="12" y="28" type="curve"/>
      <point x="12" y="-3" type="line"/>
      <point x="79" y="3"/>
      <point x="96" y="3"/>
      <point x="167" y="-3" type="curve"/>
      <point x="167" y="28" type="line"/>
      <point x="117" y="31"/>
      <point x="114" y="60"/>
      <point x="136" y="97" type="curve" smooth="yes"/>
      <point x="204" y="206" type="line"/>
      <point x="182" y="234" type="line"/>
    </contour>
    <contour>
      <point x="330" y="445"/>
      <point x="315" y="445"/>
      <point x="246" y="450" type="curve"/>
      <point x="246" y="420" type="line"/>
      <point x="298" y="416"/>
      <point x="296" y="387"/>
      <point x="275" y="351" type="curve" smooth="yes"/>
      <point x="214" y="247" type="line"/>
      <point x="236" y="218" type="line"/>
      <point x="335" y="380" type="line"/>
      <point x="350" y="406"/>
      <point x="360" y="419"/>
      <point x="396" y="420" type="curve"/>
      <point x="396" y="450" type="line"/>
    </contour>
  </outline>
</glyph>
<glyph name="y" format="1">
  <advance width="457"/>
  <unicode hex="0079"/>
  <outline>
    <contour>
      <point x="378" y="445"/>
      <point x="355" y="445"/>
      <point x="275" y="450" type="curve"/>
      <point x="275" y="420" type="line"/>
      <point x="341" y="416"/>
      <point x="353" y="399"/>
      <point x="335" y="350" type="curve" smooth="yes"/>
      <point x="236" y="71" type="line"/>
      <point x="252" y="71" type="line"/>
      <point x="153" y="351" type="line" smooth="yes"/>
      <point x="139" y="392"/>
      <point x="152" y="416"/>
      <point x="215" y="420" type="curve"/>
      <point x="215" y="450" type="line"/>
      <point x="127" y="445"/>
      <point x="100" y="445"/>
      <point x="12" y="450" type="curve"/>
      <point x="12" y="420" type="line"/>
      <point x="48" y="419"/>
      <point x="63" y="408"/>
      <point x="73" y="380" type="curve" smooth="yes"/>
      <point x="210" y="1" type="line"/>
      <point x="177" y="-92" type="line" smooth="yes"/>
      <point x="155" y="-155"/>
      <point x="124" y="-167"/>
      <point x="98" y="-167" type="curve" smooth="yes"/>
      <point x="75" y="-167"/>
      <point x="57" y="-148"/>
      <point x="57" y="-114" type="curve"/>
      <point x="25" y="-114" type="line"/>
      <point x="16" y="-226" type="line"/>
      <point x="33" y="-231"/>
      <point x="49" y="-235"/>
      <point x="64" y="-235" type="curve" smooth="yes"/>
      <point x="141" y="-235"/>
      <point x="187" y="-172"/>
      <point x="212" y="-103" type="curve" smooth="yes"/>
      <point x="382" y="374" type="line" smooth="yes"/>
      <point x="395" y="411"/>
      <point x="398" y="418"/>
      <point x="445" y="420" type="curve"/>
      <point x="445" y="450" type="line"/>
    </contour>
    <contour>
      <point x="244" y="478" type="move" name="top"/>
    </contour>
  </outline>
</glyph>
<glyph name="z" format="1">
  <advance width="380"/>
  <unicode hex="007A"/>
  <outline>
    <contour>
      <point x="51" y="420"/>
      <point x="48" y="374"/>
      <point x="37" y="311" type="curve"/>
      <point x="67" y="307" type="line"/>
      <point x="79" y="371"/>
      <point x="99" y="414"/>
      <point x="191" y="414" type="curve" smooth="yes"/>
      <point x="255" y="414" type="line"/>
      <point x="36" y="30" type="line"/>
      <point x="36" y="0" type="line"/>
      <point x="223" y="0" type="line" smooth="yes"/>
      <point x="256" y="0"/>
      <point x="293" y="-1"/>
      <point x="319" y="-5" type="curve"/>
      <point x="327" y="33"/>
      <point x="338" y="90"/>
      <point x="353" y="143" type="curve"/>
      <point x="324" y="148" type="line"/>
      <point x="306" y="85"/>
      <point x="279" y="36"/>
      <point x="190" y="36" type="curve" smooth="yes"/>
      <point x="112" y="36" type="line"/>
      <point x="331" y="413" type="line"/>
      <point x="331" y="413"/>
      <point x="331" y="447"/>
      <point x="331" y="447" type="curve" smooth="yes"/>
      <point x="170" y="447" type="line" smooth="yes"/>
      <point x="128" y="447"/>
      <point x="90" y="449"/>
      <point x="52" y="454" type="curve"/>
    </contour>
    <contour>
      <point x="198" y="478" type="move" name="top"/>
    </contour>
  </outline>
</glyph>
<glyph name="braceleft" format="1">
  <advance width="283"/>
  <unicode hex="007B"/>
  <outline>
    <contour>
      <point x="155" y="633"/>
      <point x="103" y="597"/>
      <point x="103" y="493" type="curve" smooth="yes"/>
      <point x="103" y="354" type="line" smooth="yes"/>
      <point x="103" y="282"/>
      <point x="81" y="251"/>
      <point x="24" y="251" type="curve" smooth="yes"/>
      <point x="24" y="251"/>
      <point x="24" y="222"/>
      <point x="24" y="222" type="curve"/>
      <point x="81" y="222"/>
      <point x="103" y="191"/>
      <point x="103" y="119" type="curve" smooth="yes"/>
      <point x="103" y="-20" type="line" smooth="yes"/>
      <point x="103" y="-124"/>
      <point x="155" y="-160"/>
      <point x="242" y="-162" type="curve"/>
      <point x="242" y="-132" type="line"/>
      <point x="177" y="-126"/>
      <point x="179" y="-105"/>
      <point x="176" y="-15" type="curve" smooth="yes"/>
      <point x="172" y="73" type="line"/>
      <point x="168" y="141"/>
      <point x="172" y="199"/>
      <point x="107" y="234" type="curve"/>
      <point x="107" y="239" type="line"/>
      <point x="172" y="274"/>
      <point x="170" y="331"/>
      <point x="172" y="399" type="curve" smooth="yes"/>
      <point x="176" y="487" type="line" smooth="yes"/>
      <point x="179" y="578"/>
      <point x="177" y="598"/>
      <point x="242" y="605" type="curve"/>
      <point x="242" y="634" type="line"/>
    </contour>
  </outline>
</glyph>
<glyph name="bar" format="1">
  <advance width="305"/>
  <unicode hex="007C"/>
  <outline>
    <contour>
      <point x="132" y="646" type="line"/>
      <point x="132" y="-198" type="line"/>
      <point x="174" y="-198" type="line"/>
      <point x="174" y="646" type="line"/>
    </contour>
  </outline>
</glyph>
<glyph name="asciitilde" format="1">
  <advance width="431"/>
  <unicode hex="007E"/>
  <outline>
    <contour>
      <point x="102" y="378"/>
      <point x="69" y="356"/>
      <point x="44" y="317" type="curve"/>
      <point x="76" y="286" type="line"/>
      <point x="95" y="315"/>
      <point x="119" y="330"/>
      <point x="151" y="330" type="curve" smooth="yes"/>
      <point x="175" y="330"/>
      <point x="199" y="320"/>
      <point x="223" y="307" type="curve" smooth="yes"/>
      <point x="243" y="295"/>
      <point x="270" y="282"/>
      <point x="300" y="282" type="curve" smooth="yes"/>
      <point x="331" y="282"/>
      <point x="366" y="299"/>
      <point x="386" y="330" type="curve"/>
      <point x="354" y="362" type="line"/>
      <point x="341" y="341"/>
      <point x="318" y="329"/>
      <point x="299" y="329" type="curve" smooth="yes"/>
      <point x="279" y="329"/>
      <point x="259" y="339"/>
      <point x="240" y="351" type="curve"/>
      <point x="210" y="367"/>
      <point x="183" y="378"/>
      <point x="150" y="378" type="curve" smooth="yes"/>
    </contour>
  </outline>
</glyph>
<glyph name="cent" format="1">
  <advance width="387"/>
  <unicode hex="00A2"/>
  <outline>
    <contour>
      <point x="201" y="597" type="line"/>
      <point x="201" y="-32" type="line"/>
      <point x="239" y="-32" type="line"/>
      <point x="239" y="597" type="line"/>
    </contour>
    <component base="c" yOffset="60"/>
  </outline>
</glyph>
<glyph name="sterling" format="1">
  <advance width="438"/>
  <unicode hex="00A3"/>
  <outline>
    <contour>
      <point x="267" y="52"/>
      <point x="238" y="76"/>
      <point x="191" y="76" type="curve" smooth="yes"/>
      <point x="164" y="76"/>
      <point x="128" y="59"/>
      <point x="98" y="37" type="curve"/>
      <point x="98" y="32" type="line"/>
      <point x="132" y="49"/>
      <point x="213" y="139"/>
      <point x="213" y="214" type="curve" smooth="yes"/>
      <point x="213" y="315"/>
      <point x="144" y="433"/>
      <point x="144" y="512" type="curve" smooth="yes"/>
      <point x="144" y="559"/>
      <point x="167" y="595"/>
      <point x="232" y="595" type="curve" smooth="yes"/>
      <point x="288" y="595"/>
      <point x="322" y="538"/>
      <point x="322" y="454" type="curve"/>
      <point x="354" y="454" type="line"/>
      <point x="354" y="510"/>
      <point x="355" y="563"/>
      <point x="360" y="618" type="curve"/>
      <point x="319" y="630"/>
      <point x="275" y="638"/>
      <point x="234" y="638" type="curve" smooth="yes"/>
      <point x="132" y="638"/>
      <point x="76" y="566"/>
      <point x="76" y="485" type="curve" smooth="yes"/>
      <point x="76" y="404"/>
      <point x="140" y="318"/>
      <point x="140" y="207" type="curve" smooth="yes"/>
      <point x="140" y="102"/>
      <point x="96" y="54"/>
      <point x="42" y="33" type="curve"/>
      <point x="42" y="33"/>
      <point x="42" y="-3"/>
      <point x="42" y="-3" type="curve"/>
      <point x="81" y="13"/>
      <point x="117" y="13"/>
      <point x="143" y="13" type="curve" smooth="yes"/>
      <point x="206" y="13"/>
      <point x="246" y="-12"/>
      <point x="323" y="-12" type="curve" smooth="yes"/>
      <point x="356" y="-12"/>
      <point x="395" y="18"/>
      <point x="420" y="83" type="curve"/>
      <point x="401" y="96" type="line"/>
      <point x="374" y="60"/>
      <point x="350" y="52"/>
      <point x="324" y="52" type="curve" smooth="yes"/>
    </contour>
    <contour>
      <point x="326" y="275" type="line"/>
      <point x="326" y="315" type="line"/>
      <point x="42" y="315" type="line"/>
      <point x="42" y="275" type="line"/>
    </contour>
  </outline>
</glyph>
<glyph name="currency" format="1">
  <advance width="431"/>
  <unicode hex="00A4"/>
  <outline>
    <contour>
      <point x="258" y="452"/>
      <point x="164" y="452"/>
      <point x="105" y="395" type="curve" smooth="yes"/>
      <point x="48" y="338"/>
      <point x="48" y="244"/>
      <point x="105" y="187" type="curve" smooth="yes"/>
      <point x="164" y="128"/>
      <point x="258" y="128"/>
      <point x="315" y="187" type="curve" smooth="yes"/>
      <point x="372" y="244"/>
      <point x="372" y="338"/>
      <point x="315" y="395" type="curve" smooth="yes"/>
    </contour>
    <contour>
      <point x="37" y="155" type="line"/>
      <point x="72" y="121" type="line"/>
      <point x="129" y="178" type="line"/>
      <point x="95" y="213" type="line"/>
    </contour>
    <contour>
      <point x="40" y="423" type="line"/>
      <point x="90" y="372" type="line"/>
      <point x="123" y="407" type="line"/>
      <point x="73" y="457" type="line"/>
    </contour>
    <contour>
      <point x="292" y="170" type="line"/>
      <point x="343" y="120" type="line"/>
      <point x="377" y="153" type="line"/>
      <point x="326" y="204" type="line"/>
    </contour>
    <contour>
      <point x="323" y="323"/>
      <point x="323" y="258"/>
      <point x="283" y="218" type="curve" smooth="yes"/>
      <point x="243" y="177"/>
      <point x="178" y="177"/>
      <point x="138" y="218" type="curve" smooth="yes"/>
      <point x="98" y="258"/>
      <point x="98" y="323"/>
      <point x="138" y="363" type="curve" smooth="yes"/>
      <point x="178" y="403"/>
      <point x="243" y="403"/>
      <point x="283" y="363" type="curve" smooth="yes"/>
    </contour>
    <contour>
      <point x="293" y="411" type="line"/>
      <point x="327" y="377" type="line"/>
      <point x="375" y="426" type="line"/>
      <point x="341" y="459" type="line"/>
    </contour>
  </outline>
</glyph>
<glyph name="yen" format="1">
  <advance width="481"/>
  <unicode hex="00A5"/>
  <outline>
    <contour>
      <point x="385" y="622"/>
      <point x="358" y="622"/>
      <point x="287" y="627" type="curve"/>
      <point x="287" y="593" type="line"/>
      <point x="336" y="591"/>
      <point x="363" y="590"/>
      <point x="346" y="543" type="curve" smooth="yes"/>
      <point x="254" y="306" type="line"/>
      <point x="246" y="306" type="line"/>
      <point x="167" y="541" type="line" smooth="yes"/>
      <point x="151" y="591"/>
      <point x="179" y="591"/>
      <point x="227" y="593" type="curve"/>
      <point x="227" y="627" type="line"/>
      <point x="144" y="622"/>
      <point x="114" y="622"/>
      <point x="30" y="627" type="curve"/>
      <point x="30" y="593" type="line"/>
      <point x="63" y="592"/>
      <point x="75" y="585"/>
      <point x="80" y="570" type="curve" smooth="yes"/>
      <point x="207" y="247" type="line"/>
      <point x="207" y="109" type="line" smooth="yes"/>
      <point x="207" y="47"/>
      <point x="198" y="33"/>
      <point x="139" y="31" type="curve"/>
      <point x="139" y="-3" type="line"/>
      <point x="234" y="3"/>
      <point x="251" y="3"/>
      <point x="346" y="-3" type="curve"/>
      <point x="346" y="31" type="line"/>
      <point x="287" y="33"/>
      <point x="278" y="47"/>
      <point x="278" y="109" type="curve" smooth="yes"/>
      <point x="278" y="247" type="line"/>
      <point x="404" y="570" type="line" smooth="yes"/>
      <point x="410" y="585"/>
      <point x="418" y="592"/>
      <point x="451" y="593" type="curve"/>
      <point x="451" y="627" type="line"/>
    </contour>
    <contour>
      <point x="90" y="183" type="line"/>
      <point x="90" y="144" type="line"/>
      <point x="395" y="144" type="line"/>
      <point x="395" y="183" type="line"/>
    </contour>
    <contour>
      <point x="90" y="279" type="line"/>
      <point x="90" y="239" type="line"/>
      <point x="395" y="239" type="line"/>
      <point x="395" y="279" type="line"/>
    </contour>
  </outline>
</glyph>
<glyph name="brokenbar" format="1">
  <advance width="322"/>
  <unicode hex="00A6"/>
  <outline>
    <contour>
      <point x="132" y="622" type="line"/>
      <point x="132" y="341" type="line"/>
      <point x="190" y="341" type="line"/>
      <point x="190" y="622" type="line"/>
    </contour>
    <contour>
      <point x="132" y="239" type="line"/>
      <point x="132" y="-42" type="line"/>
      <point x="190" y="-42" type="line"/>
      <point x="190" y="239" type="line"/>
    </contour>
  </outline>
</glyph>
<glyph name="section" format="1">
  <advance width="469"/>
  <unicode hex="00A7"/>
  <outline>
    <contour>
      <point x="170" y="628"/>
      <point x="59" y="551"/>
      <point x="59" y="386" type="curve" smooth="yes"/>
      <point x="59" y="263"/>
      <point x="122" y="190"/>
      <point x="184" y="140" type="curve" smooth="yes"/>
      <point x="254" y="83"/>
      <point x="324" y="57"/>
      <point x="324" y="-15" type="curve" smooth="yes"/>
      <point x="324" y="-78"/>
      <point x="284" y="-93"/>
      <point x="224" y="-93" type="curve" smooth="yes"/>
      <point x="144" y="-93"/>
      <point x="103" y="-52"/>
      <point x="83" y="56" type="curve"/>
      <point x="48" y="56" type="line"/>
      <point x="54" y="-7"/>
      <point x="56" y="-31"/>
      <point x="56" y="-97" type="curve"/>
      <point x="107" y="-123"/>
      <point x="164" y="-136"/>
      <point x="218" y="-136" type="curve" smooth="yes"/>
      <point x="342" y="-136"/>
      <point x="421" y="-51"/>
      <point x="421" y="110" type="curve" smooth="yes"/>
      <point x="421" y="242"/>
      <point x="355" y="298"/>
      <point x="290" y="346" type="curve" smooth="yes"/>
      <point x="224" y="394"/>
      <point x="158" y="426"/>
      <point x="158" y="500" type="curve" smooth="yes"/>
      <point x="158" y="553"/>
      <point x="204" y="585"/>
      <point x="252" y="585" type="curve" smooth="yes"/>
      <point x="324" y="585"/>
      <point x="355" y="545"/>
      <point x="355" y="463" type="curve"/>
      <point x="390" y="463" type="line"/>
      <point x="390" y="530"/>
      <point x="390" y="526"/>
      <point x="395" y="594" type="curve"/>
      <point x="358" y="616"/>
      <point x="322" y="628"/>
      <point x="267" y="628" type="curve" smooth="yes"/>
    </contour>
    <contour>
      <point x="121" y="394"/>
      <point x="190" y="351"/>
      <point x="258" y="304" type="curve" smooth="yes"/>
      <point x="342" y="242"/>
      <point x="374" y="187"/>
      <point x="374" y="103" type="curve" smooth="yes"/>
      <point x="374" y="80"/>
      <point x="372" y="55"/>
      <point x="367" y="27" type="curve"/>
      <point x="367" y="27"/>
      <point x="365" y="27"/>
      <point x="365" y="27" type="curve"/>
      <point x="360" y="91"/>
      <point x="282" y="135"/>
      <point x="215" y="184" type="curve" smooth="yes"/>
      <point x="147" y="238"/>
      <point x="110" y="319"/>
      <point x="110" y="397" type="curve" smooth="yes"/>
      <point x="110" y="419"/>
      <point x="112" y="440"/>
      <point x="119" y="461" type="curve"/>
      <point x="121" y="462" type="line"/>
    </contour>
  </outline>
</glyph>
<glyph name="dieresis" format="1">
  <advance width="251"/>
  <unicode hex="00A8"/>
  <outline>
    <contour>
      <point x="167" y="658"/>
      <point x="152" y="642"/>
      <point x="152" y="615" type="curve" smooth="yes"/>
      <point x="152" y="587"/>
      <point x="167" y="575"/>
      <point x="195" y="575" type="curve" smooth="yes"/>
      <point x="224" y="575"/>
      <point x="238" y="587"/>
      <point x="238" y="615" type="curve" smooth="yes"/>
      <point x="238" y="642"/>
      <point x="224" y="658"/>
      <point x="195" y="658" type="curve" smooth="yes"/>
    </contour>
    <contour>
      <point x="28" y="658"/>
      <point x="13" y="642"/>
      <point x="13" y="615" type="curve" smooth="yes"/>
      <point x="13" y="587"/>
      <point x="28" y="575"/>
      <point x="55" y="575" type="curve" smooth="yes"/>
      <point x="85" y="575"/>
      <point x="99" y="587"/>
      <point x="99" y="615" type="curve" smooth="yes"/>
      <point x="99" y="642"/>
      <point x="85" y="658"/>
      <point x="55" y="658" type="curve" smooth="yes"/>
    </contour>
    <contour>
      <point x="126" y="502" type="move" name="_top"/>
    </contour>
  </outline>
</glyph>
<glyph name="copyright" format="1">
  <advance width="555"/>
  <unicode hex="00A9"/>
  <outline>
    <contour>
      <point x="122" y="638"/>
      <point x="24" y="534"/>
      <point x="24" y="378" type="curve" smooth="yes"/>
      <point x="24" y="223"/>
      <point x="122" y="117"/>
      <point x="278" y="117" type="curve" smooth="yes"/>
      <point x="433" y="117"/>
      <point x="531" y="223"/>
      <point x="531" y="378" type="curve" smooth="yes"/>
      <point x="531" y="534"/>
      <point x="433" y="638"/>
      <point x="278" y="638" type="curve" smooth="yes"/>
    </contour>
    <contour>
      <point x="188" y="558"/>
      <point x="131" y="487"/>
      <point x="131" y="366" type="curve" smooth="yes"/>
      <point x="131" y="259"/>
      <point x="189" y="208"/>
      <point x="259" y="208" type="curve" smooth="yes"/>
      <point x="300" y="208"/>
      <point x="342" y="223"/>
      <point x="382" y="254" type="curve"/>
      <point x="370" y="278" type="line"/>
      <point x="338" y="259"/>
      <point x="307" y="250"/>
      <point x="282" y="250" type="curve" smooth="yes"/>
      <point x="224" y="250"/>
      <point x="190" y="298"/>
      <point x="190" y="379" type="curve" smooth="yes"/>
      <point x="190" y="474"/>
      <point x="222" y="530"/>
      <point x="282" y="530" type="curve" smooth="yes"/>
      <point x="324" y="530"/>
      <point x="344" y="495"/>
      <point x="344" y="449" type="curve"/>
      <point x="371" y="449" type="line"/>
      <point x="371" y="478"/>
      <point x="371" y="518"/>
      <point x="374" y="546" type="curve"/>
      <point x="351" y="555"/>
      <point x="317" y="558"/>
      <point x="293" y="558" type="curve" smooth="yes"/>
    </contour>
    <contour>
      <point x="415" y="606"/>
      <point x="500" y="515"/>
      <point x="500" y="378" type="curve" smooth="yes"/>
      <point x="500" y="240"/>
      <point x="415" y="150"/>
      <point x="278" y="150" type="curve" smooth="yes"/>
      <point x="140" y="150"/>
      <point x="55" y="240"/>
      <point x="55" y="378" type="curve" smooth="yes"/>
      <point x="55" y="515"/>
      <point x="140" y="606"/>
      <point x="278" y="606" type="curve" smooth="yes"/>
    </contour>
  </outline>
</glyph>
<glyph name="logicalnot" format="1">
  <advance width="431"/>
  <unicode hex="00AC"/>
  <outline>
    <contour>
      <point x="48" y="404" type="line"/>
      <point x="48" y="358" type="line"/>
      <point x="383" y="358" type="line"/>
      <point x="383" y="404" type="line"/>
    </contour>
    <contour>
      <point x="335" y="379" type="line"/>
      <point x="335" y="232" type="line"/>
      <point x="383" y="232" type="line"/>
      <point x="383" y="379" type="line"/>
    </contour>
  </outline>
</glyph>
<glyph name="uni00AD" format="1">
  <advance width="445"/>
  <unicode hex="00AD"/>
  <outline>
    <contour>
      <point x="86" y="259" type="line"/>
      <point x="359" y="259" type="line"/>
      <point x="359" y="196" type="line"/>
      <point x="86" y="196" type="line"/>
    </contour>
  </outline>
</glyph>
<glyph name="registered" format="1">
  <advance width="431"/>
  <unicode hex="00AE"/>
  <outline>
    <contour>
      <point x="103" y="643"/>
      <point x="40" y="563"/>
      <point x="40" y="463" type="curve" smooth="yes"/>
      <point x="40" y="362"/>
      <point x="103" y="283"/>
      <point x="215" y="283" type="curve" smooth="yes"/>
      <point x="327" y="283"/>
      <point x="390" y="362"/>
      <point x="390" y="463" type="curve" smooth="yes"/>
      <point x="390" y="563"/>
      <point x="327" y="643"/>
      <point x="215" y="643" type="curve" smooth="yes"/>
    </contour>
    <contour>
      <point x="314" y="623"/>
      <point x="370" y="551"/>
      <point x="370" y="463" type="curve" smooth="yes"/>
      <point x="370" y="374"/>
      <point x="314" y="304"/>
      <point x="215" y="304" type="curve" smooth="yes"/>
      <point x="116" y="304"/>
      <point x="61" y="374"/>
      <point x="61" y="463" type="curve" smooth="yes"/>
      <point x="61" y="551"/>
      <point x="116" y="623"/>
      <point x="215" y="623" type="curve" smooth="yes"/>
    </contour>
    <contour>
      <point x="184" y="578"/>
      <point x="174" y="575"/>
      <point x="140" y="575" type="curve"/>
      <point x="140" y="562" type="line"/>
      <point x="160" y="561"/>
      <point x="164" y="557"/>
      <point x="164" y="535" type="curve" smooth="yes"/>
      <point x="164" y="402" type="line" smooth="yes"/>
      <point x="164" y="380"/>
      <point x="160" y="377"/>
      <point x="140" y="375" type="curve"/>
      <point x="140" y="360" type="line"/>
      <point x="170" y="362"/>
      <point x="182" y="362"/>
      <point x="218" y="360" type="curve"/>
      <point x="218" y="375" type="line"/>
      <point x="195" y="377"/>
      <point x="191" y="380"/>
      <point x="191" y="402" type="curve" smooth="yes"/>
      <point x="191" y="456" type="line"/>
      <point x="196" y="456"/>
      <point x="201" y="455"/>
      <point x="206" y="455" type="curve" smooth="yes"/>
      <point x="212" y="455" type="line"/>
      <point x="260" y="360" type="line"/>
      <point x="287" y="362"/>
      <point x="278" y="362"/>
      <point x="308" y="360" type="curve"/>
      <point x="308" y="375" type="line"/>
      <point x="288" y="377"/>
      <point x="280" y="386"/>
      <point x="275" y="395" type="curve"/>
      <point x="243" y="461" type="line"/>
      <point x="270" y="470"/>
      <point x="284" y="491"/>
      <point x="284" y="519" type="curve" smooth="yes"/>
      <point x="284" y="551"/>
      <point x="259" y="578"/>
      <point x="207" y="578" type="curve" smooth="yes"/>
    </contour>
    <contour>
      <point x="242" y="558"/>
      <point x="255" y="539"/>
      <point x="255" y="517" type="curve" smooth="yes"/>
      <point x="255" y="494"/>
      <point x="236" y="474"/>
      <point x="210" y="474" type="curve" smooth="yes"/>
      <point x="203" y="474"/>
      <point x="198" y="474"/>
      <point x="191" y="475" type="curve"/>
      <point x="191" y="558" type="line"/>
      <point x="207" y="558" type="line" smooth="yes"/>
    </contour>
  </outline>
</glyph>
<glyph name="macron" format="1">
  <advance width="251"/>
  <unicode hex="00AF"/>
  <outline>
    <contour>
      <point x="24" y="623" type="line"/>
      <point x="24" y="575" type="line"/>
      <point x="227" y="575" type="line"/>
      <point x="227" y="623" type="line"/>
    </contour>
    <contour>
      <point x="126" y="502" type="move" name="_top"/>
    </contour>
  </outline>
</glyph>
<glyph name="degree" format="1">
  <advance width="366"/>
  <unicode hex="00B0"/>
  <outline>
    <contour>
      <point x="98" y="654"/>
      <point x="30" y="589"/>
      <point x="30" y="503" type="curve" smooth="yes"/>
      <point x="30" y="419"/>
      <point x="98" y="353"/>
      <point x="183" y="353" type="curve" smooth="yes"/>
      <point x="268" y="353"/>
      <point x="336" y="419"/>
      <point x="336" y="503" type="curve" smooth="yes"/>
      <point x="336" y="589"/>
      <point x="268" y="654"/>
      <point x="183" y="654" type="curve" smooth="yes"/>
    </contour>
    <contour>
      <point x="242" y="609"/>
      <point x="284" y="561"/>
      <point x="284" y="503" type="curve" smooth="yes"/>
      <point x="284" y="446"/>
      <point x="242" y="398"/>
      <point x="183" y="398" type="curve" smooth="yes"/>
      <point x="124" y="398"/>
      <point x="81" y="446"/>
      <point x="81" y="503" type="curve" smooth="yes"/>
      <point x="81" y="561"/>
      <point x="124" y="609"/>
      <point x="183" y="609" type="curve" smooth="yes"/>
    </contour>
  </outline>
</glyph>
<glyph name="plusminus" format="1">
  <advance width="431"/>
  <unicode hex="00B1"/>
  <outline>
    <contour>
      <point x="191" y="458" type="line"/>
      <point x="191" y="180" type="line"/>
      <point x="239" y="180" type="line"/>
      <point x="239" y="458" type="line"/>
    </contour>
    <contour>
      <point x="76" y="208" type="line"/>
      <point x="76" y="162" type="line"/>
      <point x="354" y="162" type="line"/>
      <point x="354" y="208" type="line"/>
    </contour>
    <contour>
      <point x="76" y="348" type="line"/>
      <point x="76" y="302" type="line"/>
      <point x="354" y="302" type="line"/>
      <point x="354" y="348" type="line"/>
    </contour>
  </outline>
</glyph>
<glyph name="acute" format="1">
  <advance width="251"/>
  <unicode hex="00B4"/>
  <outline>
    <contour>
      <point x="48" y="570" type="line"/>
      <point x="73" y="546" type="line"/>
      <point x="203" y="650" type="line"/>
      <point x="151" y="702" type="line"/>
    </contour>
    <contour>
      <point x="115" y="502" type="move" name="_top"/>
    </contour>
  </outline>
</glyph>
<glyph name="paragraph" format="1">
  <advance width="510"/>
  <unicode hex="00B6"/>
  <outline>
    <contour>
      <point x="231" y="626" type="line" smooth="yes"/>
      <point x="92" y="627"/>
      <point x="48" y="557"/>
      <point x="48" y="457" type="curve" smooth="yes"/>
      <point x="48" y="341"/>
      <point x="92" y="270"/>
      <point x="224" y="267" type="curve"/>
      <point x="224" y="0" type="line"/>
      <point x="290" y="0" type="line"/>
      <point x="290" y="566" type="line"/>
      <point x="455" y="566" type="line"/>
      <point x="455" y="626" type="line"/>
    </contour>
    <contour>
      <point x="347" y="581" type="line"/>
      <point x="347" y="0" type="line"/>
      <point x="411" y="0" type="line"/>
      <point x="411" y="581" type="line"/>
    </contour>
  </outline>
</glyph>
<glyph name="cedilla" format="1">
  <advance width="251"/>
  <unicode hex="00B8"/>
  <outline>
    <contour>
      <point x="122" y="0"/>
      <point x="90" y="0"/>
      <point x="90" y="0" type="curve"/>
      <point x="76" y="-49" type="line"/>
      <point x="86" y="-67" type="line"/>
      <point x="95" y="-67" type="line" smooth="yes"/>
      <point x="132" y="-67"/>
      <point x="144" y="-76"/>
      <point x="144" y="-103" type="curve" smooth="yes"/>
      <point x="144" y="-124"/>
      <point x="132" y="-143"/>
      <point x="108" y="-143" type="curve" smooth="yes"/>
      <point x="93" y="-143"/>
      <point x="75" y="-138"/>
      <point x="52" y="-131" type="curve"/>
      <point x="44" y="-158" type="line"/>
      <point x="63" y="-167"/>
      <point x="88" y="-175"/>
      <point x="117" y="-175" type="curve" smooth="yes"/>
      <point x="172" y="-175"/>
      <point x="206" y="-155"/>
      <point x="206" y="-104" type="curve" smooth="yes"/>
      <point x="206" y="-63"/>
      <point x="178" y="-40"/>
      <point x="121" y="-40" type="curve" smooth="yes"/>
      <point x="110" y="-40" type="line" smooth="yes"/>
      <point x="110" y="-40"/>
      <point x="122" y="0"/>
      <point x="122" y="0" type="curve" smooth="yes"/>
    </contour>
    <contour>
      <point x="102" y="-30" type="move" name="_bottom"/>
    </contour>
  </outline>
</glyph>
<glyph name="onequarter" format="1">
  <advance width="511"/>
  <unicode hex="00BC"/>
  <outline>
    <contour>
      <point x="239" y="103" type="line"/>
      <point x="239" y="76" type="line"/>
      <point x="382" y="76" type="line"/>
      <point x="382" y="0" type="line"/>
      <point x="435" y="0" type="line"/>
      <point x="435" y="76" type="line"/>
      <point x="475" y="76" type="line"/>
      <point x="475" y="108" type="line"/>
      <point x="435" y="108" type="line"/>
      <point x="435" y="332" type="line"/>
      <point x="426" y="336" type="line"/>
    </contour>
    <contour>
      <point x="382" y="108" type="line"/>
      <point x="287" y="108" type="line"/>
      <point x="382" y="232" type="line"/>
    </contour>
    <contour>
      <point x="25" y="611" type="line"/>
      <point x="25" y="583" type="line"/>
      <point x="75" y="589" type="line"/>
      <point x="81" y="590"/>
      <point x="84" y="586"/>
      <point x="84" y="581" type="curve" smooth="yes"/>
      <point x="84" y="371" type="line" smooth="yes"/>
      <point x="84" y="335"/>
      <point x="76" y="331"/>
      <point x="37" y="330" type="curve"/>
      <point x="37" y="303" type="line"/>
      <point x="103" y="305"/>
      <point x="121" y="305"/>
      <point x="187" y="303" type="curve"/>
      <point x="187" y="330" type="line"/>
      <point x="147" y="331"/>
      <point x="138" y="335"/>
      <point x="138" y="371" type="curve" smooth="yes"/>
      <point x="138" y="637" type="line"/>
      <point x="128" y="640" type="line"/>
    </contour>
    <component base="fraction" xOffset="148"/>
  </outline>
</glyph>
<glyph name="onehalf" format="1">
  <advance width="535"/>
  <unicode hex="00BD"/>
  <outline>
    <contour>
      <point x="380" y="336"/>
      <point x="348" y="330"/>
      <point x="320" y="320" type="curve"/>
      <point x="320" y="251" type="line"/>
      <point x="348" y="251" type="line"/>
      <point x="348" y="291"/>
      <point x="367" y="307"/>
      <point x="401" y="307" type="curve" smooth="yes"/>
      <point x="437" y="307"/>
      <point x="452" y="286"/>
      <point x="452" y="256" type="curve" smooth="yes"/>
      <point x="452" y="226"/>
      <point x="438" y="190"/>
      <point x="414" y="156" type="curve" smooth="yes"/>
      <point x="315" y="21" type="line"/>
      <point x="315" y="-3" type="line"/>
      <point x="511" y="-3" type="line"/>
      <point x="511" y="45" type="line"/>
      <point x="383" y="45" type="line"/>
      <point x="454" y="144" type="line" smooth="yes"/>
      <point x="479" y="179"/>
      <point x="505" y="220"/>
      <point x="505" y="263" type="curve" smooth="yes"/>
      <point x="505" y="310"/>
      <point x="469" y="336"/>
      <point x="407" y="336" type="curve" smooth="yes"/>
    </contour>
    <contour>
      <point x="24" y="611" type="line"/>
      <point x="24" y="583" type="line"/>
      <point x="73" y="589" type="line"/>
      <point x="80" y="590"/>
      <point x="83" y="586"/>
      <point x="83" y="581" type="curve" smooth="yes"/>
      <point x="83" y="371" type="line" smooth="yes"/>
      <point x="83" y="335"/>
      <point x="75" y="331"/>
      <point x="36" y="330" type="curve"/>
      <point x="36" y="303" type="line"/>
      <point x="108" y="305"/>
      <point x="115" y="305"/>
      <point x="186" y="303" type="curve"/>
      <point x="186" y="330" type="line"/>
      <point x="146" y="331"/>
      <point x="136" y="335"/>
      <point x="136" y="371" type="curve" smooth="yes"/>
      <point x="136" y="637" type="line"/>
      <point x="127" y="640" type="line"/>
    </contour>
    <component base="fraction" xOffset="148"/>
  </outline>
</glyph>
<glyph name="threequarters" format="1">
  <advance width="534"/>
  <unicode hex="00BE"/>
  <outline>
    <contour>
      <point x="262" y="103" type="line"/>
      <point x="262" y="76" type="line"/>
      <point x="404" y="76" type="line"/>
      <point x="404" y="0" type="line"/>
      <point x="458" y="0" type="line"/>
      <point x="458" y="76" type="line"/>
      <point x="498" y="76" type="line"/>
      <point x="498" y="108" type="line"/>
      <point x="458" y="108" type="line"/>
      <point x="458" y="332" type="line"/>
      <point x="449" y="336" type="line"/>
    </contour>
    <contour>
      <point x="404" y="108" type="line"/>
      <point x="310" y="108" type="line"/>
      <point x="404" y="232" type="line"/>
    </contour>
    <contour>
      <point x="84" y="640"/>
      <point x="54" y="634"/>
      <point x="27" y="625" type="curve"/>
      <point x="27" y="554" type="line"/>
      <point x="55" y="554" type="line"/>
      <point x="55" y="597"/>
      <point x="75" y="611"/>
      <point x="109" y="611" type="curve" smooth="yes"/>
      <point x="143" y="611"/>
      <point x="158" y="595"/>
      <point x="158" y="562" type="curve" smooth="yes"/>
      <point x="158" y="527"/>
      <point x="128" y="506"/>
      <point x="67" y="498" type="curve"/>
      <point x="67" y="470" type="line"/>
      <point x="124" y="466"/>
      <point x="165" y="458"/>
      <point x="165" y="415" type="curve" smooth="yes"/>
      <point x="165" y="344"/>
      <point x="109" y="323"/>
      <point x="24" y="316" type="curve"/>
      <point x="32" y="291" type="line"/>
      <point x="119" y="293"/>
      <point x="224" y="324"/>
      <point x="224" y="410" type="curve" smooth="yes"/>
      <point x="224" y="452"/>
      <point x="199" y="474"/>
      <point x="151" y="488" type="curve"/>
      <point x="151" y="490" type="line"/>
      <point x="179" y="506"/>
      <point x="211" y="525"/>
      <point x="211" y="569" type="curve" smooth="yes"/>
      <point x="211" y="616"/>
      <point x="171" y="640"/>
      <point x="111" y="640" type="curve" smooth="yes"/>
    </contour>
    <component base="fraction" xOffset="171"/>
  </outline>
</glyph>
<glyph name="AE" format="1">
  <advance width="772"/>
  <unicode hex="00C6"/>
  <outline>
    <contour>
      <point x="615" y="625"/>
      <point x="558" y="625"/>
      <point x="490" y="625" type="curve"/>
      <point x="359" y="625" type="line"/>
      <point x="323" y="625"/>
      <point x="298" y="625"/>
      <point x="246" y="627" type="curve"/>
      <point x="246" y="593" type="line"/>
      <point x="304" y="591"/>
      <point x="320" y="571"/>
      <point x="300" y="523" type="curve"/>
      <point x="83" y="73" type="line" smooth="yes"/>
      <point x="72" y="52"/>
      <point x="56" y="32"/>
      <point x="16" y="31" type="curve"/>
      <point x="16" y="-3" type="line"/>
      <point x="128" y="3"/>
      <point x="98" y="3"/>
      <point x="202" y="-3" type="curve"/>
      <point x="202" y="31" type="line"/>
      <point x="153" y="33"/>
      <point x="121" y="37"/>
      <point x="144" y="85" type="curve" smooth="yes"/>
      <point x="206" y="216" type="line"/>
      <point x="358" y="216" type="line"/>
      <point x="358" y="109" type="line" smooth="yes"/>
      <point x="358" y="47"/>
      <point x="348" y="33"/>
      <point x="290" y="31" type="curve"/>
      <point x="290" y="-3" type="line"/>
      <point x="342" y="0"/>
      <point x="367" y="0"/>
      <point x="394" y="0" type="curve" smooth="yes"/>
      <point x="507" y="0" type="line" smooth="yes"/>
      <point x="565" y="0"/>
      <point x="610" y="0"/>
      <point x="683" y="-5" type="curve"/>
      <point x="718" y="170" type="line"/>
      <point x="683" y="170" type="line"/>
      <point x="662" y="95"/>
      <point x="638" y="42"/>
      <point x="509" y="42" type="curve" smooth="yes"/>
      <point x="430" y="42" type="line"/>
      <point x="430" y="288" type="line"/>
      <point x="469" y="288" type="line" smooth="yes"/>
      <point x="523" y="288"/>
      <point x="551" y="276"/>
      <point x="554" y="218" type="curve"/>
      <point x="587" y="218" type="line"/>
      <point x="581" y="323"/>
      <point x="581" y="296"/>
      <point x="587" y="401" type="curve"/>
      <point x="554" y="401" type="line"/>
      <point x="551" y="342"/>
      <point x="523" y="330"/>
      <point x="469" y="330" type="curve" smooth="yes"/>
      <point x="430" y="330" type="line"/>
      <point x="430" y="582" type="line"/>
      <point x="512" y="582" type="line" smooth="yes"/>
      <point x="607" y="582"/>
      <point x="633" y="551"/>
      <point x="654" y="455" type="curve"/>
      <point x="688" y="455" type="line"/>
      <point x="676" y="629" type="line"/>
    </contour>
    <contour>
      <point x="358" y="259" type="line"/>
      <point x="224" y="259" type="line"/>
      <point x="317" y="459" type="line"/>
      <point x="358" y="558" type="line"/>
    </contour>
    <contour>
      <point x="866" y="616" type="move" name="top"/>
    </contour>
  </outline>
</glyph>
<glyph name="Eth" format="1">
  <advance width="634"/>
  <unicode hex="00D0"/>
  <outline>
    <contour>
      <point x="66" y="298" type="line"/>
      <point x="329" y="298" type="line"/>
      <point x="329" y="341" type="line"/>
      <point x="66" y="341" type="line"/>
    </contour>
    <component base="D" xOffset="3"/>
  </outline>
</glyph>
<glyph name="multiply" format="1">
  <advance width="431"/>
  <unicode hex="00D7"/>
  <outline>
    <contour>
      <point x="215" y="345" type="line"/>
      <point x="126" y="435" type="line"/>
      <point x="93" y="403" type="line"/>
      <point x="183" y="313" type="line"/>
      <point x="93" y="224" type="line"/>
      <point x="126" y="191" type="line"/>
      <point x="215" y="281" type="line"/>
      <point x="305" y="190" type="line"/>
      <point x="338" y="223" type="line"/>
      <point x="247" y="313" type="line"/>
      <point x="339" y="403" type="line"/>
      <point x="306" y="435" type="line"/>
    </contour>
  </outline>
</glyph>
<glyph name="Oslash" format="1">
  <advance width="597"/>
  <unicode hex="00D8"/>
  <outline>
    <contour>
      <point x="159" y="79" type="line"/>
      <point x="476" y="519" type="line"/>
      <point x="443" y="550" type="line"/>
      <point x="132" y="117" type="line"/>
    </contour>
    <contour>
      <point x="129" y="119" type="line"/>
      <point x="54" y="15" type="line"/>
      <point x="90" y="-11" type="line"/>
      <point x="155" y="80" type="line"/>
    </contour>
    <contour>
      <point x="475" y="521" type="line"/>
      <point x="543" y="615" type="line"/>
      <point x="507" y="641" type="line"/>
      <point x="443" y="551" type="line"/>
    </contour>
    <component base="O" xOffset="6"/>
  </outline>
</glyph>
<glyph name="Thorn" format="1">
  <advance width="515"/>
  <unicode hex="00DE"/>
  <outline>
    <contour>
      <point x="170" y="622"/>
      <point x="171" y="622"/>
      <point x="66" y="627" type="curve"/>
      <point x="66" y="593" type="line"/>
      <point x="124" y="591"/>
      <point x="134" y="578"/>
      <point x="134" y="515" type="curve"/>
      <point x="134" y="109" type="line" smooth="yes"/>
      <point x="134" y="47"/>
      <point x="124" y="33"/>
      <point x="66" y="31" type="curve"/>
      <point x="66" y="-3" type="line"/>
      <point x="164" y="3"/>
      <point x="188" y="3"/>
      <point x="282" y="-3" type="curve"/>
      <point x="282" y="31" type="line"/>
      <point x="215" y="33"/>
      <point x="206" y="47"/>
      <point x="206" y="109" type="curve" smooth="yes"/>
      <point x="206" y="457" type="line"/>
      <point x="260" y="457" type="line" smooth="yes"/>
      <point x="366" y="457"/>
      <point x="407" y="398"/>
      <point x="407" y="323" type="curve" smooth="yes"/>
      <point x="407" y="251"/>
      <point x="354" y="182"/>
      <point x="270" y="182" type="curve" smooth="yes"/>
      <point x="239" y="182"/>
      <point x="214" y="184"/>
      <point x="180" y="190" type="curve"/>
      <point x="153" y="148" type="line"/>
      <point x="184" y="144"/>
      <point x="218" y="141"/>
      <point x="248" y="141" type="curve" smooth="yes"/>
      <point x="406" y="141"/>
      <point x="486" y="213"/>
      <point x="486" y="332" type="curve" smooth="yes"/>
      <point x="486" y="431"/>
      <point x="409" y="505"/>
      <point x="252" y="505" type="curve" smooth="yes"/>
      <point x="235" y="505"/>
      <point x="219" y="505"/>
      <point x="206" y="503" type="curve"/>
      <point x="206" y="515" type="line"/>
      <point x="206" y="578"/>
      <point x="215" y="591"/>
      <point x="274" y="593" type="curve"/>
      <point x="274" y="627" type="line"/>
    </contour>
    <contour>
      <point x="-170" y="616" type="move" name="top"/>
    </contour>
  </outline>
</glyph>
<glyph name="germandbls" format="1">
  <advance width="530"/>
  <unicode hex="00DF"/>
  <outline>
    <contour>
      <point x="180" y="658"/>
      <point x="93" y="583"/>
      <point x="93" y="459" type="curve" smooth="yes"/>
      <point x="93" y="102" type="line" smooth="yes"/>
      <point x="93" y="43"/>
      <point x="84" y="30"/>
      <point x="24" y="28" type="curve"/>
      <point x="24" y="-3" type="line"/>
      <point x="127" y="3"/>
      <point x="127" y="3"/>
      <point x="159" y="1" type="curve"/>
      <point x="159" y="487" type="line" smooth="yes"/>
      <point x="159" y="603"/>
      <point x="227" y="621"/>
      <point x="272" y="621" type="curve" smooth="yes"/>
      <point x="327" y="621"/>
      <point x="359" y="587"/>
      <point x="359" y="523" type="curve" smooth="yes"/>
      <point x="359" y="491"/>
      <point x="344" y="470"/>
      <point x="326" y="451" type="curve" smooth="yes"/>
      <point x="294" y="419"/>
      <point x="252" y="394"/>
      <point x="252" y="338" type="curve" smooth="yes"/>
      <point x="252" y="264"/>
      <point x="311" y="220"/>
      <point x="358" y="200" type="curve" smooth="yes"/>
      <point x="407" y="178"/>
      <point x="450" y="164"/>
      <point x="450" y="102" type="curve" smooth="yes"/>
      <point x="450" y="55"/>
      <point x="416" y="19"/>
      <point x="374" y="19" type="curve" smooth="yes"/>
      <point x="305" y="19"/>
      <point x="282" y="67"/>
      <point x="266" y="140" type="curve"/>
      <point x="266" y="140"/>
      <point x="231" y="140"/>
      <point x="231" y="140" type="curve"/>
      <point x="236" y="99"/>
      <point x="238" y="57"/>
      <point x="238" y="16" type="curve"/>
      <point x="278" y="-3"/>
      <point x="315" y="-12"/>
      <point x="356" y="-12" type="curve" smooth="yes"/>
      <point x="437" y="-12"/>
      <point x="512" y="25"/>
      <point x="512" y="123" type="curve" smooth="yes"/>
      <point x="512" y="196"/>
      <point x="457" y="234"/>
      <point x="407" y="256" type="curve" smooth="yes"/>
      <point x="365" y="275"/>
      <point x="316" y="296"/>
      <point x="316" y="353" type="curve" smooth="yes"/>
      <point x="316" y="387"/>
      <point x="336" y="408"/>
      <point x="359" y="428" type="curve" smooth="yes"/>
      <point x="386" y="452"/>
      <point x="419" y="479"/>
      <point x="419" y="538" type="curve" smooth="yes"/>
      <point x="419" y="619"/>
      <point x="351" y="658"/>
      <point x="288" y="658" type="curve" smooth="yes"/>
    </contour>
  </outline>
</glyph>
<glyph name="ae" format="1">
  <advance width="625"/>
  <unicode hex="00E6"/>
  <outline>
    <contour>
      <point x="363" y="461"/>
      <point x="267" y="375"/>
      <point x="267" y="202" type="curve" smooth="yes"/>
      <point x="267" y="64"/>
      <point x="328" y="-12"/>
      <point x="425" y="-12" type="curve" smooth="yes"/>
      <point x="493" y="-12"/>
      <point x="550" y="23"/>
      <point x="589" y="93" type="curve"/>
      <point x="589" y="93"/>
      <point x="570" y="104"/>
      <point x="570" y="104" type="curve"/>
      <point x="527" y="63"/>
      <point x="486" y="43"/>
      <point x="440" y="43" type="curve" smooth="yes"/>
      <point x="367" y="43"/>
      <point x="336" y="116"/>
      <point x="336" y="220" type="curve" smooth="yes"/>
      <point x="336" y="359"/>
      <point x="372" y="428"/>
      <point x="443" y="428" type="curve" smooth="yes"/>
      <point x="512" y="428"/>
      <point x="517" y="334"/>
      <point x="518" y="252" type="curve"/>
      <point x="323" y="252" type="line"/>
      <point x="316" y="216" type="line"/>
      <point x="587" y="216" type="line"/>
      <point x="587" y="318"/>
      <point x="597" y="461"/>
      <point x="454" y="461" type="curve" smooth="yes"/>
    </contour>
    <contour>
      <point x="159" y="459"/>
      <point x="121" y="449"/>
      <point x="83" y="431" type="curve"/>
      <point x="83" y="314" type="line"/>
      <point x="120" y="314" type="line"/>
      <point x="120" y="390"/>
      <point x="155" y="427"/>
      <point x="201" y="427" type="curve" smooth="yes"/>
      <point x="250" y="427"/>
      <point x="268" y="398"/>
      <point x="268" y="336" type="curve" smooth="yes"/>
      <point x="268" y="250" type="line"/>
      <point x="107" y="250"/>
      <point x="36" y="203"/>
      <point x="36" y="104" type="curve" smooth="yes"/>
      <point x="36" y="24"/>
      <point x="80" y="-12"/>
      <point x="153" y="-12" type="curve" smooth="yes"/>
      <point x="203" y="-12"/>
      <point x="266" y="42"/>
      <point x="284" y="117" type="curve"/>
      <point x="270" y="141" type="line"/>
      <point x="251" y="78"/>
      <point x="214" y="42"/>
      <point x="165" y="42" type="curve" smooth="yes"/>
      <point x="127" y="42"/>
      <point x="104" y="64"/>
      <point x="104" y="112" type="curve" smooth="yes"/>
      <point x="104" y="177"/>
      <point x="138" y="214"/>
      <point x="268" y="214" type="curve"/>
      <point x="268" y="112" type="line"/>
      <point x="334" y="155" type="line"/>
      <point x="334" y="331" type="line" smooth="yes"/>
      <point x="334" y="425"/>
      <point x="279" y="459"/>
      <point x="203" y="459" type="curve" smooth="yes"/>
    </contour>
    <contour>
      <point x="207" y="478" type="move" name="top"/>
    </contour>
  </outline>
</glyph>
<glyph name="eth" format="1">
  <advance width="425"/>
  <unicode hex="00F0"/>
  <outline>
    <contour>
      <point x="151" y="499" type="line"/>
      <point x="174" y="469" type="line"/>
      <point x="350" y="609" type="line"/>
      <point x="326" y="638" type="line"/>
    </contour>
    <component base="partialdiff" xOffset="-8"/>
  </outline>
</glyph>
<glyph name="divide" format="1">
  <advance width="431"/>
  <unicode hex="00F7"/>
  <outline>
    <contour>
      <point x="187" y="267"/>
      <point x="168" y="248"/>
      <point x="168" y="220" type="curve" smooth="yes"/>
      <point x="168" y="192"/>
      <point x="187" y="177"/>
      <point x="213" y="177" type="curve" smooth="yes"/>
      <point x="244" y="177"/>
      <point x="262" y="192"/>
      <point x="262" y="220" type="curve" smooth="yes"/>
      <point x="262" y="248"/>
      <point x="244" y="267"/>
      <point x="213" y="267" type="curve" smooth="yes"/>
    </contour>
    <contour>
      <point x="187" y="458"/>
      <point x="168" y="440"/>
      <point x="168" y="411" type="curve" smooth="yes"/>
      <point x="168" y="383"/>
      <point x="187" y="368"/>
      <point x="213" y="368" type="curve" smooth="yes"/>
      <point x="244" y="368"/>
      <point x="262" y="383"/>
      <point x="262" y="411" type="curve" smooth="yes"/>
      <point x="262" y="440"/>
      <point x="244" y="458"/>
      <point x="213" y="458" type="curve" smooth="yes"/>
    </contour>
    <component base="minus"/>
  </outline>
</glyph>
<glyph name="oslash" format="1">
  <advance width="431"/>
  <unicode hex="00F8"/>
  <outline>
    <contour>
      <point x="42" y="9" type="line"/>
      <point x="72" y="-12" type="line"/>
      <point x="391" y="439" type="line"/>
      <point x="360" y="461" type="line"/>
    </contour>
    <component base="o"/>
  </outline>
</glyph>
<glyph name="thorn" format="1">
  <advance width="481"/>
  <unicode hex="00FE"/>
  <outline>
    <contour>
      <point x="36" y="637" type="line"/>
      <point x="36" y="606" type="line"/>
      <point x="95" y="606"/>
      <point x="105" y="595"/>
      <point x="105" y="547" type="curve" smooth="yes"/>
      <point x="105" y="-95" type="line" smooth="yes"/>
      <point x="105" y="-153"/>
      <point x="96" y="-167"/>
      <point x="36" y="-168" type="curve"/>
      <point x="36" y="-199" type="line"/>
      <point x="139" y="-194"/>
      <point x="139" y="-194"/>
      <point x="251" y="-199" type="curve"/>
      <point x="251" y="-168" type="line"/>
      <point x="180" y="-167"/>
      <point x="171" y="-153"/>
      <point x="171" y="-95" type="curve" smooth="yes"/>
      <point x="171" y="7" type="line"/>
      <point x="195" y="-4"/>
      <point x="227" y="-12"/>
      <point x="260" y="-12" type="curve" smooth="yes"/>
      <point x="360" y="-12"/>
      <point x="442" y="83"/>
      <point x="442" y="247" type="curve" smooth="yes"/>
      <point x="442" y="391"/>
      <point x="382" y="459"/>
      <point x="288" y="459" type="curve" smooth="yes"/>
      <point x="238" y="459"/>
      <point x="192" y="423"/>
      <point x="171" y="365" type="curve"/>
      <point x="171" y="652" type="line"/>
      <point x="156" y="658" type="line"/>
    </contour>
    <contour>
      <point x="334" y="404"/>
      <point x="374" y="354"/>
      <point x="374" y="227" type="curve" smooth="yes"/>
      <point x="374" y="135"/>
      <point x="355" y="20"/>
      <point x="267" y="20" type="curve" smooth="yes"/>
      <point x="211" y="20"/>
      <point x="171" y="52"/>
      <point x="171" y="115" type="curve" smooth="yes"/>
      <point x="171" y="302" type="line"/>
      <point x="182" y="365"/>
      <point x="228" y="404"/>
      <point x="272" y="404" type="curve" smooth="yes"/>
    </contour>
  </outline>
</glyph>
<glyph name="dotlessi" format="1">
  <advance width="259"/>
  <unicode hex="0131"/>
  <outline>
    <contour>
      <point x="36" y="438" type="line"/>
      <point x="36" y="408" type="line"/>
      <point x="95" y="408"/>
      <point x="105" y="397"/>
      <point x="105" y="350" type="curve" smooth="yes"/>
      <point x="105" y="100" type="line" smooth="yes"/>
      <point x="105" y="42"/>
      <point x="96" y="29"/>
      <point x="36" y="27" type="curve"/>
      <point x="36" y="-4" type="line"/>
      <point x="139" y="1"/>
      <point x="139" y="1"/>
      <point x="240" y="-4" type="curve"/>
      <point x="240" y="27" type="line"/>
      <point x="180" y="29"/>
      <point x="171" y="42"/>
      <point x="171" y="100" type="curve"/>
      <point x="171" y="454" type="line"/>
      <point x="156" y="459" type="line"/>
    </contour>
    <contour>
      <point x="134" y="478" type="move" name="top"/>
    </contour>
  </outline>
</glyph>
<glyph name="Lslash" format="1">
  <advance width="518"/>
  <unicode hex="0141"/>
  <outline>
    <contour>
      <point x="165" y="258" type="line"/>
      <point x="347" y="342" type="line"/>
      <point x="329" y="380" type="line"/>
      <point x="167" y="304" type="line"/>
    </contour>
    <contour>
      <point x="167" y="307" type="line"/>
      <point x="66" y="260" type="line"/>
      <point x="84" y="223" type="line"/>
      <point x="165" y="260" type="line"/>
    </contour>
    <component base="L"/>
  </outline>
</glyph>
<glyph name="lslash" format="1">
  <advance width="287"/>
  <unicode hex="0142"/>
  <outline>
    <contour>
      <point x="152" y="351" type="line"/>
      <point x="151" y="302" type="line"/>
      <point x="258" y="363" type="line"/>
      <point x="236" y="399" type="line"/>
    </contour>
    <contour>
      <point x="49" y="298" type="line"/>
      <point x="71" y="260" type="line"/>
      <point x="151" y="307" type="line"/>
      <point x="152" y="358" type="line"/>
    </contour>
    <component base="l" xOffset="12"/>
  </outline>
</glyph>
<glyph name="OE" format="1">
  <advance width="868"/>
  <unicode hex="0152"/>
  <outline>
    <contour>
      <point x="172" y="640"/>
      <point x="54" y="527"/>
      <point x="54" y="279" type="curve" smooth="yes"/>
      <point x="54" y="91"/>
      <point x="128" y="-12"/>
      <point x="278" y="-12" type="curve" smooth="yes"/>
      <point x="410" y="-12"/>
      <point x="521" y="111"/>
      <point x="521" y="350" type="curve" smooth="yes"/>
      <point x="521" y="501"/>
      <point x="454" y="640"/>
      <point x="311" y="640" type="curve" smooth="yes"/>
    </contour>
    <contour>
      <point x="414" y="597"/>
      <point x="457" y="486"/>
      <point x="457" y="338" type="curve" smooth="yes"/>
      <point x="457" y="179"/>
      <point x="421" y="30"/>
      <point x="307" y="30" type="curve" smooth="yes"/>
      <point x="176" y="30"/>
      <point x="132" y="143"/>
      <point x="132" y="291" type="curve" smooth="yes"/>
      <point x="132" y="449"/>
      <point x="167" y="597"/>
      <point x="282" y="597" type="curve" smooth="yes"/>
    </contour>
    <contour>
      <point x="650" y="399" type="line"/>
      <point x="647" y="341"/>
      <point x="618" y="329"/>
      <point x="565" y="329" type="curve" smooth="yes"/>
      <point x="488" y="329" type="line"/>
      <point x="488" y="287" type="line"/>
      <point x="565" y="287" type="line" smooth="yes"/>
      <point x="618" y="287"/>
      <point x="647" y="275"/>
      <point x="650" y="216" type="curve"/>
      <point x="683" y="216" type="line"/>
      <point x="677" y="322"/>
      <point x="677" y="295"/>
      <point x="683" y="399" type="curve"/>
    </contour>
    <contour>
      <point x="720" y="625"/>
      <point x="665" y="625"/>
      <point x="616" y="625" type="curve" smooth="yes"/>
      <point x="457" y="625" type="line"/>
      <point x="457" y="0" type="line"/>
      <point x="603" y="0" type="line" smooth="yes"/>
      <point x="661" y="0"/>
      <point x="706" y="0"/>
      <point x="778" y="-5" type="curve"/>
      <point x="813" y="170" type="line"/>
      <point x="778" y="170" type="line"/>
      <point x="758" y="95"/>
      <point x="734" y="42"/>
      <point x="604" y="42" type="curve" smooth="yes"/>
      <point x="525" y="42" type="line"/>
      <point x="525" y="582" type="line"/>
      <point x="619" y="582" type="line" smooth="yes"/>
      <point x="715" y="582"/>
      <point x="741" y="551"/>
      <point x="762" y="455" type="curve"/>
      <point x="796" y="455" type="line"/>
      <point x="784" y="629" type="line"/>
    </contour>
    <contour>
      <point x="307" y="616" type="move" name="top"/>
    </contour>
  </outline>
</glyph>
<glyph name="oe" format="1">
  <advance width="677"/>
  <unicode hex="0153"/>
  <outline>
    <contour>
      <point x="111" y="459"/>
      <point x="40" y="360"/>
      <point x="40" y="200" type="curve" smooth="yes"/>
      <point x="40" y="63"/>
      <point x="93" y="-12"/>
      <point x="199" y="-12" type="curve" smooth="yes"/>
      <point x="320" y="-12"/>
      <point x="387" y="111"/>
      <point x="387" y="247" type="curve" smooth="yes"/>
      <point x="387" y="360"/>
      <point x="339" y="459"/>
      <point x="239" y="459" type="curve" smooth="yes"/>
    </contour>
    <contour>
      <point x="288" y="427"/>
      <point x="319" y="362"/>
      <point x="319" y="240" type="curve" smooth="yes"/>
      <point x="319" y="104"/>
      <point x="292" y="20"/>
      <point x="212" y="20" type="curve" smooth="yes"/>
      <point x="139" y="20"/>
      <point x="108" y="85"/>
      <point x="108" y="207" type="curve" smooth="yes"/>
      <point x="108" y="343"/>
      <point x="135" y="427"/>
      <point x="215" y="427" type="curve" smooth="yes"/>
    </contour>
    <contour>
      <point x="409" y="459"/>
      <point x="319" y="354"/>
      <point x="319" y="201" type="curve" smooth="yes"/>
      <point x="319" y="87"/>
      <point x="380" y="-12"/>
      <point x="477" y="-12" type="curve" smooth="yes"/>
      <point x="546" y="-12"/>
      <point x="603" y="21"/>
      <point x="641" y="92" type="curve"/>
      <point x="641" y="92"/>
      <point x="623" y="103"/>
      <point x="623" y="103" type="curve"/>
      <point x="581" y="61"/>
      <point x="538" y="43"/>
      <point x="493" y="43" type="curve" smooth="yes"/>
      <point x="420" y="43"/>
      <point x="387" y="102"/>
      <point x="387" y="219" type="curve" smooth="yes"/>
      <point x="387" y="358"/>
      <point x="425" y="427"/>
      <point x="495" y="427" type="curve" smooth="yes"/>
      <point x="553" y="427"/>
      <point x="569" y="354"/>
      <point x="570" y="272" type="curve"/>
      <point x="375" y="272" type="line"/>
      <point x="368" y="239" type="line"/>
      <point x="640" y="239" type="line"/>
      <point x="640" y="341"/>
      <point x="638" y="459"/>
      <point x="507" y="459" type="curve" smooth="yes"/>
    </contour>
    <contour>
      <point x="226" y="478" type="move" name="top"/>
    </contour>
  </outline>
</glyph>
<glyph name="florin" format="1">
  <advance width="389"/>
  <unicode hex="0192"/>
  <outline>
    <contour>
      <point x="210" y="638"/>
      <point x="177" y="563"/>
      <point x="167" y="476" type="curve" smooth="yes"/>
      <point x="107" y="12" type="line" smooth="yes"/>
      <point x="99" y="-42"/>
      <point x="84" y="-85"/>
      <point x="49" y="-85" type="curve" smooth="yes"/>
      <point x="28" y="-85"/>
      <point x="16" y="-76"/>
      <point x="9" y="-44" type="curve"/>
      <point x="-18" y="-44" type="line"/>
      <point x="-18" y="-99" type="line"/>
      <point x="4" y="-114"/>
      <point x="27" y="-121"/>
      <point x="48" y="-121" type="curve" smooth="yes"/>
      <point x="122" y="-121"/>
      <point x="160" y="-85"/>
      <point x="179" y="68" type="curve" smooth="yes"/>
      <point x="236" y="507" type="line" smooth="yes"/>
      <point x="240" y="549"/>
      <point x="254" y="603"/>
      <point x="298" y="603" type="curve" smooth="yes"/>
      <point x="336" y="603"/>
      <point x="346" y="570"/>
      <point x="347" y="518" type="curve"/>
      <point x="377" y="518" type="line"/>
      <point x="377" y="627" type="line"/>
      <point x="351" y="637"/>
      <point x="324" y="638"/>
      <point x="298" y="638" type="curve" smooth="yes"/>
    </contour>
    <contour>
      <point x="156" y="402" type="line"/>
      <point x="84" y="385" type="line"/>
      <point x="79" y="366" type="line"/>
      <point x="326" y="366" type="line"/>
      <point x="334" y="402" type="line"/>
    </contour>
  </outline>
</glyph>
<glyph name="circumflex" format="1">
  <advance width="251"/>
  <unicode hex="02C6"/>
  <outline>
    <contour>
      <point x="109" y="702" type="line"/>
      <point x="15" y="569" type="line"/>
      <point x="40" y="546" type="line"/>
      <point x="126" y="630" type="line"/>
      <point x="211" y="546" type="line"/>
      <point x="236" y="569" type="line"/>
      <point x="143" y="702" type="line"/>
    </contour>
    <contour>
      <point x="126" y="502" type="move" name="_top"/>
    </contour>
  </outline>
</glyph>
<glyph name="caron" format="1">
  <advance width="251"/>
  <unicode hex="02C7"/>
  <outline>
    <component base="circumflex" xOffset="18" yOffset="1248" yScale="-1"/>
    <contour>
      <point x="126" y="502" type="move" name="_top"/>
    </contour>
  </outline>
</glyph>
<glyph name="breve" format="1">
  <advance width="251"/>
  <unicode hex="02D8"/>
  <outline>
    <contour>
      <point x="199" y="628"/>
      <point x="179" y="597"/>
      <point x="124" y="597" type="curve" smooth="yes"/>
      <point x="71" y="597"/>
      <point x="52" y="628"/>
      <point x="45" y="682" type="curve"/>
      <point x="12" y="676" type="line"/>
      <point x="20" y="582"/>
      <point x="63" y="543"/>
      <point x="124" y="543" type="curve" smooth="yes"/>
      <point x="188" y="543"/>
      <point x="230" y="582"/>
      <point x="238" y="676" type="curve"/>
      <point x="206" y="682" type="line"/>
    </contour>
    <contour>
      <point x="126" y="502" type="move" name="_top"/>
    </contour>
  </outline>
</glyph>
<glyph name="dotaccent" format="1">
  <advance width="251"/>
  <unicode hex="02D9"/>
  <outline>
    <contour>
      <point x="93" y="665"/>
      <point x="76" y="646"/>
      <point x="76" y="615" type="curve" smooth="yes"/>
      <point x="76" y="582"/>
      <point x="93" y="569"/>
      <point x="126" y="569" type="curve" smooth="yes"/>
      <point x="159" y="569"/>
      <point x="176" y="582"/>
      <point x="176" y="615" type="curve" smooth="yes"/>
      <point x="176" y="646"/>
      <point x="159" y="665"/>
      <point x="126" y="665" type="curve" smooth="yes"/>
    </contour>
    <contour>
      <point x="126" y="502" type="move" name="_top"/>
    </contour>
  </outline>
</glyph>
<glyph name="ring" format="1">
  <advance width="251"/>
  <unicode hex="02DA"/>
  <outline>
    <contour>
      <point x="71" y="708"/>
      <point x="36" y="673"/>
      <point x="36" y="618" type="curve" smooth="yes"/>
      <point x="36" y="563"/>
      <point x="71" y="529"/>
      <point x="126" y="529" type="curve" smooth="yes"/>
      <point x="180" y="529"/>
      <point x="215" y="563"/>
      <point x="215" y="618" type="curve" smooth="yes"/>
      <point x="215" y="673"/>
      <point x="180" y="708"/>
      <point x="126" y="708" type="curve" smooth="yes"/>
    </contour>
    <contour>
      <point x="155" y="676"/>
      <point x="174" y="653"/>
      <point x="174" y="618" type="curve" smooth="yes"/>
      <point x="174" y="583"/>
      <point x="155" y="561"/>
      <point x="126" y="561" type="curve" smooth="yes"/>
      <point x="97" y="561"/>
      <point x="78" y="583"/>
      <point x="78" y="618" type="curve" smooth="yes"/>
      <point x="78" y="653"/>
      <point x="97" y="676"/>
      <point x="126" y="676" type="curve" smooth="yes"/>
    </contour>
    <contour>
      <point x="126" y="502" type="move" name="_top"/>
    </contour>
  </outline>
</glyph>
<glyph name="ogonek" format="1">
  <advance width="251"/>
  <unicode hex="02DB"/>
  <outline>
    <contour>
      <point x="122" y="18"/>
      <point x="47" y="-23"/>
      <point x="47" y="-92" type="curve" smooth="yes"/>
      <point x="47" y="-153"/>
      <point x="84" y="-174"/>
      <point x="119" y="-174" type="curve" smooth="yes"/>
      <point x="155" y="-174"/>
      <point x="189" y="-153"/>
      <point x="203" y="-139" type="curve"/>
      <point x="191" y="-116" type="line"/>
      <point x="174" y="-127"/>
      <point x="160" y="-132"/>
      <point x="144" y="-132" type="curve" smooth="yes"/>
      <point x="121" y="-132"/>
      <point x="104" y="-116"/>
      <point x="104" y="-80" type="curve" smooth="yes"/>
      <point x="104" y="-33"/>
      <point x="136" y="-3"/>
      <point x="200" y="0" type="curve"/>
      <point x="200" y="0"/>
      <point x="200" y="18"/>
      <point x="200" y="18" type="curve" smooth="yes"/>
    </contour>
  </outline>
</glyph>
<glyph name="tilde" format="1">
  <advance width="251"/>
  <unicode hex="02DC"/>
  <outline>
    <contour>
      <point x="210" y="616"/>
      <point x="194" y="604"/>
      <point x="172" y="604" type="curve" smooth="yes"/>
      <point x="155" y="604"/>
      <point x="144" y="614"/>
      <point x="132" y="621" type="curve" smooth="yes"/>
      <point x="117" y="629"/>
      <point x="100" y="637"/>
      <point x="83" y="637" type="curve" smooth="yes"/>
      <point x="43" y="637"/>
      <point x="25" y="610"/>
      <point x="11" y="567" type="curve"/>
      <point x="11" y="567"/>
      <point x="31" y="557"/>
      <point x="31" y="557" type="curve"/>
      <point x="43" y="581"/>
      <point x="59" y="592"/>
      <point x="80" y="592" type="curve" smooth="yes"/>
      <point x="97" y="592"/>
      <point x="108" y="582"/>
      <point x="121" y="575" type="curve" smooth="yes"/>
      <point x="135" y="567"/>
      <point x="152" y="559"/>
      <point x="170" y="559" type="curve" smooth="yes"/>
      <point x="210" y="559"/>
      <point x="227" y="586"/>
      <point x="242" y="629" type="curve"/>
      <point x="242" y="629"/>
      <point x="222" y="640"/>
      <point x="222" y="640" type="curve"/>
    </contour>
    <contour>
      <point x="126" y="502" type="move" name="_top"/>
    </contour>
  </outline>
</glyph>
<glyph name="hungarumlaut" format="1">
  <advance width="251"/>
  <unicode hex="02DD"/>
  <outline>
    <contour>
      <point x="129" y="551" type="line"/>
      <point x="160" y="535" type="line"/>
      <point x="254" y="659" type="line"/>
      <point x="189" y="695" type="line"/>
    </contour>
    <contour>
      <point x="-3" y="551" type="line"/>
      <point x="29" y="535" type="line"/>
      <point x="122" y="659" type="line"/>
      <point x="57" y="695" type="line"/>
    </contour>
    <contour>
      <point x="126" y="502" type="move" name="_top"/>
    </contour>
  </outline>
</glyph>
<glyph name="uni0900" format="1">
  <advance width="0"/>
  <unicode hex="0900"/>
  <outline>
    <contour>
      <point x="-275" y="781"/>
      <point x="-198" y="861"/>
      <point x="-102" y="861" type="curve" smooth="yes"/>
      <point x="-6" y="861"/>
      <point x="72" y="777"/>
      <point x="72" y="676" type="curve"/>
      <point x="48" y="670" type="line"/>
      <point x="48" y="742"/>
      <point x="-19" y="801"/>
      <point x="-102" y="801" type="curve" smooth="yes"/>
      <point x="-184" y="801"/>
      <point x="-251" y="742"/>
      <point x="-251" y="670" type="curve"/>
      <point x="-275" y="682" type="line"/>
    </contour>
    <contour>
      <point x="-54" y="700" type="line"/>
      <point x="-108" y="646" type="line"/>
      <point x="-162" y="706" type="line"/>
      <point x="-102" y="760" type="line"/>
    </contour>
  </outline>
</glyph>
<glyph name="uni0902" format="1">
  <advance width="0"/>
  <unicode hex="0902"/>
  <outline>
    <contour>
      <point x="-150" y="812" type="line"/>
      <point x="-97" y="760" type="line"/>
      <point x="-44" y="812" type="line"/>
      <point x="-97" y="865" type="line"/>
    </contour>
  </outline>
</glyph>
<glyph name="uni0905" format="1">
  <advance width="575"/>
  <unicode hex="0905"/>
  <outline>
    <contour>
      <point x="312" y="598" type="line"/>
      <point x="372" y="545" type="line"/>
      <point x="443" y="545" type="line"/>
      <point x="443" y="353" type="line"/>
      <point x="421" y="334"/>
      <point x="389" y="324"/>
      <point x="338" y="324" type="curve"/>
      <point x="351" y="305" type="line" smooth="yes"/>
      <point x="366" y="287"/>
      <point x="395" y="275"/>
      <point x="408" y="275" type="curve" smooth="yes"/>
      <point x="422" y="275"/>
      <point x="434" y="279"/>
      <point x="443" y="287" type="curve"/>
      <point x="443" y="48" type="line"/>
      <point x="503" y="0" type="line"/>
      <point x="503" y="545" type="line"/>
      <point x="587" y="545" type="line"/>
      <point x="587" y="598" type="line"/>
    </contour>
    <contour>
      <point x="128" y="598"/>
      <point x="72" y="577"/>
      <point x="25" y="538" type="curve"/>
      <point x="73" y="485" type="line"/>
      <point x="120" y="523"/>
      <point x="170" y="545"/>
      <point x="216" y="545" type="curve" smooth="yes"/>
      <point x="256" y="545"/>
      <point x="288" y="515"/>
      <point x="288" y="478" type="curve" smooth="yes"/>
      <point x="288" y="403"/>
      <point x="235" y="365"/>
      <point x="132" y="365" type="curve"/>
      <point x="180" y="305" type="line"/>
      <point x="219" y="308"/>
      <point x="252" y="320"/>
      <point x="282" y="341" type="curve"/>
      <point x="298" y="322"/>
      <point x="306" y="306"/>
      <point x="306" y="293" type="curve" smooth="yes"/>
      <point x="306" y="235"/>
      <point x="260" y="186"/>
      <point x="204" y="186" type="curve" smooth="yes"/>
      <point x="151" y="186"/>
      <point x="83" y="255"/>
      <point x="31" y="365" type="curve"/>
      <point x="13" y="347" type="line"/>
      <point x="79" y="234" type="line"/>
      <point x="127" y="167"/>
      <point x="182" y="126"/>
      <point x="228" y="126" type="curve" smooth="yes"/>
      <point x="296" y="126"/>
      <point x="354" y="179"/>
      <point x="354" y="246" type="curve" smooth="yes"/>
      <point x="354" y="274"/>
      <point x="335" y="311"/>
      <point x="300" y="353" type="curve"/>
      <point x="324" y="380"/>
      <point x="336" y="408"/>
      <point x="336" y="431" type="curve" smooth="yes"/>
      <point x="336" y="499"/>
      <point x="248" y="598"/>
      <point x="187" y="598" type="curve" smooth="yes"/>
    </contour>
  </outline>
</glyph>
<glyph name="uni0907" format="1">
  <advance width="371"/>
  <unicode hex="0907"/>
  <outline>
    <contour>
      <point x="-12" y="598" type="line"/>
      <point x="-12" y="545" type="line"/>
      <point x="211" y="545" type="line"/>
      <point x="220" y="531"/>
      <point x="227" y="514"/>
      <point x="227" y="500" type="curve" smooth="yes"/>
      <point x="227" y="481"/>
      <point x="215" y="466"/>
      <point x="186" y="466" type="curve" smooth="yes"/>
      <point x="111" y="466" type="line" smooth="yes"/>
      <point x="54" y="466"/>
      <point x="31" y="437"/>
      <point x="31" y="402" type="curve" smooth="yes"/>
      <point x="31" y="339"/>
      <point x="97" y="260"/>
      <point x="159" y="260" type="curve" smooth="yes"/>
      <point x="216" y="260"/>
      <point x="259" y="308"/>
      <point x="275" y="308" type="curve" smooth="yes"/>
      <point x="282" y="308"/>
      <point x="288" y="305"/>
      <point x="288" y="294" type="curve" smooth="yes"/>
      <point x="288" y="250"/>
      <point x="226" y="186"/>
      <point x="152" y="186" type="curve"/>
      <point x="135" y="204"/>
      <point x="112" y="239"/>
      <point x="83" y="239" type="curve" smooth="yes"/>
      <point x="63" y="239"/>
      <point x="43" y="224"/>
      <point x="43" y="200" type="curve" smooth="yes"/>
      <point x="43" y="143"/>
      <point x="79" y="114"/>
      <point x="127" y="114" type="curve" smooth="yes"/>
      <point x="138" y="114"/>
      <point x="150" y="115"/>
      <point x="162" y="117" type="curve"/>
      <point x="208" y="54"/>
      <point x="236" y="23"/>
      <point x="282" y="-15" type="curve"/>
      <point x="314" y="18" type="line"/>
      <point x="255" y="63"/>
      <point x="236" y="85"/>
      <point x="201" y="124" type="curve"/>
      <point x="270" y="150"/>
      <point x="324" y="211"/>
      <point x="324" y="264" type="curve" smooth="yes"/>
      <point x="324" y="315"/>
      <point x="288" y="355"/>
      <point x="248" y="355" type="curve" smooth="yes"/>
      <point x="210" y="355"/>
      <point x="163" y="322"/>
      <point x="123" y="322" type="curve" smooth="yes"/>
      <point x="92" y="322"/>
      <point x="79" y="339"/>
      <point x="79" y="366" type="curve" smooth="yes"/>
      <point x="79" y="387"/>
      <point x="91" y="407"/>
      <point x="124" y="407" type="curve" smooth="yes"/>
      <point x="240" y="407" type="line" smooth="yes"/>
      <point x="283" y="407"/>
      <point x="298" y="428"/>
      <point x="298" y="455" type="curve" smooth="yes"/>
      <point x="298" y="487"/>
      <point x="280" y="525"/>
      <point x="270" y="545" type="curve"/>
      <point x="383" y="545" type="line"/>
      <point x="383" y="598" type="line"/>
    </contour>
  </outline>
</glyph>
<glyph name="uni0909" format="1">
  <advance width="421"/>
  <unicode hex="0909"/>
  <outline>
    <contour>
      <point x="-12" y="598" type="line"/>
      <point x="-12" y="545" type="line"/>
      <point x="276" y="545" type="line"/>
      <point x="292" y="529"/>
      <point x="300" y="507"/>
      <point x="300" y="485" type="curve" smooth="yes"/>
      <point x="300" y="426"/>
      <point x="247" y="377"/>
      <point x="180" y="377" type="curve" smooth="yes"/>
      <point x="155" y="377"/>
      <point x="136" y="379"/>
      <point x="121" y="383" type="curve"/>
      <point x="156" y="323" type="line"/>
      <point x="160" y="319"/>
      <point x="171" y="317"/>
      <point x="187" y="317" type="curve" smooth="yes"/>
      <point x="224" y="317"/>
      <point x="250" y="326"/>
      <point x="272" y="339" type="curve"/>
      <point x="306" y="310"/>
      <point x="328" y="278"/>
      <point x="328" y="246" type="curve" smooth="yes"/>
      <point x="328" y="183"/>
      <point x="284" y="132"/>
      <point x="228" y="132" type="curve" smooth="yes"/>
      <point x="156" y="132"/>
      <point x="79" y="218"/>
      <point x="31" y="347" type="curve"/>
      <point x="13" y="335" type="line"/>
      <point x="55" y="180"/>
      <point x="155" y="72"/>
      <point x="259" y="72" type="curve" smooth="yes"/>
      <point x="331" y="72"/>
      <point x="390" y="132"/>
      <point x="390" y="210" type="curve" smooth="yes"/>
      <point x="390" y="248"/>
      <point x="359" y="304"/>
      <point x="298" y="355" type="curve"/>
      <point x="339" y="390"/>
      <point x="360" y="426"/>
      <point x="360" y="454" type="curve" smooth="yes"/>
      <point x="360" y="474"/>
      <point x="346" y="506"/>
      <point x="318" y="545" type="curve"/>
      <point x="433" y="545" type="line"/>
      <point x="433" y="598" type="line"/>
    </contour>
  </outline>
</glyph>
<glyph name="uni090A" format="1">
  <advance width="575"/>
  <unicode hex="090A"/>
  <outline>
    <contour>
      <point x="408" y="365"/>
      <point x="374" y="347"/>
      <point x="338" y="317" type="curve"/>
      <point x="338" y="272" type="line"/>
      <point x="374" y="258" type="line"/>
      <point x="411" y="295"/>
      <point x="442" y="312"/>
      <point x="464" y="312" type="curve" smooth="yes"/>
      <point x="487" y="312"/>
      <point x="503" y="294"/>
      <point x="503" y="267" type="curve" smooth="yes"/>
      <point x="503" y="239"/>
      <point x="477" y="200"/>
      <point x="427" y="144" type="curve"/>
      <point x="481" y="102" type="line"/>
      <point x="509" y="121"/>
      <point x="553" y="179"/>
      <point x="553" y="222" type="curve" smooth="yes"/>
      <point x="553" y="288"/>
      <point x="489" y="365"/>
      <point x="433" y="365" type="curve" smooth="yes"/>
    </contour>
    <contour>
      <point x="319" y="598" type="line"/>
      <point x="319" y="545" type="line"/>
      <point x="587" y="545" type="line"/>
      <point x="587" y="598" type="line"/>
    </contour>
    <component base="uni0909"/>
  </outline>
</glyph>
<glyph name="uni090B" format="1">
  <advance width="547"/>
  <unicode hex="090B"/>
  <outline>
    <contour>
      <point x="-12" y="598" type="line"/>
      <point x="-12" y="545" type="line"/>
      <point x="255" y="545" type="line"/>
      <point x="255" y="323" type="line"/>
      <point x="208" y="402"/>
      <point x="168" y="428"/>
      <point x="116" y="428" type="curve" smooth="yes"/>
      <point x="85" y="428"/>
      <point x="52" y="420"/>
      <point x="9" y="407" type="curve"/>
      <point x="45" y="341" type="line"/>
      <point x="81" y="356"/>
      <point x="111" y="367"/>
      <point x="139" y="367" type="curve" smooth="yes"/>
      <point x="177" y="367"/>
      <point x="208" y="347"/>
      <point x="236" y="296" type="curve"/>
      <point x="40" y="215" type="line"/>
      <point x="93" y="174" type="line"/>
      <point x="255" y="239" type="line"/>
      <point x="255" y="48" type="line"/>
      <point x="315" y="0" type="line"/>
      <point x="315" y="258" type="line"/>
      <point x="418" y="304" type="line"/>
      <point x="454" y="263"/>
      <point x="478" y="223"/>
      <point x="478" y="187" type="curve" smooth="yes"/>
      <point x="478" y="155"/>
      <point x="458" y="126"/>
      <point x="407" y="105" type="curve"/>
      <point x="454" y="52" type="line"/>
      <point x="507" y="85"/>
      <point x="531" y="121"/>
      <point x="531" y="163" type="curve" smooth="yes"/>
      <point x="531" y="208"/>
      <point x="503" y="259"/>
      <point x="454" y="320" type="curve"/>
      <point x="477" y="334"/>
      <point x="490" y="359"/>
      <point x="490" y="383" type="curve" smooth="yes"/>
      <point x="490" y="410"/>
      <point x="473" y="437"/>
      <point x="434" y="437" type="curve" smooth="yes"/>
      <point x="395" y="437"/>
      <point x="366" y="419"/>
      <point x="366" y="390" type="curve" smooth="yes"/>
      <point x="366" y="380"/>
      <point x="370" y="368"/>
      <point x="378" y="355" type="curve"/>
      <point x="315" y="329" type="line"/>
      <point x="315" y="545" type="line"/>
      <point x="559" y="545" type="line"/>
      <point x="559" y="598" type="line"/>
    </contour>
  </outline>
</glyph>
<glyph name="uni090C" format="1">
  <advance width="517"/>
  <unicode hex="090C"/>
  <outline>
    <contour>
      <point x="-12" y="598" type="line"/>
      <point x="-12" y="545" type="line"/>
      <point x="344" y="545" type="line"/>
      <point x="344" y="425" type="line"/>
      <point x="315" y="425"/>
      <point x="275" y="403"/>
      <point x="236" y="365" type="curve"/>
      <point x="212" y="403"/>
      <point x="167" y="425"/>
      <point x="123" y="425" type="curve" smooth="yes"/>
      <point x="67" y="425"/>
      <point x="21" y="382"/>
      <point x="21" y="329" type="curve" smooth="yes"/>
      <point x="21" y="267"/>
      <point x="96" y="168"/>
      <point x="224" y="60" type="curve"/>
      <point x="236" y="78" type="line"/>
      <point x="186" y="121"/>
      <point x="146" y="160"/>
      <point x="117" y="195" type="curve"/>
      <point x="90" y="231"/>
      <point x="75" y="259"/>
      <point x="75" y="282" type="curve" smooth="yes"/>
      <point x="75" y="330"/>
      <point x="116" y="371"/>
      <point x="165" y="371" type="curve" smooth="yes"/>
      <point x="190" y="371"/>
      <point x="212" y="362"/>
      <point x="224" y="347" type="curve"/>
      <point x="207" y="311" type="line"/>
      <point x="255" y="263" type="line"/>
      <point x="272" y="327"/>
      <point x="323" y="371"/>
      <point x="380" y="371" type="curve" smooth="yes"/>
      <point x="414" y="371"/>
      <point x="440" y="347"/>
      <point x="440" y="317" type="curve" smooth="yes"/>
      <point x="440" y="255"/>
      <point x="414" y="230"/>
      <point x="371" y="198" type="curve" smooth="yes"/>
      <point x="327" y="165"/>
      <point x="276" y="144"/>
      <point x="276" y="84" type="curve" smooth="yes"/>
      <point x="276" y="12"/>
      <point x="339" y="-60"/>
      <point x="402" y="-60" type="curve" smooth="yes"/>
      <point x="443" y="-60"/>
      <point x="481" y="-48"/>
      <point x="515" y="-24" type="curve"/>
      <point x="479" y="24" type="line"/>
      <point x="438" y="0"/>
      <point x="401" y="-12"/>
      <point x="366" y="-12" type="curve" smooth="yes"/>
      <point x="336" y="-12"/>
      <point x="312" y="15"/>
      <point x="312" y="48" type="curve" smooth="yes"/>
      <point x="312" y="97"/>
      <point x="360" y="120"/>
      <point x="406" y="151" type="curve" smooth="yes"/>
      <point x="445" y="178"/>
      <point x="482" y="213"/>
      <point x="482" y="282" type="curve" smooth="yes"/>
      <point x="482" y="331"/>
      <point x="454" y="372"/>
      <point x="404" y="409" type="curve"/>
      <point x="404" y="545" type="line"/>
      <point x="529" y="545" type="line"/>
      <point x="529" y="598" type="line"/>
    </contour>
  </outline>
</glyph>
<glyph name="uni090F" format="1">
  <advance width="383"/>
  <unicode hex="090F"/>
  <outline>
    <contour>
      <point x="-12" y="598" type="line"/>
      <point x="395" y="598" type="line"/>
      <point x="395" y="545" type="line"/>
      <point x="299" y="545" type="line"/>
      <point x="299" y="295" type="line" smooth="yes"/>
      <point x="299" y="264"/>
      <point x="288" y="246"/>
      <point x="270" y="246" type="curve" smooth="yes"/>
      <point x="239" y="246"/>
      <point x="179" y="305"/>
      <point x="179" y="335" type="curve" smooth="yes"/>
      <point x="179" y="346"/>
      <point x="196" y="348"/>
      <point x="212" y="348" type="curve" smooth="yes"/>
      <point x="239" y="348" type="line"/>
      <point x="239" y="545" type="line"/>
      <point x="96" y="545" type="line"/>
      <point x="96" y="347" type="line" smooth="yes"/>
      <point x="96" y="282"/>
      <point x="109" y="250"/>
      <point x="150" y="222" type="curve" smooth="yes"/>
      <point x="305" y="114" type="line" smooth="yes"/>
      <point x="347" y="85"/>
      <point x="371" y="54"/>
      <point x="371" y="30" type="curve" smooth="yes"/>
      <point x="371" y="3"/>
      <point x="351" y="-18"/>
      <point x="329" y="-18" type="curve" smooth="yes"/>
      <point x="290" y="-18"/>
      <point x="258" y="-4"/>
      <point x="258" y="12" type="curve" smooth="yes"/>
      <point x="258" y="32"/>
      <point x="299" y="32"/>
      <point x="299" y="72" type="curve" smooth="yes"/>
      <point x="299" y="83"/>
      <point x="286" y="98"/>
      <point x="263" y="114" type="curve" smooth="yes"/>
      <point x="144" y="191" type="line" smooth="yes"/>
      <point x="76" y="239"/>
      <point x="36" y="283"/>
      <point x="36" y="382" type="curve" smooth="yes"/>
      <point x="36" y="545" type="line"/>
      <point x="-12" y="545" type="line"/>
    </contour>
  </outline>
</glyph>
